<svg width="168" height="118" viewBox="0 0 168 118" fill="none" xmlns="http://www.w3.org/2000/svg">
<g filter="url(#filter0_d_4725_4520)">
<rect x="14" y="10" width="140" height="90" rx="10" fill="white"/>
</g>
<path d="M49.5924 73.964H53.7744C54.2957 73.964 54.7774 74.0263 55.2194 74.151C55.6727 74.2757 56.0581 74.4627 56.3754 74.712C56.7041 74.95 56.9591 75.2617 57.1404 75.647C57.3331 76.021 57.4294 76.463 57.4294 76.973C57.4294 77.6643 57.2367 78.231 56.8514 78.673C56.4661 79.1037 55.9674 79.421 55.3554 79.625V79.659C55.7181 79.6817 56.0581 79.778 56.3754 79.948C56.6927 80.1067 56.9647 80.322 57.1914 80.594C57.4294 80.8547 57.6164 81.1607 57.7524 81.512C57.8884 81.8633 57.9564 82.243 57.9564 82.651C57.9564 83.195 57.8431 83.6767 57.6164 84.096C57.4011 84.504 57.1007 84.8497 56.7154 85.133C56.3301 85.4163 55.8824 85.6317 55.3724 85.779C54.8624 85.9263 54.3127 86 53.7234 86H49.5924V73.964ZM51.2244 78.962H53.4514C53.7574 78.962 54.0464 78.9337 54.3184 78.877C54.5904 78.809 54.8284 78.7013 55.0324 78.554C55.2364 78.4067 55.3951 78.2197 55.5084 77.993C55.6331 77.7663 55.6954 77.4887 55.6954 77.16C55.6954 76.684 55.5424 76.2703 55.2364 75.919C54.9304 75.5677 54.4487 75.392 53.7914 75.392H51.2244V78.962ZM51.2244 84.572H53.6214C53.8707 84.572 54.1427 84.5493 54.4374 84.504C54.7434 84.4473 55.0267 84.3453 55.2874 84.198C55.5481 84.0393 55.7691 83.8297 55.9504 83.569C56.1317 83.3083 56.2224 82.9627 56.2224 82.532C56.2224 81.818 55.9901 81.2853 55.5254 80.934C55.0607 80.5713 54.4317 80.39 53.6384 80.39H51.2244V84.572ZM59.9094 77.942H61.4394V79.183H61.4734C61.5754 78.9677 61.7114 78.775 61.8814 78.605C62.0514 78.4237 62.2384 78.2707 62.4424 78.146C62.6578 78.0213 62.8901 77.925 63.1394 77.857C63.3888 77.7777 63.6381 77.738 63.8874 77.738C64.1368 77.738 64.3634 77.772 64.5674 77.84L64.4994 79.489C64.3748 79.455 64.2501 79.4267 64.1254 79.404C64.0008 79.3813 63.8761 79.37 63.7514 79.37C63.0034 79.37 62.4311 79.5797 62.0344 79.999C61.6378 80.4183 61.4394 81.07 61.4394 81.954V86H59.9094V77.942ZM66.2354 78.928C66.6661 78.5313 67.1647 78.2367 67.7314 78.044C68.2981 77.84 68.8647 77.738 69.4314 77.738C70.0207 77.738 70.5251 77.8117 70.9444 77.959C71.3751 78.1063 71.7264 78.3047 71.9984 78.554C72.2704 78.8033 72.4687 79.0923 72.5934 79.421C72.7294 79.7383 72.7974 80.0727 72.7974 80.424V84.538C72.7974 84.8213 72.8031 85.082 72.8144 85.32C72.8257 85.558 72.8427 85.7847 72.8654 86H71.5054C71.4714 85.592 71.4544 85.184 71.4544 84.776H71.4204C71.0804 85.2973 70.6781 85.6657 70.2134 85.881C69.7487 86.0963 69.2104 86.204 68.5984 86.204C68.2244 86.204 67.8674 86.153 67.5274 86.051C67.1874 85.949 66.8871 85.796 66.6264 85.592C66.3771 85.388 66.1787 85.1387 66.0314 84.844C65.8841 84.538 65.8104 84.1867 65.8104 83.79C65.8104 83.2687 65.9237 82.8323 66.1504 82.481C66.3884 82.1297 66.7057 81.8463 67.1024 81.631C67.5104 81.4043 67.9807 81.2457 68.5134 81.155C69.0574 81.053 69.6354 81.002 70.2474 81.002H71.3694V80.662C71.3694 80.458 71.3297 80.254 71.2504 80.05C71.1711 79.846 71.0521 79.6647 70.8934 79.506C70.7347 79.336 70.5364 79.2057 70.2984 79.115C70.0604 79.013 69.7771 78.962 69.4484 78.962C69.1537 78.962 68.8931 78.9903 68.6664 79.047C68.4511 79.1037 68.2527 79.1773 68.0714 79.268C67.8901 79.3473 67.7257 79.4437 67.5784 79.557C67.4311 79.6703 67.2894 79.778 67.1534 79.88L66.2354 78.928ZM70.5534 82.124C70.1907 82.124 69.8167 82.1467 69.4314 82.192C69.0574 82.226 68.7117 82.2997 68.3944 82.413C68.0884 82.5263 67.8334 82.685 67.6294 82.889C67.4367 83.093 67.3404 83.3537 67.3404 83.671C67.3404 84.1357 67.4934 84.47 67.7994 84.674C68.1167 84.878 68.5417 84.98 69.0744 84.98C69.4937 84.98 69.8507 84.912 70.1454 84.776C70.4401 84.6287 70.6781 84.4417 70.8594 84.215C71.0407 83.9883 71.1711 83.739 71.2504 83.467C71.3297 83.1837 71.3694 82.906 71.3694 82.634V82.124H70.5534ZM75.0168 77.942H76.5468V79.183H76.5808C76.7735 78.7523 77.1078 78.4067 77.5838 78.146C78.0598 77.874 78.6095 77.738 79.2328 77.738C79.6182 77.738 79.9865 77.8003 80.3378 77.925C80.7005 78.0383 81.0122 78.2197 81.2728 78.469C81.5448 78.7183 81.7602 79.0413 81.9188 79.438C82.0775 79.8233 82.1568 80.2823 82.1568 80.815V86H80.6268V81.24C80.6268 80.866 80.5758 80.5487 80.4738 80.288C80.3718 80.016 80.2358 79.8007 80.0658 79.642C79.8958 79.472 79.6975 79.353 79.4708 79.285C79.2555 79.2057 79.0288 79.166 78.7908 79.166C78.4735 79.166 78.1788 79.217 77.9068 79.319C77.6348 79.421 77.3968 79.5853 77.1928 79.812C76.9888 80.0273 76.8302 80.305 76.7168 80.645C76.6035 80.985 76.5468 81.3873 76.5468 81.852V86H75.0168V77.942ZM90.2261 80.084C89.9428 79.7893 89.6425 79.5683 89.3251 79.421C89.0191 79.2623 88.6508 79.183 88.2201 79.183C87.8008 79.183 87.4325 79.2623 87.1151 79.421C86.8091 79.5683 86.5485 79.778 86.3331 80.05C86.1291 80.3107 85.9705 80.6167 85.8571 80.968C85.7551 81.308 85.7041 81.665 85.7041 82.039C85.7041 82.413 85.7665 82.77 85.8911 83.11C86.0158 83.4387 86.1915 83.7277 86.4181 83.977C86.6448 84.2263 86.9168 84.4247 87.2341 84.572C87.5515 84.708 87.9085 84.776 88.3051 84.776C88.7358 84.776 89.1041 84.7023 89.4101 84.555C89.7161 84.3963 89.9995 84.1697 90.2601 83.875L91.3481 84.963C90.9515 85.405 90.4868 85.7223 89.9541 85.915C89.4328 86.1077 88.8775 86.204 88.2881 86.204C87.6648 86.204 87.0925 86.102 86.5711 85.898C86.0611 85.694 85.6191 85.4107 85.2451 85.048C84.8711 84.674 84.5821 84.232 84.3781 83.722C84.1741 83.2007 84.0721 82.6283 84.0721 82.005C84.0721 81.3817 84.1741 80.8093 84.3781 80.288C84.5821 79.7667 84.8655 79.319 85.2281 78.945C85.6021 78.571 86.0441 78.282 86.5541 78.078C87.0755 77.8627 87.6535 77.755 88.2881 77.755C88.8775 77.755 89.4385 77.8627 89.9711 78.078C90.5151 78.282 90.9855 78.5993 91.3821 79.03L90.2261 80.084ZM92.6643 73.148H94.1943V79.183H94.2283C94.421 78.7523 94.7553 78.4067 95.2313 78.146C95.7073 77.874 96.257 77.738 96.8803 77.738C97.2656 77.738 97.634 77.8003 97.9853 77.925C98.348 78.0383 98.6596 78.2197 98.9203 78.469C99.1923 78.7183 99.4076 79.0413 99.5663 79.438C99.725 79.8233 99.8043 80.2823 99.8043 80.815V86H98.2743V81.24C98.2743 80.866 98.2233 80.5487 98.1213 80.288C98.0193 80.016 97.8833 79.8007 97.7133 79.642C97.5433 79.472 97.345 79.353 97.1183 79.285C96.903 79.2057 96.6763 79.166 96.4383 79.166C96.121 79.166 95.8263 79.217 95.5543 79.319C95.2823 79.421 95.0443 79.5853 94.8403 79.812C94.6363 80.0273 94.4776 80.305 94.3643 80.645C94.251 80.985 94.1943 81.3873 94.1943 81.852V86H92.6643V73.148ZM103.267 82.532C103.267 82.8833 103.34 83.2063 103.488 83.501C103.646 83.7843 103.85 84.028 104.1 84.232C104.349 84.436 104.638 84.5947 104.967 84.708C105.295 84.8213 105.635 84.878 105.987 84.878C106.463 84.878 106.876 84.7703 107.228 84.555C107.579 84.3283 107.902 84.0337 108.197 83.671L109.353 84.555C108.503 85.6543 107.313 86.204 105.783 86.204C105.148 86.204 104.57 86.0963 104.049 85.881C103.539 85.6657 103.102 85.371 102.74 84.997C102.388 84.6117 102.116 84.164 101.924 83.654C101.731 83.1327 101.635 82.5717 101.635 81.971C101.635 81.3703 101.737 80.815 101.941 80.305C102.156 79.7837 102.445 79.336 102.808 78.962C103.182 78.5767 103.624 78.2763 104.134 78.061C104.644 77.8457 105.199 77.738 105.8 77.738C106.514 77.738 107.114 77.8627 107.602 78.112C108.1 78.3613 108.508 78.69 108.826 79.098C109.143 79.4947 109.37 79.948 109.506 80.458C109.653 80.9567 109.727 81.4667 109.727 81.988V82.532H103.267ZM108.095 81.308C108.083 80.968 108.027 80.6563 107.925 80.373C107.834 80.0897 107.692 79.846 107.5 79.642C107.307 79.4267 107.063 79.2623 106.769 79.149C106.485 79.0243 106.151 78.962 105.766 78.962C105.392 78.962 105.046 79.0357 104.729 79.183C104.423 79.319 104.162 79.5003 103.947 79.727C103.731 79.9537 103.561 80.2087 103.437 80.492C103.323 80.764 103.267 81.036 103.267 81.308H108.095ZM115.841 79.965C115.66 79.7383 115.433 79.5513 115.161 79.404C114.9 79.2453 114.577 79.166 114.192 79.166C113.829 79.166 113.512 79.2453 113.24 79.404C112.979 79.5513 112.849 79.7723 112.849 80.067C112.849 80.305 112.923 80.4977 113.07 80.645C113.229 80.7923 113.41 80.9113 113.614 81.002C113.829 81.0927 114.056 81.1607 114.294 81.206C114.532 81.2513 114.736 81.291 114.906 81.325C115.235 81.4043 115.541 81.5007 115.824 81.614C116.119 81.7273 116.368 81.8747 116.572 82.056C116.787 82.2373 116.952 82.4583 117.065 82.719C117.19 82.9797 117.252 83.297 117.252 83.671C117.252 84.1243 117.156 84.5153 116.963 84.844C116.77 85.1613 116.521 85.422 116.215 85.626C115.909 85.83 115.558 85.9773 115.161 86.068C114.776 86.1587 114.385 86.204 113.988 86.204C113.319 86.204 112.73 86.102 112.22 85.898C111.721 85.694 111.274 85.32 110.877 84.776L112.033 83.824C112.282 84.0733 112.56 84.2943 112.866 84.487C113.172 84.6797 113.546 84.776 113.988 84.776C114.181 84.776 114.373 84.759 114.566 84.725C114.77 84.6797 114.946 84.6173 115.093 84.538C115.252 84.4473 115.376 84.3397 115.467 84.215C115.569 84.079 115.62 83.926 115.62 83.756C115.62 83.5293 115.546 83.3423 115.399 83.195C115.263 83.0477 115.093 82.9343 114.889 82.855C114.696 82.7643 114.487 82.6963 114.26 82.651C114.045 82.5943 113.852 82.549 113.682 82.515C113.353 82.4357 113.042 82.345 112.747 82.243C112.452 82.141 112.192 82.005 111.965 81.835C111.738 81.665 111.557 81.4497 111.421 81.189C111.285 80.9283 111.217 80.6053 111.217 80.22C111.217 79.8007 111.302 79.438 111.472 79.132C111.653 78.8147 111.886 78.554 112.169 78.35C112.464 78.146 112.792 77.993 113.155 77.891C113.529 77.789 113.903 77.738 114.277 77.738C114.821 77.738 115.342 77.84 115.841 78.044C116.34 78.248 116.736 78.588 117.031 79.064L115.841 79.965Z" fill="#0C0C0D"/>
<rect x="65" y="22" width="37" height="37" rx="18.5" fill="#E30A13"/>
<path fill-rule="evenodd" clip-rule="evenodd" d="M78.2577 34.2577C81.268 31.2474 86.1487 31.2474 89.159 34.2577C92.1694 37.268 92.1694 42.1487 89.159 45.159L84.3293 49.9888C84.1646 50.1534 83.9413 50.246 83.7084 50.246C83.4755 50.246 83.2521 50.1534 83.0875 49.9888L78.2577 45.159C75.2474 42.1487 75.2474 37.268 78.2577 34.2577ZM83.7083 37.0739C82.2534 37.0739 81.0739 38.2534 81.0739 39.7083V39.7171C81.0739 41.172 82.2534 42.3515 83.7083 42.3515H83.7171C85.172 42.3515 86.3515 41.172 86.3515 39.7171V39.7083C86.3515 38.2534 85.172 37.0739 83.7171 37.0739H83.7083Z" fill="white"/>
<defs>
<filter id="filter0_d_4725_4520" x="0" y="0" width="168" height="118" filterUnits="userSpaceOnUse" color-interpolation-filters="sRGB">
<feFlood flood-opacity="0" result="BackgroundImageFix"/>
<feColorMatrix in="SourceAlpha" type="matrix" values="0 0 0 0 0 0 0 0 0 0 0 0 0 0 0 0 0 0 127 0" result="hardAlpha"/>
<feMorphology radius="4" operator="dilate" in="SourceAlpha" result="effect1_dropShadow_4725_4520"/>
<feOffset dy="4"/>
<feGaussianBlur stdDeviation="5"/>
<feComposite in2="hardAlpha" operator="out"/>
<feColorMatrix type="matrix" values="0 0 0 0 0 0 0 0 0 0 0 0 0 0 0 0 0 0 0.15 0"/>
<feBlend mode="normal" in2="BackgroundImageFix" result="effect1_dropShadow_4725_4520"/>
<feBlend mode="normal" in="SourceGraphic" in2="effect1_dropShadow_4725_4520" result="shape"/>
</filter>
</defs>
</svg>
