<svg width="24" height="24" viewBox="0 0 24 24" fill="none" xmlns="http://www.w3.org/2000/svg">
<mask id="mask0_6691_6776" style="mask-type:alpha" maskUnits="userSpaceOnUse" x="0" y="0" width="24" height="24">
<rect width="23.9446" height="24" fill="#D9D9D9"/>
</mask>
<g mask="url(#mask0_6691_6776)">
<path d="M8.38132 17L11.973 13.4L15.5647 17L16.9615 15.6L13.3698 12L16.9615 8.4L15.5647 7L11.973 10.6L8.38132 7L6.98455 8.4L10.5762 12L6.98455 15.6L8.38132 17ZM11.973 22C10.5929 22 9.29587 21.7373 8.08202 21.212C6.86816 20.6873 5.81227 19.975 4.91434 19.075C4.01642 18.175 3.30573 17.1167 2.78228 15.9C2.25815 14.6833 1.99609 13.3833 1.99609 12C1.99609 10.6167 2.25815 9.31667 2.78228 8.1C3.30573 6.88333 4.01642 5.825 4.91434 4.925C5.81227 4.025 6.86816 3.31233 8.08202 2.787C9.29587 2.26233 10.5929 2 11.973 2C13.3532 2 14.6502 2.26233 15.864 2.787C17.0779 3.31233 18.1338 4.025 19.0317 4.925C19.9296 5.825 20.6403 6.88333 21.1638 8.1C21.6879 9.31667 21.9499 10.6167 21.9499 12C21.9499 13.3833 21.6879 14.6833 21.1638 15.9C20.6403 17.1167 19.9296 18.175 19.0317 19.075C18.1338 19.975 17.0779 20.6873 15.864 21.212C14.6502 21.7373 13.3532 22 11.973 22Z" fill="#E30A13"/>
</g>
</svg>
