<svg width="122" height="32" viewBox="0 0 122 32" fill="none" xmlns="http://www.w3.org/2000/svg">
<path d="M11.2444 6.59991C11.0384 6.09044 10.606 5.77393 10.1158 5.77393C9.62567 5.77393 9.1932 6.09044 8.98723 6.59995L6.26423 13.3361C6.23319 13.4129 6.21758 13.495 6.21828 13.5779C6.21899 13.6607 6.23601 13.7426 6.26837 13.8188C6.30072 13.8951 6.34778 13.9642 6.40685 14.0223C6.46593 14.0804 6.53586 14.1262 6.61266 14.1573C6.68946 14.1883 6.77162 14.2039 6.85445 14.2032C6.93728 14.2025 7.01917 14.1855 7.09542 14.1531C7.17168 14.1208 7.24081 14.0737 7.29888 14.0146C7.35695 13.9556 7.40282 13.8856 7.43386 13.8088L8.45473 11.2834H11.7769L12.7977 13.8088C12.8286 13.8859 12.8744 13.9561 12.9324 14.0154C12.9905 14.0747 13.0597 14.122 13.136 14.1545C13.2124 14.187 13.2944 14.2042 13.3774 14.2049C13.4604 14.2057 13.5427 14.1901 13.6196 14.159C13.6966 14.1279 13.7666 14.0819 13.8258 14.0237C13.8849 13.9655 13.932 13.8961 13.9643 13.8197C13.9966 13.7432 14.0135 13.6612 14.014 13.5782C14.0145 13.4952 13.9987 13.4129 13.9674 13.3361L11.2444 6.59991ZM8.96471 10.0219L10.1158 7.17429L11.2669 10.0219H8.96471Z" fill="#E30A13"/>
<path d="M8.22469 23.6257C8.11153 23.5164 7.95997 23.4559 7.80265 23.4573C7.64533 23.4587 7.49484 23.5218 7.3836 23.633C7.27235 23.7443 7.20925 23.8947 7.20788 24.0521C7.20652 24.2094 7.26699 24.3609 7.37629 24.4741L7.55209 24.6499H4.80049C4.64136 24.6499 4.48875 24.5867 4.37622 24.4742C4.2637 24.3616 4.20049 24.209 4.20049 24.0499V22.2499C4.20049 22.0908 4.13727 21.9382 4.02475 21.8256C3.91223 21.7131 3.75962 21.6499 3.60049 21.6499C3.44136 21.6499 3.28875 21.7131 3.17622 21.8256C3.0637 21.9382 3.00049 22.0908 3.00049 22.2499V24.0499C3.00049 24.5273 3.19013 24.9851 3.5277 25.3227C3.86526 25.6603 4.3231 25.8499 4.80049 25.8499H7.55209L7.37629 26.0257C7.31898 26.081 7.27327 26.1473 7.24183 26.2205C7.21038 26.2937 7.19383 26.3724 7.19314 26.4521C7.19245 26.5317 7.20763 26.6107 7.2378 26.6845C7.26796 26.7582 7.31252 26.8252 7.36885 26.8815C7.42519 26.9379 7.49218 26.9824 7.56592 27.0126C7.63965 27.0428 7.71866 27.0579 7.79833 27.0573C7.878 27.0566 7.95673 27.04 8.02993 27.0086C8.10313 26.9771 8.16934 26.9314 8.22469 26.8741L9.42469 25.6741C9.53717 25.5616 9.60036 25.409 9.60036 25.2499C9.60036 25.0908 9.53717 24.9382 9.42469 24.8257L8.22469 23.6257Z" fill="#E30A13"/>
<path d="M26.9998 6.05747H24.2482L24.424 5.88167C24.4813 5.82632 24.527 5.76012 24.5585 5.68691C24.5899 5.61371 24.6065 5.53498 24.6072 5.45531C24.6079 5.37564 24.5927 5.29664 24.5625 5.2229C24.5323 5.14916 24.4878 5.08217 24.4315 5.02583C24.3751 4.9695 24.3081 4.92495 24.2344 4.89478C24.1607 4.86461 24.0816 4.84943 24.002 4.85012C23.9223 4.85081 23.8436 4.86736 23.7704 4.89881C23.6972 4.93026 23.631 4.97596 23.5756 5.03327L22.3756 6.23327C22.2631 6.34579 22.2 6.49837 22.2 6.65747C22.2 6.81657 22.2631 6.96915 22.3756 7.08167L23.5756 8.28167C23.6888 8.39096 23.8403 8.45144 23.9977 8.45007C24.155 8.44871 24.3055 8.38561 24.4167 8.27436C24.528 8.16312 24.5911 8.01263 24.5924 7.85531C24.5938 7.69799 24.5333 7.54643 24.424 7.43327L24.2482 7.25747H26.9998C27.159 7.25747 27.3116 7.32068 27.4241 7.43321C27.5366 7.54573 27.5998 7.69834 27.5998 7.85747V9.65747C27.5998 9.8166 27.663 9.96921 27.7756 10.0817C27.8881 10.1943 28.0407 10.2575 28.1998 10.2575C28.359 10.2575 28.5116 10.1943 28.6241 10.0817C28.7366 9.96921 28.7998 9.8166 28.7998 9.65747V7.85747C28.7998 7.38008 28.6102 6.92224 28.2726 6.58468C27.935 6.24711 27.4772 6.05747 26.9998 6.05747Z" fill="#E30A13"/>
<path d="M25.5607 13.7734H20.1631C20.2093 13.4756 20.2325 13.1747 20.2325 12.8733V7.10336C20.2307 5.55149 19.6134 4.06368 18.5161 2.96635C17.4188 1.86901 15.931 1.25176 14.3791 1.25H5.85335C4.30148 1.25176 2.81368 1.86901 1.71634 2.96635C0.619009 4.06369 0.00175509 5.55149 0 7.10336V12.8733C0.00175717 14.4252 0.619012 15.913 1.71635 17.0103C2.81368 18.1077 4.30148 18.7249 5.85335 18.7267H11.2523C11.2054 19.0244 11.1818 19.3253 11.1816 19.6267V25.3967C11.1834 26.9485 11.8006 28.4363 12.8979 29.5337C13.9953 30.631 15.4831 31.2482 17.0349 31.25H25.5608C27.1126 31.2482 28.6004 30.631 29.6977 29.5337C30.7951 28.4363 31.4123 26.9485 31.4141 25.3967V19.6267C31.4123 18.0748 30.7951 16.587 29.6977 15.4897C28.6004 14.3924 27.1126 13.7751 25.5607 13.7734ZM1.26153 12.8733V7.10336C1.26291 5.88596 1.74713 4.71881 2.60797 3.85798C3.4688 2.99715 4.63595 2.51294 5.85335 2.51157H14.3791C15.5965 2.51294 16.7636 2.99716 17.6245 3.85799C18.4853 4.71882 18.9695 5.88596 18.9709 7.10336V12.8733C18.9695 14.0907 18.4853 15.2579 17.6245 16.1187C16.7636 16.9795 15.5965 17.4637 14.3791 17.4651H5.85335C4.63595 17.4637 3.4688 16.9795 2.60797 16.1187C1.74713 15.2579 1.26291 14.0907 1.26153 12.8733Z" fill="#E30A13"/>
<path d="M18.0802 24.168L18.2882 23.512C18.9122 23.512 19.4482 23.496 19.8962 23.464C20.3495 23.432 20.7202 23.3813 21.0082 23.312C21.3015 23.2373 21.5175 23.1387 21.6562 23.016C21.8002 22.888 21.8722 22.7333 21.8722 22.552C21.8722 22.3493 21.8348 22.1147 21.7602 21.848C21.6855 21.5813 21.5895 21.296 21.4722 20.992L22.0882 20.776C22.1575 20.9467 22.2215 21.1307 22.2802 21.328C22.3442 21.52 22.3975 21.712 22.4402 21.904C22.4828 22.0907 22.5042 22.264 22.5042 22.424C22.5042 22.7387 22.4322 23.008 22.2882 23.232C22.1442 23.4507 21.9042 23.6293 21.5682 23.768C21.2322 23.9067 20.7788 24.008 20.2082 24.072C19.6428 24.136 18.9335 24.168 18.0802 24.168ZM18.0802 24.168C17.6055 24.168 17.1868 24.136 16.8242 24.072C16.4668 24.0133 16.1682 23.92 15.9282 23.792C15.6882 23.664 15.5068 23.4987 15.3842 23.296C15.2615 23.088 15.2002 22.8373 15.2002 22.544C15.2002 22.4107 15.2108 22.2747 15.2322 22.136C15.2535 21.992 15.2802 21.848 15.3122 21.704C15.3495 21.56 15.3868 21.4213 15.4242 21.288L16.0242 21.44C16.0028 21.52 15.9788 21.616 15.9522 21.728C15.9255 21.8347 15.9015 21.944 15.8802 22.056C15.8642 22.168 15.8562 22.2693 15.8562 22.36C15.8562 22.6373 15.9255 22.8613 16.0642 23.032C16.2082 23.1973 16.4562 23.32 16.8082 23.4C17.1602 23.4747 17.6535 23.512 18.2882 23.512L18.4482 23.912L18.0802 24.168ZM18.8482 25.688C18.7362 25.688 18.6402 25.648 18.5602 25.568C18.4855 25.4933 18.4482 25.4027 18.4482 25.296C18.4482 25.1893 18.4855 25.096 18.5602 25.016C18.6402 24.936 18.7362 24.896 18.8482 24.896C18.9548 24.896 19.0455 24.936 19.1202 25.016C19.2002 25.096 19.2402 25.1893 19.2402 25.296C19.2402 25.4027 19.2002 25.4933 19.1202 25.568C19.0455 25.648 18.9548 25.688 18.8482 25.688ZM23.1455 23.544C23.1455 23.416 23.1908 23.3093 23.2815 23.224C23.3775 23.1333 23.4841 23.088 23.6015 23.088C23.7081 23.088 23.8068 23.1333 23.8975 23.224C23.9935 23.3093 24.0415 23.416 24.0415 23.544C24.0415 23.6827 23.9935 23.7947 23.8975 23.88C23.8068 23.96 23.7081 24 23.6015 24C23.4841 24 23.3775 23.96 23.2815 23.88C23.1908 23.7947 23.1455 23.6827 23.1455 23.544ZM24.969 24L24.833 18.848H25.481L25.617 24H24.969ZM24.441 18.368L24.345 17.936C24.4837 17.904 24.5957 17.8773 24.681 17.856C24.7664 17.8347 24.8624 17.8107 24.969 17.784L24.929 17.952C24.7904 17.9093 24.657 17.8187 24.529 17.68C24.4064 17.5413 24.345 17.384 24.345 17.208C24.345 17.048 24.3824 16.9147 24.457 16.808C24.537 16.696 24.6384 16.6133 24.761 16.56C24.889 16.5067 25.025 16.48 25.169 16.48C25.2277 16.48 25.289 16.4853 25.353 16.496C25.4224 16.5067 25.4864 16.5227 25.545 16.544L25.481 16.944C25.4277 16.9333 25.377 16.9227 25.329 16.912C25.281 16.9013 25.2277 16.896 25.169 16.896C25.0464 16.896 24.9504 16.9227 24.881 16.976C24.8117 17.024 24.777 17.0933 24.777 17.184C24.777 17.296 24.8117 17.392 24.881 17.472C24.9557 17.552 25.0384 17.616 25.129 17.664C25.225 17.7067 25.3024 17.728 25.361 17.728L25.033 17.76C25.177 17.7227 25.3104 17.6853 25.433 17.648C25.561 17.6053 25.6757 17.5653 25.777 17.528L25.905 17.936C25.777 17.984 25.625 18.0347 25.449 18.088C25.2784 18.1413 25.105 18.192 24.929 18.24C24.753 18.288 24.5904 18.3307 24.441 18.368Z" fill="white"/>
<path d="M37.2321 5.84H46.3721V7.64H39.1521V11.86H45.8721V13.66H39.1521V18.2H46.7321V20H37.2321V5.84ZM48.9987 10.52H50.7987V11.98H50.8387C51.0653 11.4733 51.4587 11.0667 52.0187 10.76C52.5787 10.44 53.2253 10.28 53.9587 10.28C54.412 10.28 54.8453 10.3533 55.2587 10.5C55.6853 10.6333 56.052 10.8467 56.3587 11.14C56.6787 11.4333 56.932 11.8133 57.1187 12.28C57.3053 12.7333 57.3987 13.2733 57.3987 13.9V20H55.5987V14.4C55.5987 13.96 55.5387 13.5867 55.4187 13.28C55.2987 12.96 55.1387 12.7067 54.9387 12.52C54.7387 12.32 54.5053 12.18 54.2387 12.1C53.9853 12.0067 53.7187 11.96 53.4387 11.96C53.0653 11.96 52.7187 12.02 52.3987 12.14C52.0787 12.26 51.7987 12.4533 51.5587 12.72C51.3187 12.9733 51.132 13.3 50.9987 13.7C50.8653 14.1 50.7987 14.5733 50.7987 15.12V20H48.9987V10.52ZM69.612 19.92C69.612 20.64 69.4853 21.2933 69.232 21.88C68.992 22.48 68.6453 22.9933 68.192 23.42C67.7386 23.86 67.192 24.2 66.552 24.44C65.912 24.68 65.2053 24.8 64.432 24.8C63.5253 24.8 62.692 24.6733 61.932 24.42C61.1853 24.1667 60.472 23.7267 59.792 23.1L61.012 21.58C61.4786 22.0867 61.9853 22.4667 62.532 22.72C63.0786 22.9867 63.6986 23.12 64.392 23.12C65.0586 23.12 65.612 23.02 66.052 22.82C66.492 22.6333 66.8386 22.3867 67.092 22.08C67.3586 21.7733 67.5453 21.42 67.652 21.02C67.7586 20.6333 67.812 20.24 67.812 19.84V18.44H67.752C67.4053 19.0133 66.932 19.44 66.332 19.72C65.7453 19.9867 65.1253 20.12 64.472 20.12C63.7786 20.12 63.132 20 62.532 19.76C61.9453 19.5067 61.4386 19.1667 61.012 18.74C60.5853 18.3 60.252 17.7867 60.012 17.2C59.772 16.6 59.652 15.9533 59.652 15.26C59.652 14.5667 59.7653 13.92 59.992 13.32C60.2186 12.7067 60.5386 12.1733 60.952 11.72C61.3786 11.2667 61.8853 10.9133 62.472 10.66C63.072 10.4067 63.7386 10.28 64.472 10.28C65.112 10.28 65.732 10.42 66.332 10.7C66.9453 10.98 67.4253 11.3733 67.772 11.88H67.812V10.52H69.612V19.92ZM64.692 11.96C64.212 11.96 63.7786 12.0467 63.392 12.22C63.0053 12.38 62.6786 12.6067 62.412 12.9C62.1453 13.18 61.9386 13.5267 61.792 13.94C61.6453 14.34 61.572 14.78 61.572 15.26C61.572 16.22 61.852 16.9933 62.412 17.58C62.972 18.1533 63.732 18.44 64.692 18.44C65.652 18.44 66.412 18.1533 66.972 17.58C67.532 16.9933 67.812 16.22 67.812 15.26C67.812 14.78 67.7386 14.34 67.592 13.94C67.4453 13.5267 67.2386 13.18 66.972 12.9C66.7053 12.6067 66.3786 12.38 65.992 12.22C65.6053 12.0467 65.172 11.96 64.692 11.96ZM72.4785 4.88H74.2785V20H72.4785V4.88ZM77.2832 10.52H79.0832V20H77.2832V10.52ZM76.8632 7.12C76.8632 6.76 76.9899 6.45333 77.2432 6.2C77.5099 5.93333 77.8232 5.8 78.1832 5.8C78.5432 5.8 78.8499 5.93333 79.1032 6.2C79.3699 6.45333 79.5032 6.76 79.5032 7.12C79.5032 7.48 79.3699 7.79333 79.1032 8.06C78.8499 8.31333 78.5432 8.44 78.1832 8.44C77.8232 8.44 77.5099 8.31333 77.2432 8.06C76.9899 7.79333 76.8632 7.48 76.8632 7.12ZM86.9879 12.9C86.7746 12.6333 86.5079 12.4133 86.1879 12.24C85.8812 12.0533 85.5012 11.96 85.0479 11.96C84.6212 11.96 84.2479 12.0533 83.9279 12.24C83.6212 12.4133 83.4679 12.6733 83.4679 13.02C83.4679 13.3 83.5546 13.5267 83.7279 13.7C83.9146 13.8733 84.1279 14.0133 84.3679 14.12C84.6212 14.2267 84.8879 14.3067 85.1679 14.36C85.4479 14.4133 85.6879 14.46 85.8879 14.5C86.2746 14.5933 86.6346 14.7067 86.9679 14.84C87.3146 14.9733 87.6079 15.1467 87.8479 15.36C88.1012 15.5733 88.2946 15.8333 88.4279 16.14C88.5746 16.4467 88.6479 16.82 88.6479 17.26C88.6479 17.7933 88.5346 18.2533 88.3079 18.64C88.0812 19.0133 87.7879 19.32 87.4279 19.56C87.0679 19.8 86.6546 19.9733 86.1879 20.08C85.7346 20.1867 85.2746 20.24 84.8079 20.24C84.0212 20.24 83.3279 20.12 82.7279 19.88C82.1412 19.64 81.6146 19.2 81.1479 18.56L82.5079 17.44C82.8012 17.7333 83.1279 17.9933 83.4879 18.22C83.8479 18.4467 84.2879 18.56 84.8079 18.56C85.0346 18.56 85.2612 18.54 85.4879 18.5C85.7279 18.4467 85.9346 18.3733 86.1079 18.28C86.2946 18.1733 86.4412 18.0467 86.5479 17.9C86.6679 17.74 86.7279 17.56 86.7279 17.36C86.7279 17.0933 86.6412 16.8733 86.4679 16.7C86.3079 16.5267 86.1079 16.3933 85.8679 16.3C85.6412 16.1933 85.3946 16.1133 85.1279 16.06C84.8746 15.9933 84.6479 15.94 84.4479 15.9C84.0612 15.8067 83.6946 15.7 83.3479 15.58C83.0012 15.46 82.6946 15.3 82.4279 15.1C82.1612 14.9 81.9479 14.6467 81.7879 14.34C81.6279 14.0333 81.5479 13.6533 81.5479 13.2C81.5479 12.7067 81.6479 12.28 81.8479 11.92C82.0612 11.5467 82.3346 11.24 82.6679 11C83.0146 10.76 83.4012 10.58 83.8279 10.46C84.2679 10.34 84.7079 10.28 85.1479 10.28C85.7879 10.28 86.4012 10.4 86.9879 10.64C87.5746 10.88 88.0412 11.28 88.3879 11.84L86.9879 12.9ZM90.8346 4.88H92.6346V11.98H92.6746C92.9013 11.4733 93.2946 11.0667 93.8546 10.76C94.4146 10.44 95.0613 10.28 95.7946 10.28C96.2479 10.28 96.6813 10.3533 97.0946 10.5C97.5213 10.6333 97.8879 10.8467 98.1946 11.14C98.5146 11.4333 98.7679 11.8133 98.9546 12.28C99.1413 12.7333 99.2346 13.2733 99.2346 13.9V20H97.4346V14.4C97.4346 13.96 97.3746 13.5867 97.2546 13.28C97.1346 12.96 96.9746 12.7067 96.7746 12.52C96.5746 12.32 96.3413 12.18 96.0746 12.1C95.8213 12.0067 95.5546 11.96 95.2746 11.96C94.9013 11.96 94.5546 12.02 94.2346 12.14C93.9146 12.26 93.6346 12.4533 93.3946 12.72C93.1546 12.9733 92.9679 13.3 92.8346 13.7C92.7013 14.1 92.6346 14.5733 92.6346 15.12V20H90.8346V4.88Z" fill="#E30A13"/>
<path fill-rule="evenodd" clip-rule="evenodd" d="M118.186 11.5756C118.42 11.81 118.42 12.1899 118.186 12.4242L114.424 16.186C114.312 16.2985 114.159 16.3617 114 16.3617C113.841 16.3617 113.688 16.2985 113.576 16.186L109.814 12.4242C109.58 12.1899 109.58 11.81 109.814 11.5756C110.048 11.3413 110.428 11.3413 110.662 11.5756L114 14.9132L117.338 11.5756C117.572 11.3413 117.952 11.3413 118.186 11.5756Z" fill="#E30A13" stroke="#E30A13" stroke-width="0.8" stroke-linecap="round" stroke-linejoin="round"/>
</svg>
