<svg width="35" height="28" viewBox="0 0 35 28" fill="none" xmlns="http://www.w3.org/2000/svg">
<path fill-rule="evenodd" clip-rule="evenodd" d="M14 0H21C27.5993 0 30.8997 -2.08616e-07 32.949 2.051C34.9982 4.102 35 7.40075 35 14C35 20.5993 35 23.8997 32.949 25.949C30.898 27.9982 27.5993 28 21 28H14C7.40075 28 4.10025 28 2.051 25.949C0.00174987 23.898 0 20.5993 0 14C0 7.40075 -2.08616e-07 4.10025 2.051 2.051C4.102 0.00174987 7.40075 0 14 0ZM19.6875 8.75C19.6875 8.4019 19.8258 8.06806 20.0719 7.82192C20.3181 7.57578 20.6519 7.4375 21 7.4375H29.75C30.0981 7.4375 30.4319 7.57578 30.6781 7.82192C30.9242 8.06806 31.0625 8.4019 31.0625 8.75C31.0625 9.0981 30.9242 9.43194 30.6781 9.67808C30.4319 9.92422 30.0981 10.0625 29.75 10.0625H21C20.6519 10.0625 20.3181 9.92422 20.0719 9.67808C19.8258 9.43194 19.6875 9.0981 19.6875 8.75ZM21.4375 14C21.4375 13.6519 21.5758 13.3181 21.8219 13.0719C22.0681 12.8258 22.4019 12.6875 22.75 12.6875H29.75C30.0981 12.6875 30.4319 12.8258 30.6781 13.0719C30.9242 13.3181 31.0625 13.6519 31.0625 14C31.0625 14.3481 30.9242 14.6819 30.6781 14.9281C30.4319 15.1742 30.0981 15.3125 29.75 15.3125H22.75C22.4019 15.3125 22.0681 15.1742 21.8219 14.9281C21.5758 14.6819 21.4375 14.3481 21.4375 14ZM23.1875 19.25C23.1875 18.9019 23.3258 18.5681 23.5719 18.3219C23.8181 18.0758 24.1519 17.9375 24.5 17.9375H29.75C30.0981 17.9375 30.4319 18.0758 30.6781 18.3219C30.9242 18.5681 31.0625 18.9019 31.0625 19.25C31.0625 19.5981 30.9242 19.9319 30.6781 20.1781C30.4319 20.4242 30.0981 20.5625 29.75 20.5625H24.5C24.1519 20.5625 23.8181 20.4242 23.5719 20.1781C23.3258 19.9319 23.1875 19.5981 23.1875 19.25ZM15.75 8.75C15.75 9.67826 15.3813 10.5685 14.7249 11.2249C14.0685 11.8813 13.1783 12.25 12.25 12.25C11.3217 12.25 10.4315 11.8813 9.77513 11.2249C9.11875 10.5685 8.75 9.67826 8.75 8.75C8.75 7.82174 9.11875 6.9315 9.77513 6.27513C10.4315 5.61875 11.3217 5.25 12.25 5.25C13.1783 5.25 14.0685 5.61875 14.7249 6.27513C15.3813 6.9315 15.75 7.82174 15.75 8.75ZM12.25 22.75C19.25 22.75 19.25 21.1838 19.25 19.25C19.25 17.3162 16.1175 15.75 12.25 15.75C8.3825 15.75 5.25 17.3162 5.25 19.25C5.25 21.1838 5.25 22.75 12.25 22.75Z" fill="#757575"/>
</svg>
