<svg width="370" height="108" viewBox="0 0 370 108" fill="none" xmlns="http://www.w3.org/2000/svg">
<path d="M284.472 9.33569H284.473C285.412 9.33509 286.242 8.99132 286.938 8.31295C287.636 7.63831 287.989 6.8224 287.989 5.88705C287.988 4.95121 287.641 4.14133 286.957 3.48055C286.268 2.81869 285.43 2.483 284.468 2.483C283.504 2.48408 282.66 2.82797 281.961 3.50635C281.263 4.18086 280.91 4.99074 280.91 5.91176C280.911 6.83723 281.276 7.64928 281.996 8.32609C282.709 8.99614 283.542 9.33569 284.472 9.33569Z" fill="#E30A13"/>
<path d="M252.47 9.33569H252.471C253.406 9.33461 254.234 8.99012 254.933 8.31283C255.632 7.63831 255.986 6.82192 255.985 5.88644C255.985 4.95169 255.636 4.14181 254.95 3.48055C254.264 2.81869 253.428 2.483 252.466 2.483C251.501 2.4836 250.657 2.82737 249.957 3.50526C249.258 4.17978 248.905 4.98918 248.906 5.91127C248.906 6.8394 249.272 7.65157 249.991 8.32548C250.704 8.99566 251.538 9.33569 252.47 9.33569Z" fill="#E30A13"/>
<path d="M268.37 37.394C267.405 37.394 266.561 37.7363 265.864 38.4109C265.164 39.0865 264.809 39.8969 264.81 40.8201C264.81 41.7444 265.175 42.5566 265.894 43.2349C266.608 43.9011 267.442 44.2385 268.373 44.2385H268.374C269.315 44.2379 270.144 43.8963 270.838 43.2234C271.537 42.5466 271.89 41.7285 271.889 40.7931C271.889 39.8567 271.541 39.0485 270.855 38.3921C270.174 37.7297 269.34 37.394 268.37 37.394Z" fill="#E30A13"/>
<path d="M256.928 38.4202C256.23 39.0947 255.877 39.9041 255.878 40.8262C255.879 41.7545 256.243 42.5659 256.961 43.2383C257.672 43.9063 258.505 44.2451 259.436 44.2451H259.438C260.381 44.244 261.211 43.9024 261.906 43.2295C262.606 42.55 262.959 41.733 262.958 40.7998C262.958 39.8679 262.609 39.0596 261.922 38.3971C261.237 37.7352 260.4 37.4001 259.433 37.4001C258.465 37.4007 257.622 37.744 256.928 38.4202Z" fill="#E30A13"/>
<path d="M192.666 38.3952C191.985 37.7317 191.15 37.395 190.179 37.395C189.216 37.3955 188.373 37.7383 187.674 38.4145C186.974 39.0907 186.619 39.9006 186.62 40.821C186.62 41.7493 186.986 42.5608 187.705 43.232C188.415 43.9022 189.248 44.2422 190.181 44.2422H190.184C191.122 44.2416 191.952 43.8994 192.651 43.2238C193.349 42.5448 193.703 41.7272 193.703 40.7946C193.702 39.867 193.353 39.0594 192.666 38.3952Z" fill="#E30A13"/>
<path d="M178.741 38.4206C178.042 39.0962 177.687 39.9055 177.688 40.8271C177.689 41.7548 178.053 42.5663 178.77 43.2387C179.48 43.9089 180.313 44.2483 181.246 44.2483H181.248C182.187 44.2478 183.016 43.9061 183.716 43.2299C184.413 42.5498 184.766 41.7328 184.765 40.8007C184.764 39.8715 184.417 39.0643 183.734 38.4024C183.054 37.7373 182.217 37.4005 181.243 37.4005C180.277 37.4016 179.435 37.7455 178.741 38.4206Z" fill="#E30A13"/>
<path d="M318.211 22.4423C319.628 20.9897 321.261 20.2833 323.203 20.2821L323.211 20.0031V20.2821C325.149 20.2821 326.788 20.9881 328.22 22.4395C329.664 23.908 330.368 25.5955 330.369 27.5993C330.37 29.6037 329.684 31.2642 328.273 32.6754C326.869 34.0811 325.221 34.7656 323.227 34.7667C321.159 34.7667 319.494 34.0926 318.132 32.7056C316.756 31.3086 316.086 29.647 316.085 27.6273C316.083 25.6086 316.779 23.9124 318.211 22.4423ZM278.638 44.3444C280.456 44.2213 281.867 43.8371 282.95 43.1703C284.376 42.2916 285.717 41.3399 286.458 39.3635C286.69 38.7423 286.739 37.3167 286.777 36.1719C286.792 35.7152 286.807 35.2777 286.831 35.001L313.314 34.9587C313.674 35.417 314.005 35.7939 314.351 36.1378C316.743 38.5222 319.728 39.7306 323.237 39.7306C326.741 39.7283 329.723 38.5152 332.1 36.1256C332.443 35.7801 332.773 35.4026 333.129 34.9443L347.603 34.9351C348.904 34.9345 349.937 34.3365 350.591 33.2063C351.166 32.2187 351.444 30.7739 351.443 28.7882L351.424 2.57255L346.13 2.57581L346.149 28.008C346.15 29.2388 346.076 29.745 346.034 29.9343C345.981 29.9854 335.422 29.9618 335.422 29.9618C335.584 29.1431 335.666 28.3151 335.666 27.4963C335.663 24.1484 334.444 21.2379 332.042 18.8451C329.63 16.4512 326.665 15.238 323.219 15.238C319.75 15.2403 316.769 16.4578 314.358 18.8578C311.959 21.2544 310.743 24.1665 310.746 27.5134C310.747 28.2997 310.823 29.0935 310.974 29.8792L287.17 29.8974L287.157 12.0068L281.88 12.01L281.893 29.0908C281.894 31.5892 281.775 35.515 281.578 36.2367C281.385 36.9663 281.096 37.5891 280.717 38.0871C280.368 38.5487 279.939 38.8804 279.399 39.1033C279.12 39.2254 278.786 39.3183 278.408 39.3801L277.6 39.5093L277.603 44.4182L278.638 44.3444Z" fill="#E30A13"/>
<path d="M361.448 34.9268L361.424 2.56645L356.169 2.56983L356.193 34.9302L361.448 34.9268Z" fill="#E30A13"/>
<path d="M163.582 31.7902C164.639 32.8515 165.943 33.6532 167.46 34.1736C168.959 34.6842 171.135 34.9318 174.15 34.9318H206.713L198.822 20.5156C198.144 18.7891 198.14 17.4465 200.322 16.5112C200.612 16.3923 200.906 16.3313 201.194 16.3313C202.713 16.3313 203.888 17.9725 204.314 18.8699L210.951 29.3556C212.416 32.0136 215.157 33.7737 219.063 34.5774C219.815 34.831 220.696 34.9059 221.522 34.9488C221.743 34.9693 221.956 34.9868 222.159 35.0005L222.504 34.9989L222.503 34.9906L222.802 35.0011L233.907 34.9934L234.227 34.9543L246.512 34.9363C248.419 34.9346 249.9 34.5566 251.171 33.7467C251.596 33.4771 251.989 33.1679 252.345 32.8235C252.861 33.3736 253.45 33.854 254.101 34.2545C255.553 35.1448 257.186 35.5959 258.958 35.5959C261.484 35.5959 263.774 34.7756 265.774 33.1557V35.0506H271.07V11.8082H265.774V20.6636C265.774 23.403 265.655 25.223 265.42 26.0736C265.201 26.8824 264.789 27.6659 264.196 28.4032C263.612 29.1234 262.901 29.6978 262.084 30.1071C261.277 30.5066 260.451 30.7091 259.627 30.7091C258.777 30.7091 258.059 30.5885 257.492 30.3498C256.964 30.134 256.538 29.8061 256.19 29.3485C255.817 28.8566 255.529 28.2353 255.332 27.502C255.126 26.7399 255.017 25.1625 255.017 22.9419L255.015 11.773L250.048 11.8082L249.721 11.8312L249.73 23.4267C249.731 25.4244 249.627 26.8708 249.42 27.7264C249.249 28.4367 248.876 29.0051 248.281 29.4628C247.788 29.8413 247.277 29.858 246.167 29.8589L223.549 29.8788C222.217 29.8788 222.094 29.848 221.952 29.8122L221.856 29.7952L221.792 29.8067C221.626 29.8067 221.22 29.7864 220.724 29.7538L220.509 29.7043C217.287 29.2867 216.195 27.5943 215.232 26.1011L209.452 16.1833C207.349 12.6505 204.096 10.9664 200.454 11.5673C196.408 12.2637 194.482 14.4458 193.694 15.6843C192.786 17.1125 192.474 18.7032 192.857 19.934C193.066 20.6784 193.485 21.386 194.404 22.9364C195.232 24.3333 196.468 26.4186 198.322 29.8336L188.538 29.8407L188.25 29.8628L172.776 29.8744C170.737 29.8744 169.243 29.6488 168.332 29.2031C167.456 28.7839 166.765 28.0544 166.217 26.9738C165.648 25.8596 165.359 24.5616 165.358 23.1163C165.356 19.9874 166.545 17.8234 168.996 16.5002L169.49 16.2329L169.487 10.9234L168.169 11.4312C163.013 13.401 160.4 17.3712 160.404 23.2319C160.405 24.9496 160.672 26.5507 161.199 27.9888C161.73 29.449 162.532 30.7278 163.582 31.7902Z" fill="#E30A13"/>
<path d="M279.255 92.4102V92.226C279.255 91.7217 278.834 91.3129 278.315 91.3129H278.3C277.781 91.3129 277.359 91.7217 277.359 92.226V92.4102C277.359 92.9145 277.781 93.3232 278.3 93.3232H278.315C278.834 93.3232 279.255 92.9145 279.255 92.4102Z" fill="#E30A13"/>
<path d="M282.287 92.4102V92.226C282.287 91.7217 281.866 91.3129 281.347 91.3129C280.827 91.3129 280.406 91.7217 280.406 92.226V92.4102C280.406 92.9145 280.827 93.3232 281.347 93.3232C281.866 93.3232 282.287 92.9145 282.287 92.4102Z" fill="#E30A13"/>
<path d="M297.902 100.553H295.423C295.341 100.402 295.269 100.216 295.209 99.9998C295.128 99.7069 295.086 99.2583 295.086 98.6662C295.086 98.041 295.141 97.5556 295.249 97.2235C295.343 96.936 295.502 96.7358 295.736 96.6118C295.993 96.475 296.396 96.4056 296.931 96.4056C297.127 96.4056 297.453 96.4219 297.902 96.4544V100.553ZM281.011 100.553H279.507C278.953 100.553 278.519 100.485 278.217 100.351C277.944 100.231 277.752 100.035 277.63 99.7524C277.494 99.4382 277.425 98.9859 277.425 98.4078C277.425 97.8579 277.492 97.4217 277.624 97.1114C277.742 96.8329 277.93 96.6367 278.2 96.5119C278.496 96.3747 278.916 96.3052 279.448 96.3052C279.843 96.3052 280.368 96.3268 281.011 96.3699V100.553ZM297.02 94.6105C296.039 94.6105 295.287 94.727 294.722 94.9666C294.131 95.2178 293.694 95.6455 293.425 96.2375C293.167 96.8042 293.042 97.5657 293.042 98.5656C293.042 99.3699 293.114 100.025 293.261 100.553H292.094H291.457H288.389H287.753H284.685H284.049H283.041V94.6578L282.758 94.6267C282.406 94.588 281.841 94.5489 281.079 94.5105C280.314 94.4722 279.706 94.4526 279.27 94.4526C278.328 94.4526 277.57 94.5808 277.016 94.8337C276.431 95.1011 276.003 95.5417 275.746 96.143C275.504 96.7093 275.381 97.4762 275.381 98.4221C275.381 99.4027 275.506 100.157 275.763 100.728C276.032 101.324 276.47 101.759 277.065 102.02C277.627 102.266 278.394 102.392 279.344 102.392H284.049H284.685H287.753H288.389H291.457H292.094H299.946V94.8016L299.144 94.7129C298.512 94.6449 297.798 94.6105 297.02 94.6105Z" fill="#E30A13"/>
<path d="M297.739 92.4102V92.2115C297.739 91.7072 297.317 91.2985 296.798 91.2985H296.694C296.175 91.2985 295.754 91.7072 295.754 92.2115V92.4102C295.754 92.9145 296.175 93.3232 296.694 93.3232H296.798C297.317 93.3232 297.739 92.9145 297.739 92.4102Z" fill="#E30A13"/>
<path d="M311.827 105.33H311.842C312.361 105.33 312.782 104.921 312.782 104.417V104.247C312.782 103.743 312.361 103.334 311.842 103.334H311.827C311.308 103.334 310.886 103.743 310.886 104.247V104.417C310.886 104.921 311.308 105.33 311.827 105.33Z" fill="#E30A13"/>
<path d="M314.555 105.33H314.555C315.075 105.33 315.496 104.921 315.496 104.417V104.247C315.496 103.743 315.075 103.334 314.555 103.334H314.555C314.036 103.334 313.615 103.743 313.615 104.247V104.417C313.615 104.921 314.036 105.33 314.555 105.33Z" fill="#E30A13"/>
<path d="M342.35 100.553H336.808V99.0137C337.99 97.2066 339.203 96.2907 340.416 96.2907C341.044 96.2907 341.507 96.5045 341.832 96.9441C342.176 97.4097 342.35 98.0036 342.35 98.7091V100.553ZM359.777 100.553H359.1H358.463H354.44H353.803H352.662V91.2983H350.618V100.553H349.432H348.796H345.728H345.091H344.38V98.4793C344.38 97.4259 344.1 96.4909 343.547 95.7003C342.968 94.8723 341.989 94.4525 340.639 94.4525C339.965 94.4525 339.358 94.5677 338.834 94.7953C338.319 95.0195 337.863 95.3146 337.478 95.6722C337.269 95.8661 337.045 96.0942 336.808 96.3544V94.5961H334.779V100.553H333.312H332.675H316.496H315.86H314.289V94.5961H312.244V100.553H310.673H310.037H306.969H306.333H304.925V94.6104H302.895V102.456C302.895 103.015 302.797 103.447 302.605 103.739C302.436 103.994 302.201 104.113 301.865 104.113C301.667 104.113 301.408 104.099 301.094 104.071L300.747 104.041V105.869L301.386 105.921C301.662 105.951 301.923 105.966 302.162 105.966C303.091 105.966 303.799 105.617 304.265 104.929C304.675 104.324 304.896 103.471 304.922 102.391H306.333H306.969H310.037H310.673H315.86H316.496H332.675H333.312H345.091H345.728H348.796H349.432H353.803H354.44H358.463H359.1H361.822V91.2983H359.777V100.553Z" fill="#E30A13"/>
<path d="M173.593 69.9225L176.582 63.5468L179.545 69.9225H173.593ZM175.415 52.0175L160.487 84.8735H166.523L171.062 75.2632H182.028L186.609 84.8735H192.469L177.759 52.0175H175.415Z" fill="#E30A13"/>
<path d="M201.062 84.8735V52.012H195.743V84.8735H201.062Z" fill="#E30A13"/>
<path d="M244.552 51.9987H242.207L231.238 75.7596L220.192 51.9987H217.847L213.4 84.5225L213.351 84.8735H218.728L221.169 67.4697L230.006 84.7013L230.094 84.8735H232.386L241.19 67.6298L243.625 84.8735H249.087L244.552 51.9987Z" fill="#E30A13"/>
<path d="M267.336 70.4393C267.336 73.176 267.217 74.9927 266.983 75.8417C266.766 76.6449 266.355 77.4246 265.764 78.1597C265.183 78.8771 264.476 79.4476 263.663 79.8553C262.86 80.2532 262.038 80.4545 261.22 80.4545C260.375 80.4545 259.662 80.3345 259.097 80.0968C258.575 79.8834 258.153 79.5594 257.808 79.1065C257.438 78.6174 257.151 77.9995 256.955 77.27C256.812 76.7412 256.642 75.522 256.642 72.717V61.4615H251.323V73.4956C251.323 76.5724 251.67 78.8126 252.386 80.3444C253.113 81.9109 254.22 83.1598 255.678 84.0561C257.133 84.9485 258.773 85.4014 260.551 85.4014C263.062 85.4014 265.342 84.5925 267.336 82.9958V84.8561H272.694V61.4615H267.336V70.4393Z" fill="#E30A13"/>
<path d="M295.365 84.8735V80.0004H285.008L296.312 61.5361H277.433L277.397 66.4007H286.945L275.67 84.8735H295.365Z" fill="#E30A13"/>
<path d="M313.121 78.543C311.683 79.9339 310.018 80.6107 308.03 80.6107C306.024 80.6107 304.349 79.9064 302.909 78.4577C301.458 76.9954 300.753 75.3222 300.753 73.3425C300.753 71.3553 301.447 69.6799 302.875 68.2213C304.287 66.7738 305.967 66.0701 308.009 66.0701C310.053 66.0701 311.737 66.7513 313.154 68.1514C314.572 69.5606 315.261 71.2651 315.261 73.3623C315.261 75.4537 314.56 77.1483 313.121 78.543ZM320.378 84.8565V61.4614H315.1V63.455C313.061 61.8297 310.665 61.0067 307.968 61.0067C304.477 61.0067 301.475 62.2177 299.045 64.606C296.624 66.9916 295.396 69.8983 295.396 73.2451C295.396 76.581 296.615 79.4965 299.02 81.9096C301.436 84.3306 304.385 85.5574 307.785 85.5574C310.459 85.5574 312.917 84.6942 315.1 82.9891V84.8565H320.378Z" fill="#E30A13"/>
<path d="M323.65 84.8735H329.012V61.4616H323.65V84.8735Z" fill="#E30A13"/>
<path d="M349.184 62.3714C347.732 61.4768 346.092 61.0234 344.31 61.0234C341.8 61.0234 339.521 61.8328 337.525 63.4305V61.4614H332.164V84.8733H337.525V75.9855C337.525 73.2504 337.643 71.4337 337.876 70.5875C338.102 69.7704 338.513 68.9891 339.098 68.2646C339.679 67.5444 340.387 66.9739 341.201 66.5683C341.999 66.1727 342.821 65.9718 343.643 65.9718C344.487 65.9718 345.2 66.0896 345.76 66.3213C346.292 66.5452 346.714 66.872 347.054 67.321C347.427 67.8074 347.713 68.4231 347.905 69.1536C348.05 69.6818 348.222 70.9006 348.222 73.7099V84.8733H353.539V72.9241C353.539 69.8601 353.191 67.622 352.478 66.0808C351.752 64.5144 350.643 63.2659 349.184 62.3714Z" fill="#E30A13"/>
<path d="M356.493 84.8733H361.848L361.848 61.4614H356.493V84.8733Z" fill="#E30A13"/>
<path d="M328.861 51.917C328.168 51.2485 327.309 50.9101 326.31 50.9101C325.333 50.9101 324.486 51.2589 323.792 51.9478C323.108 52.6294 322.762 53.4427 322.762 54.3659C322.762 55.288 323.108 56.1012 323.792 56.7818C324.486 57.4706 325.341 57.8201 326.333 57.8201C327.317 57.8201 328.167 57.4811 328.861 56.812C329.552 56.1468 329.903 55.3238 329.903 54.3659C329.903 53.4124 329.553 52.5888 328.861 51.917Z" fill="#E30A13"/>
<path d="M359.15 50.9101C358.172 50.9101 357.324 51.2589 356.627 51.9483C355.943 52.6333 355.597 53.4466 355.597 54.3659C355.597 55.2842 355.943 56.0968 356.629 56.7818C357.324 57.4706 358.179 57.8201 359.17 57.8201C360.16 57.8201 361.01 57.4805 361.698 56.812C362.389 56.1457 362.739 55.3227 362.739 54.3659C362.739 53.4118 362.389 52.5893 361.699 51.9208C361.009 51.2501 360.151 50.9101 359.15 50.9101Z" fill="#E30A13"/>
<path d="M162.709 97.5005H166.786V95.4291H162.709V93.3697H167.073V91.2982H160.455V102.394H167.248V100.323H162.709V97.5005Z" fill="#E30A13"/>
<path d="M178.295 94.0207H175.629L174.241 96.3082L172.846 94.0207H170.188L172.907 97.9388L169.824 102.394H172.474L174.241 99.6349L176.008 102.394H178.651L175.576 97.9388L178.295 94.0207Z" fill="#E30A13"/>
<path d="M187.914 94.3596C187.798 94.2881 187.607 94.1855 187.348 94.0546C187.084 93.9213 186.76 93.8111 186.386 93.7274C186.013 93.6441 185.623 93.6019 185.226 93.6019C184.476 93.6019 183.756 93.799 183.085 94.1879C182.414 94.5768 181.865 95.1168 181.453 95.7932C181.039 96.4718 180.829 97.214 180.829 97.9989C180.829 98.7887 181.038 99.532 181.449 100.208C181.859 100.882 182.407 101.419 183.078 101.803C183.749 102.187 184.472 102.381 185.226 102.381C185.56 102.381 185.893 102.35 186.215 102.289C186.537 102.228 186.805 102.158 187.013 102.082C187.222 102.005 187.428 101.912 187.627 101.804C187.828 101.694 187.956 101.62 188.019 101.578C188.082 101.535 188.144 101.489 188.207 101.439L188.244 101.409V98.6177L188.061 99.0712C188.039 99.1251 188.007 99.1876 187.966 99.2574C187.926 99.3256 187.834 99.4371 187.692 99.5888C187.552 99.7392 187.39 99.8732 187.211 99.9871C187.033 100.1 186.781 100.203 186.463 100.292C186.144 100.381 185.789 100.426 185.408 100.426C184.742 100.426 184.165 100.188 183.694 99.717C183.224 99.2474 182.986 98.6695 182.986 97.9989C182.986 97.3284 183.224 96.7503 183.694 96.2806C184.165 95.81 184.742 95.5713 185.408 95.5713C185.77 95.5713 186.111 95.6177 186.42 95.7093C186.729 95.8006 186.978 95.9046 187.159 96.0181C187.34 96.1321 187.507 96.2666 187.655 96.4177C187.804 96.5691 187.903 96.6836 187.951 96.7579C188 96.8345 188.038 96.9006 188.064 96.9541L188.244 97.3296V94.5876L188.206 94.558C188.129 94.498 188.031 94.4313 187.914 94.3596Z" fill="#E30A13"/>
<path d="M199.223 95.5388C199.037 95.1874 198.803 94.8793 198.528 94.6233C198.252 94.3667 197.903 94.1599 197.489 94.0084C197.078 93.8578 196.614 93.7815 196.111 93.7815C195.366 93.7815 194.67 94.0811 194.039 94.6731V91.2984H191.89V102.379H194.039V97.8953C194.039 97.2552 194.209 96.7312 194.543 96.3381C194.879 95.943 195.294 95.751 195.811 95.751C196.369 95.751 196.795 95.939 197.112 96.326C197.429 96.7123 197.589 97.2404 197.589 97.8953V102.379H199.745V97.8663C199.745 97.4447 199.705 97.0358 199.624 96.6509C199.543 96.2633 199.408 95.8891 199.223 95.5388Z" fill="#E30A13"/>
<path d="M207.662 95.7654C208.232 95.7654 208.73 96.0036 209.14 96.4734C209.553 96.9462 209.762 97.5246 209.762 98.1929C209.762 98.8611 209.553 99.4396 209.14 99.9122C208.73 100.382 208.232 100.62 207.662 100.62C207.082 100.62 206.581 100.383 206.173 99.9158C205.762 99.4459 205.554 98.8662 205.554 98.1929C205.554 97.5197 205.762 96.9399 206.173 96.4697C206.581 96.0024 207.082 95.7654 207.662 95.7654ZM210.119 94.9728C209.873 94.677 209.565 94.417 209.199 94.1974C208.739 93.9213 208.222 93.7814 207.662 93.7814C206.898 93.7814 206.18 93.98 205.53 94.3719C204.88 94.7636 204.359 95.3046 203.981 95.9797C203.604 96.655 203.412 97.3996 203.412 98.1929C203.412 98.9861 203.604 99.7308 203.981 100.406C204.359 101.081 204.88 101.622 205.53 102.014C206.18 102.406 206.898 102.604 207.662 102.604C208.221 102.604 208.731 102.474 209.177 102.218C209.538 102.01 209.854 101.746 210.119 101.43V102.394H212.268V94.0352H210.119V94.9728Z" fill="#E30A13"/>
<path d="M223.995 95.5421C223.809 95.1933 223.576 94.8856 223.301 94.6273C223.025 94.3681 222.675 94.1599 222.261 94.0084C221.85 93.8578 221.386 93.7815 220.883 93.7815C220.138 93.7815 219.442 94.0811 218.811 94.6729V94.0064H216.662V102.379H218.811V97.8953C218.811 97.2502 218.982 96.7216 219.319 96.3234C219.657 95.9236 220.075 95.7293 220.597 95.7293C221.146 95.7293 221.567 95.9195 221.884 96.311C222.201 96.7024 222.362 97.2355 222.362 97.8953V102.379H224.517V97.8517C224.517 97.4348 224.477 97.0295 224.396 96.647C224.315 96.2617 224.18 95.8899 223.995 95.5421Z" fill="#E30A13"/>
<path d="M232.287 95.5467C232.862 95.5467 233.361 95.7849 233.769 96.2545C234.179 96.7269 234.387 97.3079 234.387 97.9814C234.387 98.6546 234.18 99.2344 233.772 99.7045C233.366 100.172 232.867 100.409 232.287 100.409C231.712 100.409 231.215 100.172 230.809 99.7045C230.401 99.2344 230.194 98.6546 230.194 97.9814C230.194 97.3079 230.401 96.7268 230.809 96.2544C231.215 95.7848 231.712 95.5467 232.287 95.5467ZM234.758 94.7427C234.486 94.4245 234.165 94.1592 233.801 93.9523C233.356 93.6983 232.846 93.5696 232.287 93.5696C231.523 93.5696 230.806 93.7684 230.155 94.1603C229.505 94.5521 228.984 95.093 228.607 95.7681C228.229 96.4434 228.038 97.188 228.038 97.9814C228.038 98.7747 228.229 99.5193 228.607 100.195C228.984 100.87 229.505 101.411 230.155 101.802C230.806 102.194 231.523 102.393 232.287 102.393C232.852 102.393 233.371 102.253 233.831 101.977C234.183 101.766 234.48 101.516 234.718 101.232C234.636 101.914 234.393 102.464 233.993 102.869C233.531 103.337 232.877 103.574 232.049 103.574C231.655 103.574 231.274 103.518 230.916 103.408C230.558 103.297 230.242 103.147 229.976 102.963C229.706 102.775 229.478 102.593 229.299 102.421C229.12 102.248 228.955 102.063 228.81 101.87L228.639 101.643V104.344L228.674 104.374C229.119 104.753 229.65 105.05 230.253 105.259C230.855 105.467 231.459 105.573 232.049 105.573C232.954 105.573 233.768 105.404 234.47 105.07C235.176 104.734 235.749 104.219 236.175 103.538C236.585 102.881 236.82 102.091 236.874 101.188H236.893V93.8092H234.758V94.7427Z" fill="#E30A13"/>
<path d="M243.533 95.9421C243.871 95.6894 244.254 95.5614 244.67 95.5614C245.081 95.5614 245.461 95.6894 245.799 95.942C246.102 96.1683 246.342 96.4665 246.514 96.8297H242.829C242.994 96.4664 243.23 96.1682 243.533 95.9421ZM247.86 95.0486C247.51 94.5909 247.056 94.2294 246.513 93.9743C245.972 93.7205 245.351 93.5919 244.67 93.5919C243.906 93.5919 243.189 93.7892 242.538 94.1785C241.888 94.568 241.367 95.1064 240.989 95.779C240.612 96.452 240.42 97.1955 240.42 97.9889C240.42 98.7821 240.612 99.5268 240.989 100.202C241.366 100.877 241.888 101.418 242.538 101.81C243.188 102.202 243.905 102.4 244.67 102.4C246.075 102.4 247.283 102.08 248.259 101.449L248.304 101.42V99.0603L248.145 99.2072C247.276 100.009 246.239 100.416 245.061 100.416C244.441 100.416 243.913 100.255 243.491 99.9378C243.106 99.6477 242.838 99.2701 242.693 98.814H248.904L248.905 98.7162C248.914 97.9789 248.829 97.2912 248.653 96.6721C248.475 96.0503 248.209 95.5042 247.86 95.0486Z" fill="#E30A13"/>
<path d="M121.047 73.0848L119.651 71.5759L104.779 55.4388L102.599 53.0713L97.9641 48.0462L75.4707 73.2405L74.2905 74.564L72.7162 72.8538L50.3052 48.3874L44.886 54.3852L42.7544 56.7351L28.7562 72.2191L27.9624 73.0848H24.2346H6.21786L20.623 57.8304L24.879 53.3217L44.3321 32.7071H46.4644H48.858H62.4878L72.7162 43.6025L74.1856 45.1554L75.4707 43.8127L86.1001 32.7071H98.7485H101.136H104.059L123.242 52.7664L127.543 57.2707L142.671 73.0848H123.883H121.047ZM113.718 81.6886H98.0782C101.701 74.7629 103.965 66.9211 104.609 58.6647L118.606 73.844C117.239 76.6131 115.604 79.244 113.718 81.6886ZM81.9592 100.27C87.7208 96.2328 92.5631 90.9743 96.2796 84.8704H111.046C103.705 92.8637 93.5447 98.4918 81.9592 100.27ZM75.4707 81.6886V76.7064L97.9875 51.4732L102.543 56.4207C102.133 65.6916 99.6107 74.3223 95.5131 81.6886H75.4707ZM75.4707 100.855V84.8704H93.6037C89.1966 91.6383 83.4006 97.1307 76.6927 100.804L75.4707 100.855ZM72.7162 81.6886H52.2007C48.1901 74.6543 45.6127 66.4611 45.0155 57.6816L50.3098 51.8218L72.7162 76.2699V81.6886ZM72.7162 100.855L71.3011 100.801C64.5703 97.1262 58.6721 91.6322 54.1697 84.8704H72.7162V100.855ZM37.0756 84.8704H51.4646C55.2746 90.9682 60.2011 96.2206 65.9797 100.248C54.4646 98.4374 44.3772 92.8286 37.0756 84.8704ZM34.4057 81.6886C32.658 79.4282 31.1243 77.0095 29.8297 74.4659L42.9961 59.9138C43.7952 67.7295 46.0991 75.1236 49.6226 81.6886H34.4057ZM34.8732 25.6246H49.6848C48.8736 27.132 48.1189 28.6846 47.438 30.2778H43.4446L25.0726 49.7454C25.9089 40.7797 29.4287 32.476 34.8732 25.6246ZM65.105 7.81335C59.738 11.7243 55.1409 16.7024 51.5381 22.4373H37.6362C44.702 15.0032 54.2481 9.7101 65.105 7.81335ZM72.7162 25.6246V40.2184L63.3743 30.2778H49.8828C50.6144 28.6758 51.4086 27.1241 52.2716 25.6246H72.7162ZM72.7162 7.05168V22.4373H54.2446C58.5226 16.0567 64.0532 10.8044 70.3523 7.17078L72.7162 7.05168ZM75.4707 25.6246L95.4293 25.6247C96.2684 27.1241 97.0437 28.6758 97.749 30.2778H85.2291L75.4707 40.475V25.6246ZM75.4707 7.05168L77.5666 7.15281C83.8491 10.7891 89.3028 16.0428 93.4963 22.4373H75.4707V7.05168ZM110.496 22.4373H96.181C92.646 16.6813 88.1145 11.6839 82.749 7.75935C93.7268 9.62416 103.37 14.9383 110.496 22.4373ZM113.264 25.6247C118.59 32.3314 122.066 40.419 123.002 49.1705L104.938 30.2778H100.186C99.5182 28.6846 98.7893 27.132 98 25.6247H113.264ZM128.988 55.434L127.543 53.9598V52.1021V50.6328C125.798 23.7683 103.005 2.88066 75.4707 2.18999H72.7162C45.4431 2.84836 22.8135 23.3239 20.6501 49.7955V54.2963L19.7063 55.434L0.744965 75.5238H25.3148C33.82 93.458 52.6036 105.736 74.0592 105.736C95.5257 105.736 114.301 93.4475 122.81 75.5238H148.196L128.988 55.434Z" fill="#E30A13"/>
</svg>
