<svg width="20" height="20" viewBox="0 0 20 20" fill="none" xmlns="http://www.w3.org/2000/svg">
<path d="M17.5 0H2.5C1.11719 0 0 1.11719 0 2.5V12.5C0 13.8828 1.11719 15 2.5 15H7.5L5.83203 20L13.332 15H17.5C18.8828 15 20 13.8828 20 12.5V2.5C20 1.11719 18.8828 0 17.5 0ZM5 9.16797C4.07812 9.16797 3.33203 8.42188 3.33203 7.5C3.33203 6.57812 4.07812 5.83203 5 5.83203C5.92188 5.83203 6.66797 6.57812 6.66797 7.5C6.66797 8.42188 5.92188 9.16797 5 9.16797ZM10 9.16797C9.07812 9.16797 8.33203 8.42188 8.33203 7.5C8.33203 6.57812 9.07812 5.83203 10 5.83203C10.9219 5.83203 11.668 6.57812 11.668 7.5C11.668 8.42188 10.9219 9.16797 10 9.16797ZM15 9.16797C14.0781 9.16797 13.332 8.42188 13.332 7.5C13.332 6.57812 14.0781 5.83203 15 5.83203C15.9219 5.83203 16.668 6.57812 16.668 7.5C16.668 8.42188 15.9219 9.16797 15 9.16797Z" fill="#FC1526"/>
</svg>
