<svg width="254" height="160" viewBox="0 0 254 160" fill="none" xmlns="http://www.w3.org/2000/svg">
<path d="M241.645 38.1787H218.595V62.2069H241.645V38.1787Z" fill="#E0E0E0"/>
<path d="M240.084 38.1787H217.034V62.2069H240.084V38.1787Z" fill="#EBEBEB"/>
<path d="M236.986 41.4092H220.133V58.9771H236.986V41.4092Z" fill="#FAFAFA"/>
<path d="M220.132 59.0932C220.144 59.1066 219.982 59.288 219.711 59.5706C219.441 59.8532 219.062 60.2365 218.638 60.6543C218.214 61.0721 217.825 61.4454 217.539 61.711C217.253 61.9765 217.07 62.1347 217.057 62.1224C217.045 62.1102 217.206 61.9291 217.477 61.6469C217.747 61.3643 218.127 60.9799 218.552 60.5614C218.978 60.1428 219.367 59.7691 219.653 59.5032C219.939 59.2373 220.122 59.0799 220.133 59.0936L220.132 59.0932Z" fill="#E0E0E0"/>
<path d="M236.986 59.0503C236.999 59.0392 237.181 59.2011 237.463 59.4714C237.746 59.7418 238.129 60.1211 238.547 60.5451C238.965 60.9692 239.338 61.3581 239.603 61.644C239.869 61.9299 240.027 62.1133 240.015 62.1255C240.003 62.1377 239.822 61.977 239.539 61.7062C239.257 61.4359 238.873 61.0555 238.454 60.6303C238.035 60.2051 237.661 59.8155 237.396 59.5296C237.13 59.2437 236.973 59.0611 236.986 59.05L236.986 59.0503Z" fill="#E0E0E0"/>
<path d="M236.94 41.4557C236.929 41.4423 237.09 41.2608 237.361 40.9783C237.632 40.6957 238.01 40.3123 238.435 39.8946C238.859 39.4768 239.247 39.1038 239.533 38.8379C239.819 38.5724 240.003 38.4142 240.015 38.4264C240.027 38.4387 239.866 38.6198 239.596 38.902C239.325 39.1846 238.945 39.5686 238.52 39.9875C238.095 40.406 237.705 40.7801 237.419 41.0457C237.133 41.3112 236.95 41.4686 236.939 41.4553L236.94 41.4557Z" fill="#E0E0E0"/>
<path d="M220.087 41.4986C220.073 41.5098 219.892 41.3479 219.609 41.0775C219.327 40.8072 218.943 40.4279 218.525 40.0038C218.108 39.5798 217.735 39.1909 217.469 38.905C217.203 38.6191 217.045 38.4357 217.057 38.4235C217.07 38.4113 217.251 38.572 217.533 38.8428C217.816 39.1131 218.2 39.4935 218.619 39.9187C219.037 40.3438 219.411 40.7335 219.677 41.0194C219.942 41.3053 220.1 41.4875 220.087 41.4986Z" fill="#E0E0E0"/>
<path d="M236.94 58.9763C236.94 58.9763 236.938 58.9467 236.937 58.8915C236.936 58.833 236.935 58.7523 236.934 58.6471C236.932 58.4286 236.93 58.1115 236.928 57.6997C236.924 56.8689 236.919 55.6586 236.913 54.1205C236.906 51.0442 236.897 46.6595 236.885 41.4088L236.941 41.464C232.035 41.4662 226.273 41.4692 220.135 41.4721H220.134L220.197 41.4088C220.194 47.8572 220.191 53.8897 220.188 58.9767L220.134 58.9222C225.172 58.9337 229.367 58.9434 232.306 58.95C233.776 58.9559 234.931 58.9608 235.723 58.9641C236.116 58.9667 236.418 58.9689 236.626 58.9704C236.726 58.9719 236.804 58.9726 236.859 58.9734C236.912 58.9745 236.94 58.9763 236.94 58.9763C236.94 58.9763 236.916 58.9785 236.865 58.9793C236.811 58.98 236.736 58.9811 236.638 58.9822C236.432 58.9837 236.133 58.9859 235.745 58.9885C234.955 58.9919 233.805 58.9967 232.34 59.0026C229.393 59.0093 225.186 59.0189 220.133 59.0304H220.079V58.976C220.076 53.889 220.073 47.8561 220.07 41.4081V41.3447H220.133H220.135C226.273 41.3477 232.035 41.3507 236.94 41.3529H236.995V41.4081C236.984 46.6732 236.974 51.0701 236.967 54.1553C236.961 55.6882 236.956 56.8945 236.953 57.7223C236.95 58.1297 236.948 58.443 236.946 58.6589C236.945 58.7615 236.944 58.8404 236.944 58.8974C236.942 58.9508 236.941 58.976 236.941 58.976L236.94 58.9763Z" fill="#E0E0E0"/>
<path d="M224.58 48.749C224.58 48.749 224.22 53.0986 228.93 53.0986C228.93 50.7775 227.015 48.9449 224.58 48.749Z" fill="#EBEBEB"/>
<path d="M233.2 48.7515C233.2 48.7515 228.85 48.3907 228.85 53.101C231.171 53.101 233.004 51.1859 233.2 48.7515Z" fill="#EBEBEB"/>
<path d="M228.721 46.3711C228.721 46.3711 225.168 49.561 228.915 53.0984C230.658 51.2514 230.511 48.3555 228.721 46.3711Z" fill="#E0E0E0"/>
<path d="M212.805 2.20215V30.1806H172.62L171.173 2.39807L212.805 2.20215Z" fill="#E0E0E0"/>
<path d="M171.172 2.39841V30.1221L211.357 30.1221V2.39841L171.172 2.39841Z" fill="white"/>
<path d="M211.548 30.3122H170.982V2.20703H211.548V30.3122ZM171.363 29.9307H211.167V2.58814H171.363V29.9307Z" fill="#E0E0E0"/>
<path d="M207.005 5.84277H175.525V26.6777H207.005V5.84277Z" fill="white"/>
<path d="M207.005 5.84209C207.005 5.84209 206.951 5.84579 206.85 5.84764C206.743 5.84875 206.595 5.85061 206.402 5.8532C206.003 5.85579 205.424 5.85949 204.673 5.86431C203.161 5.86986 200.962 5.87838 198.186 5.88875C192.634 5.89986 184.777 5.91542 175.524 5.93357L175.616 5.84246C175.618 12.2083 175.621 19.2615 175.624 26.6747V26.6773L175.524 26.5781C187.399 26.5855 198.348 26.5925 207.004 26.5981L206.925 26.6773C206.943 20.3371 206.957 15.1382 206.967 11.5183C206.975 9.70907 206.982 8.29538 206.987 7.32651C206.991 6.84763 206.994 6.48023 206.996 6.22504C206.999 5.97542 207.004 5.84283 207.004 5.84283C207.004 5.84283 207.01 5.96431 207.013 6.20838C207.015 6.46023 207.018 6.82281 207.022 7.29503C207.027 8.25983 207.033 9.66759 207.042 11.469C207.052 15.1008 207.066 20.3163 207.083 26.6773V26.7562H207.004C198.348 26.7618 187.399 26.7688 175.524 26.7762H175.425V26.677V26.6744C175.428 19.2612 175.43 12.2075 175.433 5.84209V5.75098H175.524C184.8 5.76912 192.679 5.78468 198.245 5.79579C201.013 5.80616 203.204 5.81468 204.711 5.82023C205.454 5.82505 206.027 5.82875 206.422 5.83135C206.611 5.83357 206.755 5.83542 206.86 5.83653C206.957 5.83838 207.004 5.84209 207.004 5.84209H207.005Z" fill="#E0E0E0"/>
<path d="M171.173 2.32016C171.189 2.29868 171.452 2.4709 171.864 2.76756C172.275 3.06459 172.834 3.48533 173.439 3.96902C174.043 4.45309 174.575 4.91049 174.949 5.25345C175.323 5.59641 175.542 5.82233 175.525 5.84233C175.487 5.88455 174.521 5.08752 173.314 4.12384C172.107 3.16126 171.137 2.36534 171.172 2.31979L171.173 2.32016Z" fill="#E0E0E0"/>
<path d="M211.357 2.39827C211.391 2.44124 210.444 3.24715 209.243 4.19825C208.04 5.14971 207.039 5.88563 207.005 5.84267C206.971 5.7997 207.917 4.99379 209.12 4.04269C210.321 3.0916 211.323 2.35531 211.357 2.39827Z" fill="#E0E0E0"/>
<path d="M211.325 30.1265C209.832 28.9162 208.338 27.7055 206.845 26.4951L211.325 30.1265Z" fill="white"/>
<path d="M206.845 26.4948C206.879 26.4522 207.91 27.2307 209.147 28.2333C210.385 29.2363 211.36 30.0837 211.325 30.1263C211.291 30.1689 210.26 29.3907 209.022 28.3878C207.785 27.3852 206.81 26.5378 206.844 26.4952L206.845 26.4948Z" fill="#E0E0E0"/>
<path d="M171.173 30.1217C171.139 30.0787 172.076 29.281 173.265 28.3406C174.455 27.3995 175.446 26.6717 175.48 26.7147C175.515 26.7577 174.578 27.5551 173.388 28.4962C172.199 29.4369 171.206 30.1647 171.172 30.1217H171.173Z" fill="#E0E0E0"/>
<path d="M181.917 12.3334V19.3096H201.724V12.3334H181.917Z" fill="#E0E0E0"/>
<path d="M44.2934 4.56128L31.6788 0.000976562L19.1868 4.50017C17.592 5.25868 16.1931 5.71275 16.1931 7.20828V14.6548C16.1931 19.8262 17.539 24.9506 20.3082 29.475C22.6386 33.282 26.2467 37.2023 31.8014 39.6937C36.9076 38.0238 40.7191 33.5727 43.049 29.7654C45.8182 25.241 47.1641 20.1166 47.1641 14.9452V8.24863C47.1641 6.1157 46.0419 5.07424 44.2934 4.56128Z" fill="#F5F5F5"/>
<path d="M31.8016 35.3713C27.4069 33.4003 24.5521 30.2325 22.7088 27.2203C20.5181 23.6408 19.4529 19.5864 19.4529 15.495V10.2713C19.4529 9.08801 20.1618 7.97988 21.5699 7.31804L31.6813 3.5118L31.6791 0L19.187 4.49919C17.8759 5.07585 16.1934 5.71177 16.1934 7.2073V14.6539C16.1934 19.8253 17.5393 24.9496 20.3085 29.474C22.6388 33.281 26.2469 37.2013 31.8016 39.6928V35.3713Z" fill="#EBEBEB"/>
<path d="M31.8018 39.6934C32.6866 39.3952 33.4995 39.0515 34.2799 38.6234C36.3743 37.4749 38.1606 35.8975 39.5239 34.4701C41.0491 32.8735 42.1853 31.1476 43.172 29.5357C45.9412 25.0114 47.2871 19.887 47.1645 14.573L47.1723 8.42493C47.1645 5.36349 45.6049 5.13794 44.2938 4.56128L31.6792 0.000976562L31.6814 3.51278L41.9109 7.3805C43.319 8.04197 44.0279 9.15047 44.0279 10.3338V15.5574C44.0279 19.6488 42.9631 23.7032 40.7724 27.2828C38.9287 30.295 36.1965 33.4012 31.8022 35.3723V39.6937L31.8018 39.6934Z" fill="#E0E0E0"/>
<path d="M35.0257 15.1596L35.0398 14.1544C35.0398 12.3363 33.5705 10.8574 31.7646 10.8574C29.9587 10.8574 28.4895 12.3367 28.4895 14.1496L28.4754 15.1733C27.5917 15.3051 26.9128 16.0696 26.9128 16.9962V22.9243C26.9128 23.9432 27.7332 24.7694 28.7454 24.7694H34.8583C35.8705 24.7694 36.6912 23.9435 36.6912 22.9243V16.9962C36.6912 16.034 35.9594 15.2448 35.0257 15.1596ZM32.6379 21.4484H31.0391L31.2887 20.2858C31.012 20.1128 30.8269 19.8047 30.8269 19.4525C30.8269 18.9106 31.2631 18.471 31.8017 18.471C32.3402 18.471 32.7765 18.9106 32.7765 19.4525C32.7765 19.7921 32.6054 20.091 32.345 20.2673C32.4579 20.718 32.6379 21.4484 32.6379 21.4484ZM34.3198 15.1511H29.181L29.1947 14.1544C29.1947 12.7281 30.3472 11.5678 31.7643 11.5678C33.1813 11.5678 34.3338 12.7281 34.3338 14.1496L34.3198 15.1511Z" fill="#E0E0E0"/>
<path d="M21.497 15.0881C21.4692 15.0922 21.3814 14.7004 21.3077 14.0567C21.2322 13.4137 21.1759 12.5178 21.2051 11.5286C21.2192 11.0341 21.2514 10.5634 21.2962 10.1371C21.337 9.71118 21.4144 9.31193 21.5781 9.01342C21.7385 8.71305 21.9622 8.53416 22.1307 8.45454C22.3018 8.37454 22.4085 8.37824 22.4099 8.39046C22.431 8.41824 21.9836 8.50713 21.7174 9.08416C21.5862 9.36341 21.5277 9.73415 21.4985 10.156C21.4655 10.5793 21.4392 11.0452 21.4255 11.5349C21.3966 12.5141 21.4274 13.4015 21.4629 14.0433C21.4966 14.6856 21.5296 15.0837 21.497 15.0881Z" fill="white"/>
<path d="M21.6824 18.3291C21.6213 18.3302 21.5661 18.0243 21.5587 17.6458C21.5513 17.2669 21.5946 16.9591 21.6557 16.958C21.7165 16.9569 21.772 17.2628 21.7794 17.6413C21.7868 18.0198 21.7435 18.328 21.6824 18.3291Z" fill="white"/>
<path d="M211.129 122.681C209.497 121.657 207.629 121.013 205.713 120.817C204.828 120.726 203.861 120.751 203.152 121.288C203.001 121.401 202.854 121.57 202.888 121.756C202.913 121.892 203.028 121.991 203.138 122.076C205.342 123.757 208.675 123.969 211.129 122.681Z" fill="#E0E0E0"/>
<path d="M210.99 122.527C209.764 121.57 208.53 120.607 207.492 119.45C206.453 118.292 205.609 116.918 205.299 115.394C205.205 114.932 205.176 114.404 205.472 114.037C208.26 116.215 210.451 119.031 210.99 122.527Z" fill="#E0E0E0"/>
<path d="M211.1 122.659C210.89 121.134 210.814 119.567 211.164 118.067C211.515 116.568 212.33 115.133 213.611 114.277C214.093 115.404 213.886 116.701 213.546 117.878C213.021 119.697 212.199 121.429 211.12 122.985" fill="#E0E0E0"/>
<path d="M213.833 127.558C212.174 127.759 210.729 128.634 209.49 129.756C208.251 130.878 207.37 132.389 207.006 134.02C208.633 133.92 210.014 132.772 211.015 131.485C212.017 130.199 212.71 128.786 213.81 127.583" fill="#E0E0E0"/>
<path d="M214.427 128.34C213.09 125.049 213.574 121.082 215.663 118.208C216.608 121.571 216.261 125.368 214.427 128.34Z" fill="#E0E0E0"/>
<path d="M218.038 132.641C216.533 132.547 215.001 132.906 213.694 133.658C212.387 134.411 211.307 135.555 210.632 136.904C210.54 137.087 210.459 137.32 210.582 137.485C210.689 137.627 210.896 137.641 211.073 137.629C212.533 137.535 213.827 136.656 214.894 135.656C215.961 134.656 216.891 133.501 218.071 132.637" fill="#E0E0E0"/>
<path d="M217.923 132.407C217.146 129.921 217.098 127.213 217.785 124.702C218.057 123.71 218.512 122.666 219.43 122.2C219.508 122.161 219.599 122.125 219.681 122.156C219.759 122.186 219.804 122.266 219.84 122.34C220.166 123.022 220.261 123.796 220.228 124.551C220.194 125.306 220.037 126.049 219.881 126.789C219.592 128.156 219.439 129.626 218.689 130.806C218.511 131.086 218.354 131.388 218.212 131.688C218.07 131.987 218.069 132.093 217.938 132.331" fill="#E0E0E0"/>
<path d="M227.482 133.831C226.774 131.137 227.526 127.871 229.223 125.662C229.349 125.5 229.514 125.325 229.718 125.344C230.031 125.373 230.112 125.79 230.098 126.103C229.975 128.856 229.057 131.569 227.482 133.831Z" fill="#E0E0E0"/>
<path d="M228.344 134.42C231.617 135.272 235.372 134.443 238.094 132.437C236.481 131.619 234.579 131.386 232.816 131.789C231.053 132.192 229.442 132.982 228.344 134.42Z" fill="#E0E0E0"/>
<path d="M229.071 132.626C230.904 129.637 234.418 127.687 237.92 127.509C237.517 128.933 236.346 130.04 235.026 130.709C233.705 131.378 232.231 131.669 230.778 131.951C230.213 132.061 229.437 132.181 229.071 132.626Z" fill="#E0E0E0"/>
<path d="M227.665 123.922C228.161 122.221 228.66 120.506 228.797 118.74C228.933 116.973 228.681 115.129 227.764 113.613C226.052 116.927 225.879 120.798 227.613 124.099" fill="#E0E0E0"/>
<path d="M233.429 121.008C235.432 117.369 239.517 114.462 243.651 114.055C242.056 118.025 237.707 121.093 233.429 121.008Z" fill="#E0E0E0"/>
<path d="M232.169 121.721C235.155 122.176 237.7 124.083 240.491 125.24C241.087 125.487 241.731 125.684 242.372 125.6C243.012 125.516 243.644 125.086 243.788 124.456C243.907 123.933 243.669 123.378 243.294 122.995C242.919 122.611 242.423 122.372 241.928 122.166C238.888 120.9 235.628 120.869 232.427 121.636" fill="#E0E0E0"/>
<path d="M230.441 123.816C231.117 124.009 231.348 124.359 231.884 124.815C233.7 126.362 235.878 127.481 238.194 128.057C238.435 128.117 238.751 128.14 238.871 127.923C238.975 127.732 238.843 127.502 238.708 127.333C237.738 126.119 236.354 125.289 234.898 124.746C233.441 124.204 232.18 123.55 230.442 123.69" fill="#E0E0E0"/>
<path d="M228.491 111.166C230.92 113.432 234.34 114.596 237.646 114.281C237.797 114.266 237.961 114.243 238.063 114.131C238.294 113.881 238.017 113.494 237.749 113.284C235.057 111.186 231.797 110.315 228.491 111.166Z" fill="#E0E0E0"/>
<path d="M230.803 110.319C234.013 107.913 238.415 107.186 242.228 108.434C240.789 109.852 238.793 110.615 236.784 110.824C234.775 111.033 232.763 110.81 230.804 110.319" fill="#E0E0E0"/>
<path d="M229.885 104.507C229.62 101.82 229.792 99.6993 229.605 97C229.591 96.7845 229.544 96.5249 229.342 96.4471C229.062 96.3389 228.827 96.6841 228.735 96.9708C227.935 99.4593 228.372 102.313 229.881 104.448" fill="#E0E0E0"/>
<path d="M229.691 104.804C231.512 103.677 232.879 102.207 234.142 100.478C235.021 99.2751 235.762 97.8344 235.562 96.3581C234.328 96.3333 233.155 97.0144 232.352 97.9525C231.549 98.8906 231.072 100.063 230.715 101.245C230.359 102.427 230.109 103.642 229.691 104.804" fill="#E0E0E0"/>
<path d="M234.064 103.589C238.06 102.111 241.789 99.9122 245.017 97.1304C243.708 96.6034 242.21 96.9189 240.902 97.4467C237.914 98.653 235.472 100.689 234.006 103.56" fill="#E0E0E0"/>
<path d="M230.921 106.273C232.942 106.494 234.997 106.638 237.002 106.303C238.974 105.973 240.838 105.191 242.68 104.416C242.833 104.352 242.999 104.274 243.066 104.123C243.139 103.959 243.061 103.758 242.928 103.637C242.795 103.516 242.617 103.459 242.444 103.41C240.441 102.85 238.279 103.112 236.308 103.777C234.337 104.441 232.721 105.231 230.921 106.273" fill="#E0E0E0"/>
<path d="M219.376 111.257C217.997 108.473 218.086 105.223 219.278 102.354C220.117 103.632 220.219 105.259 220.065 106.78C219.912 108.302 219.449 109.867 219.419 111.396" fill="#E0E0E0"/>
<path d="M213.864 108.479C210.42 108.413 206.975 109.881 204.636 112.41C206.355 112.68 208.126 112.236 209.689 111.473C211.253 110.709 212.642 109.638 214.02 108.575" fill="#E0E0E0"/>
<path d="M210.16 107.239C208.475 107.103 206.854 106.894 205.234 107.391C203.614 107.887 202.139 109.014 201.479 110.574C203.055 110.752 204.652 110.357 206.097 109.702C207.542 109.048 208.855 108.141 210.16 107.239Z" fill="#E0E0E0"/>
<path d="M215.645 107.296C214.13 106.302 212.573 105.291 210.808 104.88C209.044 104.468 206.999 104.772 205.768 106.103C207.196 106.941 208.93 107.04 210.586 107.039C212.243 107.037 214.273 107.019 215.835 107.571" fill="#E0E0E0"/>
<path d="M215.654 107.376C213.063 104.831 212.081 100.26 213.123 96.7812C215.16 99.876 216.072 103.694 215.654 107.376Z" fill="#E0E0E0"/>
<path d="M222.78 100.166C223.268 99.0301 223.612 97.8376 224.051 96.6809C224.489 95.5246 225.034 94.3865 225.862 93.468C226.691 92.5499 227.836 91.8662 229.072 91.8047C228.298 95.3057 225.973 98.4342 222.843 100.184" fill="#E0E0E0"/>
<path d="M221.49 101.668C220.681 100.555 219.747 99.044 218.65 98.2129C217.554 97.3822 216.126 96.8793 214.787 97.1985C216.148 99.6318 218.72 101.347 221.49 101.668Z" fill="#E0E0E0"/>
<path d="M221.748 100.259C221.218 98.9117 220.684 97.5506 220.47 96.1187C220.255 94.6873 220.386 93.1581 221.118 91.9092C222.541 94.598 222.999 97.4843 221.821 100.289" fill="#E0E0E0"/>
<path d="M222.793 91.9097C223.598 89.2441 226.039 87.2816 228.674 86.3809C229.006 86.2672 229.358 86.1727 229.705 86.2264C230.052 86.2801 230.393 86.5171 230.465 86.8608C230.561 87.3142 230.187 87.7205 229.834 88.0219C227.783 89.7764 225.37 91.1082 222.793 91.91" fill="#E0E0E0"/>
<path d="M222.822 89.7296C222.925 88.0111 223.032 86.2675 223.591 84.639C224.149 83.0105 225.227 81.4831 226.794 80.7705C227.061 82.5064 226.295 84.2331 225.371 85.7267C224.448 87.2204 223.335 88.63 222.78 90.2963" fill="#E0E0E0"/>
<path d="M222.78 90.9127C222.114 88.9701 222.045 86.5027 220.882 84.8102C220.069 83.6272 218.767 82.8213 218.066 81.5684C217.6 82.7387 217.743 84.0868 218.23 85.2487C218.716 86.4105 219.521 87.4101 220.381 88.3294C221.242 89.2486 221.979 89.9401 222.78 90.9127Z" fill="#E0E0E0"/>
<path d="M222.793 148.12C222.741 148.12 222.696 135.162 222.693 119.18C222.689 103.192 222.728 90.2363 222.78 90.2363C222.831 90.2363 222.876 103.192 222.88 119.18C222.883 135.162 222.844 148.12 222.793 148.12H222.793Z" fill="#E0E0E0"/>
<path d="M234.117 109.302C234.121 109.314 233.947 109.379 233.63 109.485C233.28 109.603 232.83 109.755 232.289 109.937C231.159 110.322 229.606 110.88 227.92 111.571C226.25 112.286 224.676 112.868 223.78 113.645C223.332 114.028 223.075 114.443 222.948 114.745C222.82 115.049 222.797 115.235 222.78 115.232C222.773 115.231 222.775 115.185 222.785 115.096C222.8 115.009 222.823 114.878 222.881 114.718C222.99 114.399 223.24 113.955 223.692 113.545C224.143 113.135 224.77 112.765 225.489 112.429C226.207 112.094 227.003 111.744 227.849 111.397C229.54 110.704 231.105 110.164 232.248 109.811C232.82 109.632 233.286 109.501 233.609 109.414C233.933 109.329 234.113 109.289 234.117 109.301V109.302Z" fill="#E0E0E0"/>
<path d="M237.829 100.185C237.834 100.189 237.786 100.239 237.693 100.33C237.582 100.434 237.445 100.563 237.277 100.721C236.89 101.072 236.365 101.549 235.724 102.132C234.384 103.325 232.566 104.944 230.557 106.732C228.54 108.527 226.798 110.243 225.59 111.534C224.985 112.18 224.509 112.714 224.184 113.087C224.032 113.26 223.908 113.402 223.808 113.516C223.721 113.613 223.673 113.662 223.668 113.658C223.663 113.654 223.701 113.597 223.779 113.492C223.857 113.388 223.971 113.233 224.128 113.04C224.436 112.652 224.898 112.103 225.492 111.445C226.679 110.127 228.412 108.391 230.433 106.593C232.457 104.802 234.299 103.193 235.637 102.033C236.294 101.469 236.833 101.007 237.229 100.667C237.406 100.52 237.551 100.4 237.668 100.303C237.77 100.221 237.825 100.181 237.829 100.186V100.185Z" fill="#E0E0E0"/>
<path d="M228.38 108.557C228.327 108.533 228.749 107.56 229.168 106.33C229.592 105.1 229.791 104.061 229.845 104.07C229.894 104.076 229.774 105.144 229.346 106.39C229.134 107.012 228.901 107.559 228.718 107.947C228.534 108.336 228.403 108.567 228.38 108.557Z" fill="#E0E0E0"/>
<path d="M222.805 116.401C222.794 116.409 222.684 116.28 222.494 116.04C222.283 115.77 222.016 115.428 221.698 115.019C221.029 114.155 220.104 112.961 219.068 111.655C218.031 110.35 217.079 109.178 216.389 108.33C216.063 107.928 215.79 107.59 215.575 107.323C215.385 107.084 215.284 106.947 215.294 106.939C215.304 106.93 215.423 107.051 215.63 107.276C215.838 107.501 216.132 107.832 216.49 108.245C217.207 109.071 218.177 110.231 219.215 111.539C220.252 112.846 221.161 114.054 221.804 114.94C222.125 115.382 222.381 115.744 222.553 115.997C222.725 116.25 222.815 116.393 222.805 116.401Z" fill="#E0E0E0"/>
<path d="M220.322 113.213C220.291 113.246 219.629 112.46 219.281 111.266C219.025 110.424 219.014 109.654 219.045 109.303L219.128 109.309C219.091 109.459 219.064 109.538 219.049 109.536C219.034 109.534 219.034 109.45 219.046 109.296L219.128 109.303C219.159 109.652 219.212 110.395 219.461 111.213C219.796 112.37 220.371 113.181 220.321 113.213H220.322Z" fill="#E0E0E0"/>
<path d="M217.116 109.181C217.092 109.207 216.879 108.939 216.389 108.759C215.904 108.571 215.174 108.53 214.373 108.599C213.571 108.658 212.855 108.801 212.342 108.927C211.829 109.054 211.516 109.153 211.507 109.127C211.498 109.105 211.796 108.961 212.307 108.799C212.816 108.639 213.542 108.472 214.359 108.412C215.169 108.342 215.937 108.404 216.439 108.636C216.947 108.861 217.132 109.177 217.115 109.181H217.116Z" fill="#E0E0E0"/>
<path d="M216.356 108.204C216.342 108.233 215.933 108.034 215.244 107.799C214.556 107.562 213.575 107.313 212.467 107.227C211.36 107.144 210.353 107.242 209.636 107.371C208.919 107.5 208.485 107.634 208.475 107.603C208.471 107.591 208.576 107.547 208.77 107.477C208.964 107.405 209.251 107.323 209.611 107.241C210.329 107.076 211.354 106.956 212.482 107.04C213.609 107.128 214.604 107.402 215.29 107.674C215.633 107.809 215.904 107.934 216.084 108.035C216.266 108.133 216.363 108.192 216.357 108.204H216.356Z" fill="#E0E0E0"/>
<path d="M222.78 104.07C222.73 104.083 222.367 102.821 221.968 101.252C221.57 99.682 221.289 98.3998 221.339 98.3868C221.389 98.3742 221.752 99.6361 222.15 101.206C222.548 102.775 222.83 104.058 222.78 104.07Z" fill="#E0E0E0"/>
<path d="M222.831 104.071C222.776 104.089 222.542 103.246 221.932 102.384C221.338 101.503 220.581 101.061 220.608 101.018C220.618 100.998 220.827 101.075 221.119 101.281C221.412 101.485 221.774 101.83 222.085 102.276C222.719 103.174 222.877 104.068 222.831 104.071Z" fill="#E0E0E0"/>
<path d="M222.793 141.212C222.773 141.215 222.734 140.901 222.588 140.351C222.444 139.8 222.172 139.02 221.723 138.107C220.827 136.277 219.198 133.957 217.128 131.634C216.102 130.462 215.107 129.356 214.262 128.298C213.416 127.241 212.721 126.233 212.213 125.342C211.704 124.452 211.372 123.688 211.179 123.149C211.083 122.879 211.014 122.668 210.976 122.522C210.935 122.376 210.916 122.3 210.922 122.298C210.939 122.293 211.033 122.595 211.247 123.123C211.46 123.65 211.808 124.4 212.328 125.275C212.846 126.151 213.547 127.143 214.397 128.189C215.245 129.237 216.242 130.336 217.269 131.51C219.344 133.84 220.97 136.189 221.842 138.049C222.28 138.977 222.536 139.773 222.659 140.333C222.719 140.614 222.76 140.832 222.774 140.983C222.793 141.132 222.799 141.211 222.793 141.212V141.212Z" fill="#E0E0E0"/>
<path d="M233.026 129.653C233.032 129.667 232.836 129.766 232.49 129.954C232.146 130.148 231.658 130.445 231.099 130.874C230.539 131.302 229.914 131.864 229.272 132.54C228.631 133.217 227.97 134.004 227.296 134.847C225.948 136.538 224.687 138.035 223.932 139.229C223.549 139.822 223.271 140.321 223.088 140.672C222.904 141.021 222.807 141.218 222.793 141.212C222.787 141.209 222.804 141.157 222.843 141.06C222.883 140.963 222.937 140.818 223.023 140.64C223.186 140.278 223.448 139.765 223.82 139.159C224.553 137.936 225.804 136.419 227.149 134.73C227.825 133.886 228.494 133.097 229.147 132.421C229.801 131.746 230.443 131.187 231.019 130.768C231.595 130.348 232.099 130.065 232.456 129.89C232.633 129.8 232.778 129.746 232.874 129.705C232.971 129.665 233.023 129.648 233.026 129.653L233.026 129.653Z" fill="#E0E0E0"/>
<path d="M233.226 133.403C233.228 133.43 232.793 133.483 232.092 133.567C231.394 133.658 230.422 133.774 229.404 134.097C228.39 134.427 227.546 134.931 226.997 135.36C226.442 135.789 226.18 136.144 226.155 136.123C226.146 136.117 226.2 136.02 226.323 135.862C226.444 135.704 226.642 135.491 226.913 135.258C227.454 134.792 228.305 134.258 229.347 133.919C230.389 133.589 231.375 133.493 232.079 133.436C232.787 133.385 233.224 133.379 233.226 133.403V133.403Z" fill="#E0E0E0"/>
<path d="M226.486 135.711C226.426 135.678 226.938 134.897 227.334 133.848C227.706 132.789 227.793 131.86 227.859 131.871C227.883 131.874 227.883 132.106 227.84 132.479C227.796 132.851 227.707 133.368 227.51 133.912C227.312 134.456 227.052 134.91 226.852 135.226C226.65 135.542 226.507 135.724 226.486 135.712V135.711Z" fill="#E0E0E0"/>
<path d="M236.34 119.586C236.342 119.592 236.279 119.625 236.158 119.682C236.018 119.746 235.842 119.826 235.626 119.925C235.392 120.025 235.109 120.152 234.79 120.32C234.47 120.485 234.096 120.655 233.707 120.889C233.51 121.001 233.303 121.119 233.089 121.24C232.874 121.364 232.662 121.51 232.437 121.652C231.981 121.928 231.524 122.269 231.037 122.616C230.083 123.34 229.08 124.197 228.114 125.187C227.158 126.186 226.335 127.218 225.644 128.196C225.314 128.695 224.989 129.163 224.728 129.628C224.594 129.859 224.455 130.076 224.339 130.294C224.225 130.513 224.114 130.723 224.009 130.924C223.789 131.321 223.631 131.7 223.477 132.026C223.32 132.351 223.203 132.638 223.111 132.874C223.02 133.093 222.946 133.272 222.887 133.415C222.834 133.538 222.803 133.602 222.797 133.6C222.791 133.597 222.81 133.53 222.852 133.403C222.902 133.256 222.965 133.073 223.043 132.848C223.125 132.607 223.233 132.314 223.382 131.984C223.527 131.653 223.677 131.267 223.891 130.864C223.993 130.66 224.101 130.447 224.212 130.225C224.326 130.003 224.462 129.783 224.594 129.549C224.85 129.078 225.173 128.603 225.502 128.097C226.19 127.107 227.016 126.063 227.979 125.056C228.953 124.059 229.967 123.199 230.934 122.477C231.428 122.131 231.891 121.792 232.353 121.52C232.582 121.38 232.798 121.236 233.015 121.115C233.233 120.996 233.443 120.882 233.644 120.772C234.039 120.545 234.419 120.382 234.745 120.225C235.07 120.065 235.359 119.947 235.597 119.857C235.819 119.772 236 119.702 236.145 119.646C236.271 119.601 236.338 119.579 236.34 119.585V119.586Z" fill="#E0E0E0"/>
<path d="M228.241 125.013C228.224 125.011 228.315 124.696 228.686 124.35C229.049 124.004 229.71 123.685 230.481 123.662C231.248 123.641 231.914 123.856 232.369 124.03C232.826 124.21 233.092 124.356 233.083 124.377C233.072 124.403 232.788 124.3 232.326 124.155C231.865 124.014 231.214 123.829 230.487 123.849C229.762 123.871 229.136 124.15 228.773 124.45C228.401 124.749 228.271 125.031 228.241 125.013Z" fill="#E0E0E0"/>
<path d="M227.031 126.262C226.979 126.234 227.436 125.564 227.54 124.605C227.66 123.647 227.369 122.89 227.426 122.874C227.446 122.866 227.549 123.042 227.636 123.357C227.725 123.671 227.783 124.128 227.726 124.627C227.667 125.125 227.505 125.556 227.346 125.841C227.188 126.127 227.049 126.275 227.031 126.262H227.031Z" fill="#E0E0E0"/>
<path d="M213.843 143.068C214.122 148.021 215.614 153.057 217.91 158.15H227.892C230.081 153.108 231.47 148.079 231.717 143.068H213.843Z" fill="#E0E0E0"/>
<path d="M230.099 151.082C230.099 151.134 226.812 151.176 222.759 151.176C218.706 151.176 215.418 151.134 215.418 151.082C215.418 151.03 218.704 150.988 222.759 150.988C226.814 150.988 230.099 151.03 230.099 151.082Z" fill="#FAFAFA"/>
<path d="M229.876 152.876C229.876 152.928 226.795 152.97 222.995 152.97C219.196 152.97 216.114 152.928 216.114 152.876C216.114 152.824 219.194 152.782 222.995 152.782C226.796 152.782 229.876 152.824 229.876 152.876Z" fill="#FAFAFA"/>
<path d="M218.071 146.32C218.123 146.32 218.164 147.35 218.164 148.62C218.164 149.889 218.123 150.919 218.071 150.919C218.019 150.919 217.977 149.89 217.977 148.62C217.977 147.35 218.019 146.32 218.071 146.32Z" fill="#FAFAFA"/>
<path d="M223.419 146.32C223.471 146.32 223.512 147.387 223.512 148.701C223.512 150.016 223.471 151.082 223.419 151.082C223.367 151.082 223.325 150.017 223.325 148.701C223.325 147.386 223.367 146.32 223.419 146.32Z" fill="#FAFAFA"/>
<path d="M228.44 146.28C228.492 146.28 228.533 147.368 228.533 148.709C228.533 150.05 228.492 151.137 228.44 151.137C228.388 151.137 228.346 150.05 228.346 148.709C228.346 147.367 228.388 146.28 228.44 146.28Z" fill="#FAFAFA"/>
<path d="M231.4 146.32C231.4 146.372 227.545 146.414 222.791 146.414C218.037 146.414 214.182 146.372 214.182 146.32C214.182 146.268 218.036 146.227 222.791 146.227C227.547 146.227 231.4 146.268 231.4 146.32Z" fill="#FAFAFA"/>
<path d="M208.781 47.5304C206.486 34.3694 199.181 21.9391 188.135 14.4275C177.089 6.91593 162.309 4.75877 149.942 9.80503C131.297 17.4128 120.726 39.1023 101.475 45.011C91.2059 48.1628 80.1813 46.2354 69.4672 45.4651C58.7534 44.6948 46.9361 45.5086 39.0164 52.7664C31.7093 59.463 29.495 70.6538 32.2606 80.1726C35.0264 89.6914 38.1653 96.6602 44.4838 104.297C52.8372 114.393 66.5958 116.736 74.8974 117.366C98.2865 120.004 121.386 120.787 144.124 119.243C160.819 119.831 180.529 113.099 188.467 105.557C194.277 100.036 199.378 93.7568 202.827 86.5222C208.577 74.4634 211.075 60.6911 208.781 47.5304Z" fill="#F5F5F5"/>
<path d="M253.063 159.904C253.063 159.957 198.544 160 131.308 160C64.0713 160 9.54102 159.957 9.54102 159.904C9.54102 159.851 64.048 159.808 131.308 159.808C198.568 159.808 253.063 159.851 253.063 159.904Z" fill="#263238"/>
<path d="M193.164 19.8467H34.6049C31.8713 19.8467 29.6558 22.0626 29.6558 24.7959V136.79C29.6558 139.523 31.8717 141.739 34.6049 141.739H95.4596C95.4596 141.739 99.3307 153.71 87.3305 159.903H144.233C144.233 159.903 130.684 155.258 134.168 141.739H193.165C195.898 141.739 198.114 139.523 198.114 136.79V24.7962C198.114 22.0626 195.898 19.8467 193.164 19.8467Z" fill="#455A64"/>
<path d="M115.205 129.961C117.362 133.043 113.986 136.419 110.903 134.263C110.801 134.192 110.708 134.099 110.638 133.997C108.487 130.915 111.858 127.544 114.939 129.696C115.041 129.767 115.134 129.859 115.205 129.961Z" fill="#263238"/>
<path d="M35.9772 21.8984H191.792C193.774 21.8984 195.384 23.5077 195.384 25.4899V121.251H32.3857V25.4899C32.3857 23.5077 33.995 21.8984 35.9772 21.8984Z" fill="#E0E0E0"/>
<path d="M164.817 141.755C164.817 141.808 142.254 141.851 114.427 141.851C86.6003 141.851 64.0325 141.808 64.0325 141.755C64.0325 141.703 86.5907 141.66 114.427 141.66C142.263 141.66 164.817 141.703 164.817 141.755Z" fill="#263238"/>
<path d="M176.206 25.1064H50.1443V118.041H176.206V25.1064Z" fill="white"/>
<path d="M176.391 118.227H49.9587V24.9219H176.391V118.227H176.391ZM50.3291 117.856H176.021V25.2922H50.3291V117.856Z" fill="#263238"/>
<path d="M85.8214 86.8873L87.105 87.5822L86.5277 88.5483L85.2322 87.7825L85.2559 89.208H84.1488L84.1607 87.7711L82.8647 88.5487L82.2993 87.5826L83.5834 86.8877L82.2993 86.1809L82.8647 85.2148L84.1607 85.992L84.1488 84.5547H85.2559L85.2322 85.992L86.5277 85.2148L87.105 86.1809L85.8214 86.8877V86.8873Z" fill="#E30A13"/>
<path d="M100.537 86.8873L101.821 87.5822L101.244 88.5483L99.948 87.7825L99.9718 89.208H98.8647L98.8765 87.7711L97.5806 88.5487L97.0151 87.5826L98.2992 86.8877L97.0151 86.1809L97.5806 85.2148L98.8765 85.992L98.8647 84.5547H99.9718L99.948 85.992L101.244 85.2148L101.821 86.1809L100.537 86.8877V86.8873Z" fill="#E30A13"/>
<path d="M114.863 86.8873L116.147 87.5822L115.57 88.5483L114.274 87.7825L114.298 89.208H113.191L113.203 87.7711L111.907 88.5487L111.342 87.5826L112.625 86.8877L111.342 86.1809L111.907 85.2148L113.203 85.992L113.191 84.5547H114.298L114.274 85.992L115.57 85.2148L116.147 86.1809L114.863 86.8877V86.8873Z" fill="#E30A13"/>
<path d="M128.74 86.8873L130.024 87.5822L129.447 88.5483L128.152 87.7825L128.175 89.208H127.068L127.08 87.7711L125.784 88.5487L125.219 87.5826L126.502 86.8877L125.219 86.1809L125.784 85.2148L127.08 85.992L127.068 84.5547H128.175L128.152 85.992L129.447 85.2148L130.024 86.1809L128.74 86.8877V86.8873Z" fill="#E30A13"/>
<path d="M142.509 86.8873L143.793 87.5822L143.216 88.5483L141.92 87.7825L141.944 89.208H140.837L140.849 87.7711L139.553 88.5487L138.988 87.5826L140.271 86.8877L138.988 86.1809L139.553 85.2148L140.849 85.992L140.837 84.5547H141.944L141.92 85.992L143.216 85.2148L143.793 86.1809L142.509 86.8877V86.8873Z" fill="#E30A13"/>
<path d="M88.1059 95.8113H81.8952C80.2988 95.8113 79 94.5124 79 92.9161V81.8952C79 80.2984 80.2988 79 81.8952 79H88.1059C89.7022 79 91.001 80.2989 91.001 81.8952V92.9161C91.001 94.5128 89.7022 95.8113 88.1059 95.8113ZM81.8952 79.2045C80.4115 79.2045 79.2049 80.4115 79.2049 81.8948V92.9157C79.2049 94.3993 80.4119 95.606 81.8952 95.606H88.1059C89.5895 95.606 90.7962 94.3993 90.7962 92.9157V81.8948C90.7962 80.4111 89.5891 79.2045 88.1059 79.2045H81.8952Z" fill="#263238"/>
<path d="M102.524 95.8113H96.3136C94.7173 95.8113 93.4185 94.5124 93.4185 92.9161V81.8952C93.4185 80.2984 94.7173 79 96.3136 79H102.524C104.121 79 105.419 80.2989 105.419 81.8952V92.9161C105.419 94.5128 104.121 95.8113 102.524 95.8113ZM96.3136 79.2045C94.83 79.2045 93.6233 80.4115 93.6233 81.8948V92.9157C93.6233 94.3993 94.8304 95.606 96.3136 95.606H102.524C104.008 95.606 105.215 94.3993 105.215 92.9157V81.8948C105.215 80.4111 104.008 79.2045 102.524 79.2045H96.3136Z" fill="#263238"/>
<path d="M116.547 95.8113H110.336C108.74 95.8113 107.441 94.5124 107.441 92.9161V81.8952C107.441 80.2984 108.74 79 110.336 79H116.547C118.143 79 119.442 80.2989 119.442 81.8952V92.9161C119.442 94.5128 118.143 95.8113 116.547 95.8113ZM110.336 79.2045C108.852 79.2045 107.646 80.4115 107.646 81.8948V92.9157C107.646 94.3993 108.853 95.606 110.336 95.606H116.547C118.03 95.606 119.237 94.3993 119.237 92.9157V81.8948C119.237 80.4111 118.03 79.2045 116.547 79.2045H110.336Z" fill="#263238"/>
<path d="M130.727 95.8113H124.516C122.919 95.8113 121.621 94.5124 121.621 92.9161V81.8952C121.621 80.2984 122.92 79 124.516 79H130.727C132.323 79 133.622 80.2989 133.622 81.8952V92.9161C133.622 94.5128 132.323 95.8113 130.727 95.8113ZM124.516 79.2045C123.032 79.2045 121.826 80.4115 121.826 81.8948V92.9157C121.826 94.3993 123.032 95.606 124.516 95.606H130.727C132.21 95.606 133.417 94.3993 133.417 92.9157V81.8948C133.417 80.4111 132.21 79.2045 130.727 79.2045H124.516Z" fill="#263238"/>
<path d="M144.497 95.8113H138.286C136.69 95.8113 135.391 94.5124 135.391 92.9161V81.8952C135.391 80.2984 136.69 79 138.286 79H144.497C146.093 79 147.392 80.2989 147.392 81.8952V92.9161C147.392 94.5128 146.093 95.8113 144.497 95.8113ZM138.286 79.2045C136.802 79.2045 135.596 80.4115 135.596 81.8948V92.9157C135.596 94.3993 136.802 95.606 138.286 95.606H144.497C145.98 95.606 147.187 94.3993 147.187 92.9157V81.8948C147.187 80.4111 145.98 79.2045 144.497 79.2045H138.286Z" fill="#263238"/>
<path d="M136.632 37.5762H136.632C136.839 37.576 137.022 37.5002 137.176 37.3505C137.33 37.2016 137.408 37.0215 137.408 36.8151C137.408 36.6086 137.331 36.4298 137.18 36.284C137.028 36.1379 136.843 36.0639 136.631 36.0639C136.418 36.0641 136.232 36.14 136.077 36.2897C135.923 36.4386 135.845 36.6173 135.845 36.8205C135.846 37.0248 135.926 37.204 136.085 37.3534C136.243 37.5012 136.426 37.5762 136.632 37.5762Z" fill="#E30A13"/>
<path d="M129.573 37.5762H129.573C129.78 37.5759 129.962 37.4999 130.117 37.3504C130.271 37.2016 130.349 37.0214 130.349 36.815C130.349 36.6087 130.272 36.4299 130.12 36.284C129.969 36.1379 129.784 36.0639 129.572 36.0639C129.359 36.064 129.173 36.1398 129.018 36.2895C128.864 36.4383 128.786 36.6169 128.786 36.8204C128.786 37.0253 128.867 37.2045 129.026 37.3532C129.183 37.5011 129.367 37.5762 129.573 37.5762Z" fill="#E30A13"/>
<path d="M133.079 43.7698C132.866 43.7698 132.68 43.8453 132.526 43.9942C132.371 44.1433 132.293 44.3221 132.293 44.5259C132.293 44.7298 132.374 44.9091 132.532 45.0588C132.69 45.2058 132.874 45.2803 133.079 45.2803H133.08C133.287 45.2801 133.47 45.2048 133.624 45.0562C133.778 44.9069 133.856 44.7263 133.856 44.5199C133.856 44.3132 133.779 44.1349 133.627 43.99C133.477 43.8438 133.293 43.7698 133.079 43.7698Z" fill="#E30A13"/>
<path d="M130.556 43.9948C130.402 44.1436 130.324 44.3223 130.324 44.5258C130.324 44.7306 130.405 44.9097 130.563 45.0581C130.72 45.2055 130.904 45.2803 131.109 45.2803H131.11C131.318 45.28 131.501 45.2046 131.655 45.0561C131.809 44.9062 131.887 44.7259 131.887 44.5199C131.887 44.3143 131.81 44.1359 131.658 43.9897C131.507 43.8436 131.322 43.7697 131.109 43.7697C130.895 43.7698 130.709 43.8455 130.556 43.9948Z" fill="#E30A13"/>
<path d="M116.365 43.9899C116.215 43.8435 116.031 43.7692 115.816 43.7692C115.604 43.7693 115.417 43.8449 115.263 43.9942C115.109 44.1434 115.03 44.3221 115.031 44.5253C115.031 44.7301 115.111 44.9092 115.27 45.0573C115.427 45.2052 115.611 45.2803 115.817 45.2803H115.817C116.024 45.2801 116.207 45.2046 116.362 45.0555C116.516 44.9057 116.594 44.7252 116.594 44.5194C116.594 44.3147 116.517 44.1365 116.365 43.9899Z" fill="#E30A13"/>
<path d="M113.291 43.9942C113.137 44.1433 113.058 44.3219 113.058 44.5253C113.059 44.73 113.139 44.9091 113.297 45.0575C113.454 45.2054 113.638 45.2803 113.844 45.2803H113.844C114.051 45.2802 114.235 45.2048 114.389 45.0555C114.543 44.9054 114.621 44.7251 114.621 44.5194C114.621 44.3144 114.544 44.1362 114.393 43.9902C114.243 43.8434 114.058 43.769 113.843 43.769C113.63 43.7693 113.444 43.8452 113.291 43.9942Z" fill="#E30A13"/>
<path d="M144.081 40.4724C144.394 40.1518 144.754 39.9959 145.183 39.9957L145.185 39.9341V39.9957C145.613 39.9957 145.974 40.1515 146.291 40.4718C146.609 40.7959 146.765 41.1683 146.765 41.6105C146.765 42.0528 146.614 42.4193 146.302 42.7307C145.992 43.041 145.628 43.192 145.188 43.1923C144.732 43.1923 144.364 43.0435 144.064 42.7374C143.76 42.4291 143.612 42.0624 143.612 41.6167C143.611 41.1712 143.765 40.7968 144.081 40.4724ZM135.345 45.306C135.747 45.2788 136.058 45.194 136.297 45.0469C136.612 44.8529 136.908 44.6429 137.071 44.2068C137.123 44.0697 137.133 43.755 137.142 43.5024C137.145 43.4016 137.149 43.3051 137.154 43.244L143 43.2346C143.079 43.3358 143.153 43.419 143.229 43.4949C143.757 44.0211 144.416 44.2878 145.19 44.2878C145.964 44.2872 146.622 44.0195 147.147 43.4922C147.223 43.4159 147.296 43.3326 147.374 43.2315L150.569 43.2294C150.856 43.2293 151.085 43.0973 151.229 42.8479C151.356 42.6299 151.417 42.3111 151.417 41.8729L151.413 36.0873L150.244 36.0881L150.248 41.7007C150.249 41.9723 150.232 42.084 150.223 42.1258C150.211 42.1371 147.88 42.1319 147.88 42.1319C147.916 41.9512 147.934 41.7685 147.934 41.5878C147.934 40.8489 147.664 40.2066 147.134 39.6785C146.602 39.1502 145.947 38.8825 145.186 38.8825C144.421 38.883 143.763 39.1517 143.23 39.6813C142.701 40.2102 142.433 40.8529 142.433 41.5916C142.433 41.7651 142.45 41.9403 142.483 42.1137L137.229 42.1177L137.226 38.1694L136.061 38.1701L136.064 41.9397C136.064 42.491 136.038 43.3574 135.994 43.5167C135.952 43.6777 135.888 43.8152 135.804 43.925C135.727 44.0269 135.632 44.1001 135.513 44.1493C135.452 44.1763 135.378 44.1968 135.294 44.2104L135.116 44.2389L135.117 45.3223L135.345 45.306Z" fill="#E30A13"/>
<path d="M153.622 43.2268L153.617 36.0852L152.457 36.0859L152.462 43.2275L153.622 43.2268Z" fill="#E30A13"/>
<path d="M109.945 42.5331C110.178 42.7674 110.466 42.9443 110.801 43.0592C111.132 43.1718 111.612 43.2265 112.278 43.2265H119.466L117.724 40.045C117.574 39.6639 117.574 39.3677 118.055 39.1612C118.119 39.135 118.184 39.1215 118.248 39.1215C118.583 39.1215 118.843 39.4837 118.937 39.6818L120.402 41.9959C120.725 42.5825 121.33 42.9709 122.192 43.1483C122.358 43.2042 122.553 43.2208 122.735 43.2302C122.784 43.2347 122.831 43.2386 122.876 43.2416L122.952 43.2413L122.952 43.2395L123.018 43.2418L125.469 43.2401L125.54 43.2314L128.252 43.2275C128.673 43.2271 129 43.1437 129.28 42.9649C129.374 42.9054 129.461 42.8372 129.54 42.7612C129.653 42.8826 129.783 42.9886 129.927 43.077C130.248 43.2735 130.608 43.373 130.999 43.373C131.557 43.373 132.062 43.192 132.504 42.8345V43.2527H133.673V38.1233H132.504V40.0776C132.504 40.6822 132.478 41.0838 132.426 41.2716C132.378 41.4501 132.287 41.623 132.156 41.7857C132.027 41.9446 131.87 42.0714 131.689 42.1617C131.511 42.2499 131.329 42.2946 131.147 42.2946C130.959 42.2946 130.801 42.268 130.676 42.2153C130.559 42.1676 130.465 42.0953 130.388 41.9943C130.306 41.8857 130.242 41.7486 130.199 41.5868C130.154 41.4186 130.129 41.0705 130.129 40.5804L130.129 38.1156L129.032 38.1233L128.96 38.1284L128.962 40.6874C128.963 41.1283 128.94 41.4475 128.894 41.6363C128.856 41.7931 128.774 41.9185 128.642 42.0195C128.534 42.1031 128.421 42.1067 128.176 42.1069L123.183 42.1113C122.889 42.1113 122.862 42.1045 122.83 42.0966L122.809 42.0929L122.795 42.0954C122.758 42.0954 122.669 42.0909 122.559 42.0837L122.512 42.0728C121.8 41.9807 121.559 41.6072 121.347 41.2776L120.071 39.0889C119.607 38.3092 118.888 37.9376 118.084 38.0702C117.191 38.2239 116.766 38.7054 116.592 38.9787C116.392 39.2939 116.323 39.645 116.407 39.9166C116.454 40.0809 116.546 40.2371 116.749 40.5792C116.932 40.8875 117.205 41.3477 117.614 42.1014L115.454 42.1029L115.39 42.1078L111.975 42.1103C111.525 42.1103 111.195 42.0606 110.993 41.9622C110.8 41.8697 110.648 41.7087 110.527 41.4702C110.401 41.2243 110.337 40.9379 110.337 40.6189C110.336 39.9284 110.599 39.4508 111.14 39.1588L111.249 39.0998L111.248 37.9281L110.958 38.0401C109.819 38.4748 109.243 39.351 109.243 40.6444C109.244 41.0235 109.303 41.3769 109.419 41.6942C109.536 42.0165 109.713 42.2987 109.945 42.5331Z" fill="#E30A13"/>
<path d="M135.476 55.912V55.8713C135.476 55.7601 135.383 55.67 135.269 55.67H135.265C135.151 55.67 135.058 55.7601 135.058 55.8713V55.912C135.058 56.0232 135.151 56.1133 135.265 56.1133H135.269C135.383 56.1133 135.476 56.0232 135.476 55.912Z" fill="#E30A13"/>
<path d="M136.151 55.912V55.8713C136.151 55.7601 136.058 55.67 135.943 55.67C135.829 55.67 135.736 55.7601 135.736 55.8713V55.912C135.736 56.0232 135.829 56.1133 135.943 56.1133C136.058 56.1133 136.151 56.0232 136.151 55.912Z" fill="#E30A13"/>
<path d="M139.601 57.7105H139.053C139.035 57.6771 139.019 57.6362 139.006 57.5884C138.988 57.5237 138.979 57.4247 138.979 57.2941C138.979 57.1561 138.991 57.049 139.015 56.9757C139.036 56.9122 139.071 56.868 139.123 56.8407C139.179 56.8105 139.268 56.7952 139.386 56.7952C139.43 56.7952 139.502 56.7988 139.601 56.8059V57.7105ZM135.872 57.7105H135.54C135.418 57.7105 135.322 57.6955 135.255 57.666C135.195 57.6394 135.153 57.5961 135.126 57.5338C135.096 57.4644 135.08 57.3646 135.08 57.237C135.08 57.1157 135.095 57.0194 135.124 56.9509C135.15 56.8895 135.192 56.8462 135.251 56.8186C135.317 56.7883 135.409 56.773 135.527 56.773C135.614 56.773 135.73 56.7778 135.872 56.7873V57.7105ZM139.406 56.399C139.189 56.399 139.023 56.4247 138.899 56.4776C138.768 56.533 138.672 56.6274 138.612 56.7581C138.556 56.8831 138.528 57.0512 138.528 57.2718C138.528 57.4493 138.544 57.594 138.576 57.7105H138.318H138.178H137.501H137.36H136.683H136.543H136.32V56.4094L136.258 56.4026C136.18 56.394 136.055 56.3854 135.887 56.3769C135.718 56.3685 135.584 56.3642 135.488 56.3642C135.28 56.3642 135.112 56.3924 134.99 56.4482C134.861 56.5073 134.767 56.6045 134.71 56.7372C134.656 56.8622 134.629 57.0314 134.629 57.2402C134.629 57.4566 134.657 57.623 134.714 57.7491C134.773 57.8806 134.869 57.9765 135.001 58.0341C135.125 58.0886 135.294 58.1162 135.504 58.1162H136.543H136.683H137.36H137.501H138.178H138.318H140.052V56.4412L139.875 56.4216C139.735 56.4066 139.578 56.399 139.406 56.399Z" fill="#E30A13"/>
<path d="M139.562 55.912V55.8682C139.562 55.757 139.469 55.6668 139.355 55.6668H139.332C139.217 55.6668 139.124 55.757 139.124 55.8682V55.912C139.124 56.0232 139.217 56.1133 139.332 56.1133H139.355C139.469 56.1133 139.562 56.0232 139.562 55.912Z" fill="#E30A13"/>
<path d="M142.67 58.7617H142.673C142.788 58.7617 142.881 58.6716 142.881 58.5604V58.5229C142.881 58.4117 142.788 58.3216 142.673 58.3216H142.67C142.555 58.3216 142.462 58.4117 142.462 58.5229V58.5604C142.462 58.6716 142.555 58.7617 142.67 58.7617Z" fill="#E30A13"/>
<path d="M143.272 58.7617H143.272C143.387 58.7617 143.48 58.6716 143.48 58.5604V58.5229C143.48 58.4117 143.387 58.3216 143.272 58.3216H143.272C143.158 58.3216 143.065 58.4117 143.065 58.5229V58.5604C143.065 58.6716 143.158 58.7617 143.272 58.7617Z" fill="#E30A13"/>
<path d="M149.415 57.7108H148.192V57.371C148.452 56.9722 148.72 56.7701 148.988 56.7701C149.127 56.7701 149.229 56.8173 149.301 56.9143C149.376 57.017 149.415 57.1481 149.415 57.3038V57.7108ZM153.262 57.7108H153.113H152.972H152.084H151.943H151.691V55.6683H151.24V57.7108H150.978H150.838H150.161H150.02H149.863V57.2531C149.863 57.0206 149.801 56.8142 149.679 56.6398C149.551 56.457 149.335 56.3644 149.037 56.3644C148.888 56.3644 148.754 56.3898 148.639 56.44C148.525 56.4895 148.424 56.5546 148.339 56.6336C148.293 56.6764 148.244 56.7267 148.192 56.7841V56.3961H147.744V57.7108H147.42H147.279H143.708H143.567H143.22V56.3961H142.769V57.7108H142.422H142.282H141.605H141.464H141.153V56.3992H140.705V58.1306C140.705 58.254 140.684 58.3493 140.641 58.4138C140.604 58.4702 140.552 58.4964 140.478 58.4964C140.434 58.4964 140.377 58.4933 140.308 58.4872L140.231 58.4804V58.884L140.372 58.8954C140.433 58.9019 140.491 58.9053 140.543 58.9053C140.748 58.9053 140.905 58.8283 141.008 58.6765C141.098 58.5429 141.147 58.3546 141.153 58.1164H141.464H141.605H142.282H142.422H143.567H143.708H147.279H147.42H150.02H150.161H150.838H150.978H151.943H152.084H152.972H153.113H153.713V55.6683H153.262V57.7108Z" fill="#E30A13"/>
<path d="M112.16 50.9505L112.82 49.5434L113.474 50.9505H112.16ZM112.562 46.999L109.267 54.25H110.599L111.601 52.1291H114.022L115.033 54.25H116.327L113.08 46.999H112.562Z" fill="#E30A13"/>
<path d="M118.216 54.251V46.9988H117.042V54.251H118.216Z" fill="#E30A13"/>
<path d="M127.825 46.9949H127.307L124.886 52.2386L122.447 46.9949H121.93L120.948 54.1725L120.937 54.25H122.124L122.663 50.4092L124.614 54.212L124.633 54.25H125.139L127.082 50.4445L127.62 54.25H128.826L127.825 46.9949Z" fill="#E30A13"/>
<path d="M132.85 51.0642C132.85 51.6682 132.823 52.0691 132.772 52.2565C132.724 52.4338 132.633 52.6058 132.503 52.768C132.375 52.9264 132.218 53.0523 132.039 53.1422C131.862 53.2301 131.68 53.2745 131.5 53.2745C131.313 53.2745 131.156 53.248 131.031 53.1956C130.916 53.1484 130.823 53.0769 130.746 52.977C130.665 52.8691 130.601 52.7327 130.558 52.5717C130.527 52.455 130.489 52.1859 130.489 51.5669V49.0829H129.315V51.7387C129.315 52.4177 129.391 52.9121 129.549 53.2502C129.71 53.5959 129.954 53.8715 130.276 54.0693C130.597 54.2663 130.959 54.3662 131.352 54.3662C131.906 54.3662 132.409 54.1877 132.85 53.8353V54.2459H134.032V49.0829H132.85V51.0642Z" fill="#E30A13"/>
<path d="M139.036 54.251V53.1755H136.75L139.245 49.1006H135.078L135.07 50.1742H137.178L134.688 54.251H139.036Z" fill="#E30A13"/>
<path d="M142.957 52.8495C142.64 53.1564 142.272 53.3058 141.833 53.3058C141.39 53.3058 141.021 53.1504 140.703 52.8306C140.382 52.5079 140.227 52.1387 140.227 51.7018C140.227 51.2632 140.38 50.8935 140.695 50.5716C141.007 50.2521 141.378 50.0968 141.828 50.0968C142.28 50.0968 142.651 50.2471 142.964 50.5561C143.277 50.8671 143.429 51.2433 143.429 51.7061C143.429 52.1677 143.275 52.5417 142.957 52.8495ZM144.559 54.2428V49.0797H143.394V49.5197C142.944 49.161 142.415 48.9794 141.82 48.9794C141.049 48.9794 140.386 49.2466 139.85 49.7737C139.315 50.3002 139.044 50.9417 139.044 51.6803C139.044 52.4165 139.313 53.0599 139.844 53.5924C140.377 54.1267 141.028 54.3975 141.779 54.3975C142.369 54.3975 142.912 54.207 143.394 53.8307V54.2428H144.559Z" fill="#E30A13"/>
<path d="M145.283 54.2461H146.466V49.0793H145.283V54.2461Z" fill="#E30A13"/>
<path d="M150.919 49.2802C150.599 49.0827 150.237 48.9827 149.843 48.9827C149.289 48.9827 148.786 49.1613 148.346 49.5139V49.0793H147.162V54.2461H148.346V52.2846C148.346 51.681 148.372 51.2801 148.423 51.0934C148.473 50.913 148.564 50.7406 148.693 50.5807C148.821 50.4218 148.977 50.2959 149.157 50.2064C149.333 50.1191 149.515 50.0747 149.696 50.0747C149.882 50.0747 150.04 50.1007 150.163 50.1518C150.281 50.2013 150.374 50.2734 150.449 50.3725C150.531 50.4798 150.595 50.6157 150.637 50.7769C150.669 50.8935 150.707 51.1624 150.707 51.7824V54.2461H151.881V51.609C151.881 50.9328 151.804 50.4389 151.646 50.0988C151.486 49.7531 151.241 49.4776 150.919 49.2802Z" fill="#E30A13"/>
<path d="M152.533 54.2461H153.715L153.715 49.0793H152.533V54.2461Z" fill="#E30A13"/>
<path d="M146.431 46.9736C146.278 46.8261 146.089 46.7514 145.868 46.7514C145.652 46.7514 145.466 46.8284 145.312 46.9804C145.161 47.1308 145.085 47.3103 145.085 47.5141C145.085 47.7176 145.161 47.897 145.312 48.0472C145.466 48.1993 145.654 48.2764 145.873 48.2764C146.09 48.2764 146.278 48.2016 146.431 48.0539C146.584 47.9071 146.661 47.7255 146.661 47.5141C146.661 47.3036 146.584 47.1219 146.431 46.9736Z" fill="#E30A13"/>
<path d="M153.12 46.7514C152.904 46.7514 152.716 46.8284 152.563 46.9805C152.412 47.1317 152.335 47.3112 152.335 47.5141C152.335 47.7167 152.412 47.8961 152.563 48.0472C152.716 48.1993 152.905 48.2764 153.124 48.2764C153.342 48.2764 153.53 48.2014 153.682 48.0539C153.835 47.9069 153.912 47.7252 153.912 47.5141C153.912 47.3035 153.835 47.122 153.682 46.9745C153.53 46.8265 153.341 46.7514 153.12 46.7514Z" fill="#E30A13"/>
<path d="M109.753 57.0314H110.653V56.5743H109.753V56.1198H110.716V55.6626H109.255V58.1113H110.755V57.6542H109.753V57.0314Z" fill="#E30A13"/>
<path d="M113.196 56.2635H112.607L112.301 56.7683L111.993 56.2635H111.406L112.006 57.1282L111.326 58.1113H111.911L112.301 57.5025L112.691 58.1113H113.274L112.595 57.1282L113.196 56.2635Z" fill="#E30A13"/>
<path d="M115.318 56.34C115.292 56.3243 115.25 56.3016 115.193 56.2727C115.134 56.2433 115.063 56.219 114.98 56.2005C114.898 56.1821 114.812 56.1728 114.724 56.1728C114.559 56.1728 114.4 56.2163 114.252 56.3021C114.103 56.388 113.982 56.5071 113.891 56.6564C113.8 56.8062 113.754 56.97 113.754 57.1432C113.754 57.3175 113.8 57.4815 113.89 57.6307C113.981 57.7795 114.102 57.8979 114.25 57.9827C114.398 58.0674 114.558 58.1104 114.724 58.1104C114.798 58.1104 114.871 58.1035 114.943 58.0899C115.014 58.0764 115.073 58.061 115.119 58.0442C115.165 58.0274 115.21 58.0067 115.254 57.9829C115.299 57.9588 115.327 57.9424 115.341 57.933C115.355 57.9236 115.368 57.9134 115.382 57.9024L115.391 57.8958V57.2798L115.35 57.3798C115.345 57.3917 115.338 57.4055 115.329 57.4209C115.32 57.436 115.3 57.4606 115.269 57.4941C115.238 57.5273 115.202 57.5568 115.162 57.582C115.123 57.6069 115.068 57.6296 114.997 57.6492C114.927 57.6689 114.849 57.6789 114.764 57.6789C114.617 57.6789 114.49 57.6262 114.386 57.5224C114.282 57.4187 114.23 57.2912 114.23 57.1432C114.23 56.9952 114.282 56.8676 114.386 56.764C114.49 56.6601 114.617 56.6074 114.764 56.6074C114.844 56.6074 114.919 56.6177 114.988 56.6379C115.056 56.658 115.111 56.681 115.151 56.7061C115.191 56.7312 115.228 56.7609 115.26 56.7942C115.293 56.8276 115.315 56.8529 115.326 56.8693C115.337 56.8862 115.345 56.9008 115.351 56.9126L115.391 56.9955V56.3904L115.382 56.3838C115.365 56.3706 115.343 56.3559 115.318 56.34Z" fill="#E30A13"/>
<path d="M117.814 56.6007C117.773 56.5231 117.721 56.4552 117.661 56.3987C117.6 56.342 117.523 56.2964 117.431 56.263C117.34 56.2297 117.238 56.2129 117.127 56.2129C116.963 56.2129 116.809 56.279 116.67 56.4096V55.6649H116.195V58.1104H116.67V57.1208C116.67 56.9795 116.707 56.8639 116.781 56.7771C116.855 56.6899 116.947 56.6475 117.061 56.6475C117.184 56.6475 117.278 56.689 117.348 56.7744C117.418 56.8597 117.453 56.9762 117.453 57.1208V58.1104H117.929V57.1144C117.929 57.0213 117.92 56.9311 117.903 56.8461C117.885 56.7606 117.855 56.678 117.814 56.6007Z" fill="#E30A13"/>
<path d="M119.677 56.6499C119.803 56.6499 119.913 56.7024 120.004 56.8061C120.095 56.9104 120.141 57.0381 120.141 57.1856C120.141 57.3331 120.095 57.4607 120.004 57.565C119.913 57.6687 119.803 57.7213 119.677 57.7213C119.549 57.7213 119.439 57.6689 119.349 57.5658C119.258 57.4621 119.212 57.3342 119.212 57.1856C119.212 57.037 119.258 56.9091 119.349 56.8053C119.439 56.7022 119.549 56.6499 119.677 56.6499ZM120.22 56.4749C120.165 56.4097 120.097 56.3523 120.017 56.3038C119.915 56.2429 119.801 56.212 119.677 56.212C119.509 56.212 119.35 56.2558 119.207 56.3423C119.063 56.4288 118.948 56.5482 118.865 56.6972C118.782 56.8462 118.739 57.0105 118.739 57.1856C118.739 57.3606 118.782 57.525 118.865 57.674C118.948 57.823 119.063 57.9424 119.207 58.0288C119.35 58.1153 119.509 58.1592 119.677 58.1592C119.801 58.1592 119.913 58.1305 120.012 58.0739C120.091 58.0281 120.161 57.9697 120.22 57.8999V58.1127H120.694V56.268H120.22V56.4749Z" fill="#E30A13"/>
<path d="M123.282 56.6014C123.241 56.5245 123.189 56.4565 123.129 56.3995C123.068 56.3423 122.991 56.2964 122.899 56.263C122.809 56.2297 122.706 56.2129 122.595 56.2129C122.431 56.2129 122.277 56.279 122.138 56.4096V56.2625H121.663V58.1104H122.138V57.1208C122.138 56.9784 122.175 56.8617 122.25 56.7739C122.324 56.6856 122.417 56.6427 122.532 56.6427C122.653 56.6427 122.746 56.6847 122.816 56.7711C122.886 56.8575 122.922 56.9752 122.922 57.1208V58.1104H123.397V57.1111C123.397 57.0191 123.388 56.9297 123.371 56.8453C123.353 56.7602 123.323 56.6782 123.282 56.6014Z" fill="#E30A13"/>
<path d="M125.113 56.6018C125.24 56.6018 125.35 56.6544 125.44 56.758C125.531 56.8623 125.576 56.9905 125.576 57.1391C125.576 57.2877 125.531 57.4156 125.441 57.5194C125.351 57.6225 125.241 57.6748 125.113 57.6748C124.986 57.6748 124.876 57.6225 124.787 57.5194C124.696 57.4156 124.651 57.2877 124.651 57.1391C124.651 56.9905 124.696 56.8622 124.787 56.758C124.876 56.6543 124.986 56.6018 125.113 56.6018ZM125.658 56.4244C125.598 56.3542 125.527 56.2956 125.447 56.2499C125.349 56.1939 125.236 56.1655 125.113 56.1655C124.944 56.1655 124.786 56.2094 124.642 56.2958C124.499 56.3823 124.384 56.5017 124.3 56.6507C124.217 56.7997 124.175 56.964 124.175 57.1391C124.175 57.3142 124.217 57.4785 124.3 57.6275C124.384 57.7765 124.499 57.8959 124.642 57.9824C124.786 58.0689 124.944 58.1127 125.113 58.1127C125.237 58.1127 125.352 58.0818 125.454 58.0208C125.531 57.9743 125.597 57.9192 125.649 57.8564C125.631 58.007 125.578 58.1283 125.489 58.2177C125.388 58.321 125.243 58.3734 125.06 58.3734C124.973 58.3734 124.889 58.361 124.81 58.3366C124.731 58.3122 124.661 58.2792 124.603 58.2385C124.543 58.197 124.493 58.1568 124.453 58.1188C124.414 58.0808 124.377 58.0399 124.345 57.9972L124.308 57.9471V58.5434L124.315 58.55C124.414 58.6335 124.531 58.6992 124.664 58.7452C124.797 58.7912 124.93 58.8145 125.06 58.8145C125.26 58.8145 125.44 58.7771 125.595 58.7035C125.751 58.6294 125.877 58.5157 125.971 58.3655C126.062 58.2205 126.114 58.0461 126.125 57.8467H126.13V56.2184H125.658V56.4244Z" fill="#E30A13"/>
<path d="M127.595 56.686C127.67 56.6303 127.754 56.602 127.846 56.602C127.937 56.602 128.02 56.6303 128.095 56.686C128.162 56.736 128.215 56.8018 128.253 56.8819H127.439C127.476 56.8018 127.528 56.7359 127.595 56.686ZM128.55 56.4889C128.473 56.3878 128.373 56.3081 128.253 56.2518C128.133 56.1958 127.996 56.1674 127.846 56.1674C127.677 56.1674 127.519 56.2109 127.375 56.2968C127.232 56.3828 127.117 56.5016 127.033 56.6501C126.95 56.7986 126.908 56.9627 126.908 57.1378C126.908 57.3128 126.95 57.4772 127.033 57.6262C127.117 57.7752 127.232 57.8946 127.375 57.981C127.519 58.0675 127.677 58.1113 127.846 58.1113C128.156 58.1113 128.423 58.0407 128.638 57.9013L128.648 57.8949V57.3742L128.613 57.4066C128.421 57.5837 128.192 57.6734 127.932 57.6734C127.795 57.6734 127.679 57.6379 127.586 57.5679C127.501 57.5038 127.441 57.4205 127.409 57.3198H128.78L128.781 57.2983C128.783 57.1355 128.764 56.9838 128.725 56.8471C128.686 56.7099 128.627 56.5894 128.55 56.4889Z" fill="#E30A13"/>
<path d="M100.557 51.6448L100.249 51.3118L96.9656 47.7505L96.4845 47.228L95.4613 46.1191L90.4958 51.6792L90.2353 51.9713L89.8878 51.5939L84.9405 46.1943L83.7442 47.518L83.2737 48.0366L80.1835 51.4538L80.0083 51.6448H79.1854H75.2082L78.3881 48.2783L79.3276 47.2833L83.6219 42.7339H84.0927H84.621H87.6298L89.8878 45.1384L90.2122 45.4811L90.4958 45.1848L92.8423 42.7339H95.6345H96.1615H96.8068L101.041 47.1608L101.991 48.1548L105.33 51.6448H101.183H100.557ZM98.9391 53.5436H95.4865C96.2861 52.0152 96.7859 50.2845 96.9281 48.4625L100.018 51.8124C99.7163 52.4235 99.3553 53.0041 98.9391 53.5436ZM91.9282 57.6444C93.2001 56.7534 94.269 55.5929 95.0894 54.2458H98.3491C96.7287 56.0098 94.4857 57.2519 91.9282 57.6444ZM90.4958 53.5436V52.4441L95.4665 46.8754L96.4721 47.9672C96.3816 50.0132 95.8248 51.9179 94.9202 53.5436H90.4958ZM90.4958 57.7734V54.2458H94.4987C93.5258 55.7394 92.2464 56.9515 90.7656 57.7621L90.4958 57.7734ZM89.8878 53.5436H85.3589C84.4736 51.9912 83.9046 50.183 83.7728 48.2455L84.9415 46.9523L89.8878 52.3478V53.5436ZM89.8878 57.7734L89.5754 57.7614C88.0896 56.9505 86.7875 55.7381 85.7936 54.2458H89.8878V57.7734ZM82.0201 54.2458H85.1965C86.0375 55.5915 87.125 56.7507 88.4007 57.6395C85.8587 57.2399 83.6319 56.0021 82.0201 54.2458ZM81.4307 53.5436C81.0448 53.0448 80.7063 52.511 80.4205 51.9496L83.327 48.7381C83.5034 50.463 84.012 52.0948 84.7898 53.5436H81.4307ZM81.5339 41.1708H84.8036C84.6245 41.5035 84.4579 41.8461 84.3076 42.1978H83.426L79.3704 46.4941C79.555 44.5154 80.332 42.6829 81.5339 41.1708ZM88.2076 37.2401C87.0228 38.1032 86.008 39.2018 85.2127 40.4674H82.1438C83.7036 38.8268 85.8109 37.6587 88.2076 37.2401ZM89.8878 41.1708V44.3915L87.8255 42.1978H84.8473C85.0088 41.8442 85.1841 41.5018 85.3746 41.1708H89.8878ZM89.8878 37.072V40.4674H85.8101C86.7545 39.0593 87.9754 37.9002 89.3659 37.0983L89.8878 37.072ZM90.4958 41.1708L94.9017 41.1708C95.087 41.5018 95.2581 41.8442 95.4138 42.1978H92.65L90.4958 44.4482V41.1708ZM90.4958 37.072L90.9585 37.0943C92.3454 37.8968 93.5493 39.0562 94.475 40.4674H90.4958V37.072ZM98.2278 40.4674H95.0677C94.2873 39.1971 93.287 38.0943 92.1025 37.2282C94.5259 37.6397 96.6547 38.8125 98.2278 40.4674ZM98.8387 41.1708C100.014 42.651 100.782 44.4358 100.988 46.3672L97.0008 42.1978H95.9518C95.8044 41.8461 95.6434 41.5035 95.4692 41.1708H98.8387ZM102.31 47.7495L101.991 47.4241V47.0142V46.6899C101.606 40.7612 96.5741 36.1515 90.4958 35.9991H89.8878C83.8672 36.1443 78.8717 40.6631 78.3941 46.5051V47.4984L78.1858 47.7495L74 52.1831H79.4238C81.3014 56.141 85.4479 58.8506 90.1843 58.8506C94.923 58.8506 99.0678 56.1387 100.946 52.1831H106.55L102.31 47.7495Z" fill="#E30A13"/>
<path d="M97.77 66.044H100.885V66.59H98.358V68.144H100.717V68.69H98.358V70.454H101.011V71H97.77V66.044ZM101.821 68.501C101.821 68.3517 101.817 68.2117 101.807 68.081C101.798 67.9503 101.793 67.8313 101.793 67.724H102.311C102.311 67.8127 102.314 67.9013 102.318 67.99C102.323 68.0787 102.325 68.1697 102.325 68.263H102.339C102.377 68.1837 102.428 68.1067 102.493 68.032C102.563 67.9573 102.645 67.892 102.738 67.836C102.832 67.7753 102.937 67.7287 103.053 67.696C103.17 67.6587 103.296 67.64 103.431 67.64C103.646 67.64 103.83 67.6727 103.984 67.738C104.143 67.8033 104.274 67.8943 104.376 68.011C104.479 68.1277 104.554 68.27 104.6 68.438C104.652 68.6013 104.677 68.781 104.677 68.977V71H104.131V69.033C104.131 68.7577 104.071 68.5407 103.949 68.382C103.828 68.2233 103.639 68.144 103.382 68.144C103.205 68.144 103.051 68.1743 102.92 68.235C102.794 68.2957 102.689 68.382 102.605 68.494C102.526 68.606 102.465 68.739 102.423 68.893C102.386 69.047 102.367 69.2173 102.367 69.404V71H101.821V68.501ZM107.503 68.186H106.537V69.824C106.537 69.9313 106.539 70.0317 106.544 70.125C106.549 70.2137 106.567 70.293 106.6 70.363C106.633 70.4283 106.682 70.482 106.747 70.524C106.812 70.5613 106.906 70.58 107.027 70.58C107.106 70.58 107.188 70.5707 107.272 70.552C107.356 70.5333 107.435 70.5053 107.51 70.468L107.531 70.965C107.438 71.007 107.333 71.0373 107.216 71.056C107.104 71.0747 106.997 71.084 106.894 71.084C106.698 71.084 106.542 71.0583 106.425 71.007C106.308 70.9557 106.217 70.8833 106.152 70.79C106.087 70.6967 106.042 70.5823 106.019 70.447C106 70.307 105.991 70.153 105.991 69.985V68.186H105.277V67.724H105.991V66.793H106.537V67.724H107.503V68.186ZM111.098 70.405C110.902 70.657 110.687 70.8343 110.454 70.937C110.221 71.035 109.95 71.084 109.642 71.084C109.385 71.084 109.154 71.0397 108.949 70.951C108.744 70.8577 108.569 70.734 108.424 70.58C108.284 70.426 108.174 70.244 108.095 70.034C108.02 69.824 107.983 69.6 107.983 69.362C107.983 69.11 108.025 68.879 108.109 68.669C108.193 68.4543 108.31 68.2723 108.459 68.123C108.608 67.969 108.786 67.85 108.991 67.766C109.196 67.682 109.42 67.64 109.663 67.64C109.892 67.64 110.102 67.6797 110.293 67.759C110.484 67.8337 110.648 67.9457 110.783 68.095C110.923 68.2397 111.03 68.4193 111.105 68.634C111.18 68.844 111.217 69.0843 111.217 69.355V69.53H108.571C108.58 69.67 108.613 69.8053 108.669 69.936C108.73 70.062 108.807 70.174 108.9 70.272C108.993 70.3653 109.103 70.44 109.229 70.496C109.355 70.552 109.493 70.58 109.642 70.58C109.88 70.58 110.081 70.538 110.244 70.454C110.407 70.37 110.554 70.2463 110.685 70.083L111.098 70.405ZM110.629 69.068C110.62 68.788 110.529 68.564 110.356 68.396C110.183 68.228 109.945 68.144 109.642 68.144C109.339 68.144 109.094 68.228 108.907 68.396C108.72 68.564 108.608 68.788 108.571 69.068H110.629ZM112.062 68.501C112.062 68.3517 112.057 68.2117 112.048 68.081C112.038 67.9503 112.034 67.8313 112.034 67.724H112.552C112.552 67.8127 112.554 67.9013 112.559 67.99C112.563 68.0787 112.566 68.1697 112.566 68.263H112.58C112.617 68.1837 112.668 68.1067 112.734 68.032C112.804 67.9573 112.885 67.892 112.979 67.836C113.072 67.7753 113.177 67.7287 113.294 67.696C113.41 67.6587 113.536 67.64 113.672 67.64C113.709 67.64 113.746 67.6423 113.784 67.647C113.821 67.6517 113.858 67.661 113.896 67.675L113.861 68.228C113.767 68.2 113.669 68.186 113.567 68.186C113.231 68.186 112.986 68.2957 112.832 68.515C112.682 68.7297 112.608 69.026 112.608 69.404V71H112.062V68.501ZM118.872 71.126C118.494 71.126 118.146 71.0607 117.829 70.93C117.516 70.7993 117.243 70.6197 117.01 70.391C116.781 70.1577 116.601 69.8823 116.471 69.565C116.345 69.243 116.282 68.8953 116.282 68.522C116.282 68.1487 116.345 67.8033 116.471 67.486C116.601 67.164 116.781 66.8887 117.01 66.66C117.243 66.4267 117.516 66.2447 117.829 66.114C118.146 65.9833 118.494 65.918 118.872 65.918C119.25 65.918 119.595 65.9833 119.908 66.114C120.225 66.2447 120.498 66.4267 120.727 66.66C120.96 66.8887 121.14 67.164 121.266 67.486C121.396 67.8033 121.462 68.1487 121.462 68.522C121.462 68.8953 121.396 69.243 121.266 69.565C121.14 69.8823 120.96 70.1577 120.727 70.391C120.498 70.6197 120.225 70.7993 119.908 70.93C119.595 71.0607 119.25 71.126 118.872 71.126ZM118.872 70.58C119.161 70.58 119.425 70.5263 119.663 70.419C119.905 70.3117 120.113 70.1647 120.286 69.978C120.458 69.7913 120.591 69.5743 120.685 69.327C120.783 69.075 120.832 68.8067 120.832 68.522C120.832 68.2373 120.783 67.9713 120.685 67.724C120.591 67.472 120.458 67.2527 120.286 67.066C120.113 66.8793 119.905 66.7323 119.663 66.625C119.425 66.5177 119.161 66.464 118.872 66.464C118.582 66.464 118.316 66.5177 118.074 66.625C117.836 66.7323 117.63 66.8793 117.458 67.066C117.285 67.2527 117.15 67.472 117.052 67.724C116.958 67.9713 116.912 68.2373 116.912 68.522C116.912 68.8067 116.958 69.075 117.052 69.327C117.15 69.5743 117.285 69.7913 117.458 69.978C117.63 70.1647 117.836 70.3117 118.074 70.419C118.316 70.5263 118.582 70.58 118.872 70.58ZM125.732 66.59H124.094V71H123.506V66.59H121.868V66.044H125.732V66.59ZM126.426 66.044H127.896C128.125 66.044 128.342 66.0673 128.547 66.114C128.757 66.156 128.942 66.2307 129.1 66.338C129.264 66.4407 129.392 66.5807 129.485 66.758C129.583 66.9307 129.632 67.1453 129.632 67.402C129.632 67.6727 129.581 67.8967 129.478 68.074C129.376 68.2513 129.243 68.3913 129.079 68.494C128.921 68.5967 128.746 68.669 128.554 68.711C128.363 68.753 128.181 68.774 128.008 68.774H127.014V71H126.426V66.044ZM127.014 68.228H128.008C128.302 68.228 128.54 68.1627 128.722 68.032C128.909 67.8967 129.002 67.689 129.002 67.409C129.002 67.129 128.909 66.9237 128.722 66.793C128.54 66.6577 128.302 66.59 128.008 66.59H127.014V68.228Z" fill="black"/>
<path d="M56.087 29.3191C56.087 29.808 55.6907 30.2047 55.2015 30.2047C54.7122 30.2047 54.3159 29.8084 54.3159 29.3191C54.3159 28.8299 54.7122 28.4336 55.2015 28.4336C55.6907 28.4336 56.087 28.8303 56.087 29.3191Z" fill="#263238"/>
<path d="M57.8421 30.2047C58.3312 30.2047 58.7276 29.8082 58.7276 29.3191C58.7276 28.8301 58.3312 28.4336 57.8421 28.4336C57.353 28.4336 56.9565 28.8301 56.9565 29.3191C56.9565 29.8082 57.353 30.2047 57.8421 30.2047Z" fill="#263238"/>
<path d="M60.3528 30.2047C60.8419 30.2047 61.2384 29.8082 61.2384 29.3191C61.2384 28.8301 60.8419 28.4336 60.3528 28.4336C59.8638 28.4336 59.4673 28.8301 59.4673 29.3191C59.4673 29.8082 59.8638 30.2047 60.3528 30.2047Z" fill="#263238"/>
<path d="M161.279 75.0963C161.279 75.1496 139.501 75.1926 112.642 75.1926C85.783 75.1926 64 75.1493 64 75.0963C64 75.0433 85.7738 75 112.642 75C139.51 75 161.279 75.0433 161.279 75.0963Z" fill="#263238"/>
<path d="M126.062 100.4H99.685C96.3812 100.4 93.7029 103.079 93.7029 106.383V106.739C93.7029 110.043 96.3812 112.721 99.685 112.721H126.062C129.366 112.721 132.045 110.043 132.045 106.739V106.383C132.045 103.079 129.366 100.4 126.062 100.4Z" fill="#E30A13"/>
<path d="M103.728 104.336C103.616 104.155 103.467 104.024 103.28 103.944C103.093 103.859 102.899 103.816 102.696 103.816C102.547 103.816 102.4 103.835 102.256 103.872C102.112 103.909 101.981 103.965 101.864 104.04C101.752 104.115 101.661 104.213 101.592 104.336C101.523 104.459 101.488 104.603 101.488 104.768C101.488 104.896 101.507 105.011 101.544 105.112C101.587 105.208 101.653 105.296 101.744 105.376C101.835 105.456 101.957 105.531 102.112 105.6C102.267 105.669 102.456 105.739 102.68 105.808C102.899 105.877 103.109 105.952 103.312 106.032C103.52 106.112 103.701 106.213 103.856 106.336C104.016 106.459 104.141 106.613 104.232 106.8C104.328 106.981 104.376 107.211 104.376 107.488C104.376 107.771 104.32 108.016 104.208 108.224C104.096 108.432 103.947 108.605 103.76 108.744C103.579 108.877 103.368 108.976 103.128 109.04C102.888 109.109 102.64 109.144 102.384 109.144C102.219 109.144 102.053 109.128 101.888 109.096C101.723 109.069 101.563 109.027 101.408 108.968C101.259 108.904 101.117 108.824 100.984 108.728C100.851 108.627 100.736 108.504 100.64 108.36L101.216 107.888C101.339 108.096 101.509 108.253 101.728 108.36C101.947 108.467 102.179 108.52 102.424 108.52C102.568 108.52 102.712 108.499 102.856 108.456C103.005 108.413 103.139 108.352 103.256 108.272C103.373 108.187 103.469 108.083 103.544 107.96C103.619 107.837 103.656 107.696 103.656 107.536C103.656 107.36 103.627 107.219 103.568 107.112C103.509 107 103.419 106.904 103.296 106.824C103.173 106.744 103.019 106.672 102.832 106.608C102.645 106.544 102.427 106.469 102.176 106.384C101.973 106.32 101.787 106.248 101.616 106.168C101.445 106.083 101.296 105.981 101.168 105.864C101.045 105.741 100.947 105.597 100.872 105.432C100.803 105.261 100.768 105.059 100.768 104.824C100.768 104.552 100.821 104.315 100.928 104.112C101.035 103.909 101.179 103.741 101.36 103.608C101.541 103.469 101.747 103.365 101.976 103.296C102.205 103.227 102.445 103.192 102.696 103.192C103.016 103.192 103.307 103.243 103.568 103.344C103.835 103.44 104.072 103.611 104.28 103.856L103.728 104.336ZM108.637 108.112C108.637 108.283 108.643 108.443 108.653 108.592C108.664 108.741 108.669 108.877 108.669 109H108.077C108.077 108.899 108.075 108.797 108.069 108.696C108.064 108.595 108.061 108.491 108.061 108.384H108.045C108.003 108.475 107.941 108.563 107.861 108.648C107.787 108.733 107.696 108.811 107.589 108.88C107.483 108.944 107.363 108.995 107.229 109.032C107.096 109.075 106.952 109.096 106.797 109.096C106.552 109.096 106.339 109.059 106.157 108.984C105.981 108.909 105.835 108.805 105.717 108.672C105.6 108.539 105.512 108.379 105.453 108.192C105.4 108 105.373 107.792 105.373 107.568V105.256H105.997V107.504C105.997 107.819 106.067 108.067 106.205 108.248C106.344 108.429 106.56 108.52 106.853 108.52C107.056 108.52 107.229 108.485 107.373 108.416C107.523 108.347 107.643 108.248 107.733 108.12C107.829 107.992 107.899 107.84 107.941 107.664C107.989 107.488 108.013 107.293 108.013 107.08V105.256H108.637V108.112ZM109.787 102.952H110.411V105.8H110.427C110.597 105.597 110.795 105.44 111.019 105.328C111.248 105.216 111.499 105.16 111.771 105.16C112.064 105.16 112.331 105.211 112.571 105.312C112.816 105.408 113.024 105.544 113.195 105.72C113.365 105.896 113.499 106.104 113.595 106.344C113.691 106.584 113.739 106.845 113.739 107.128C113.739 107.411 113.691 107.672 113.595 107.912C113.499 108.152 113.365 108.36 113.195 108.536C113.029 108.712 112.832 108.851 112.603 108.952C112.373 109.048 112.128 109.096 111.867 109.096C111.531 109.096 111.235 109.024 110.979 108.88C110.728 108.731 110.544 108.549 110.427 108.336H110.411V109H109.787V102.952ZM110.411 107.128C110.411 107.325 110.44 107.509 110.499 107.68C110.563 107.845 110.653 107.992 110.771 108.12C110.888 108.243 111.027 108.341 111.187 108.416C111.352 108.485 111.536 108.52 111.739 108.52C111.941 108.52 112.123 108.485 112.283 108.416C112.448 108.341 112.589 108.243 112.707 108.12C112.824 107.992 112.912 107.845 112.971 107.68C113.035 107.509 113.067 107.325 113.067 107.128C113.067 106.931 113.035 106.749 112.971 106.584C112.912 106.413 112.824 106.267 112.707 106.144C112.589 106.016 112.448 105.917 112.283 105.848C112.123 105.773 111.941 105.736 111.739 105.736C111.536 105.736 111.352 105.773 111.187 105.848C111.027 105.917 110.888 106.016 110.771 106.144C110.653 106.267 110.563 106.413 110.499 106.584C110.44 106.749 110.411 106.931 110.411 107.128ZM114.709 106.144C114.709 105.973 114.704 105.813 114.693 105.664C114.683 105.515 114.677 105.379 114.677 105.256H115.269C115.269 105.357 115.272 105.459 115.277 105.56C115.283 105.661 115.285 105.765 115.285 105.872H115.301C115.344 105.781 115.403 105.693 115.477 105.608C115.557 105.523 115.651 105.448 115.757 105.384C115.864 105.315 115.984 105.261 116.117 105.224C116.251 105.181 116.395 105.16 116.549 105.16C116.752 105.16 116.92 105.187 117.053 105.24C117.192 105.288 117.307 105.349 117.397 105.424C117.488 105.493 117.557 105.571 117.605 105.656C117.659 105.736 117.701 105.808 117.733 105.872C117.872 105.648 118.032 105.475 118.213 105.352C118.395 105.224 118.629 105.16 118.917 105.16C119.184 105.16 119.408 105.197 119.589 105.272C119.771 105.341 119.917 105.445 120.029 105.584C120.141 105.717 120.221 105.883 120.269 106.08C120.317 106.272 120.341 106.488 120.341 106.728V109H119.717V106.76C119.717 106.632 119.704 106.507 119.677 106.384C119.651 106.261 119.603 106.152 119.533 106.056C119.464 105.96 119.371 105.883 119.253 105.824C119.136 105.765 118.987 105.736 118.805 105.736C118.672 105.736 118.547 105.763 118.429 105.816C118.312 105.869 118.208 105.944 118.117 106.04C118.032 106.136 117.963 106.253 117.909 106.392C117.861 106.525 117.837 106.675 117.837 106.84V109H117.213V106.88C117.213 106.464 117.157 106.171 117.045 106C116.933 105.824 116.749 105.736 116.493 105.736C116.291 105.736 116.115 105.771 115.965 105.84C115.821 105.909 115.701 106.008 115.605 106.136C115.515 106.264 115.445 106.416 115.397 106.592C115.355 106.768 115.333 106.963 115.333 107.176V109H114.709V106.144ZM121.578 105.256H122.202V109H121.578V105.256ZM121.434 103.792C121.434 103.669 121.476 103.563 121.562 103.472C121.652 103.381 121.762 103.336 121.89 103.336C122.018 103.336 122.124 103.381 122.21 103.472C122.3 103.563 122.346 103.669 122.346 103.792C122.346 103.925 122.303 104.035 122.218 104.12C122.132 104.205 122.023 104.248 121.89 104.248C121.756 104.248 121.647 104.205 121.562 104.12C121.476 104.035 121.434 103.925 121.434 103.792ZM125.492 105.784H124.388V107.656C124.388 107.779 124.39 107.893 124.396 108C124.401 108.101 124.422 108.192 124.46 108.272C124.497 108.347 124.553 108.408 124.628 108.456C124.702 108.499 124.809 108.52 124.948 108.52C125.038 108.52 125.132 108.509 125.228 108.488C125.324 108.467 125.414 108.435 125.5 108.392L125.524 108.96C125.417 109.008 125.297 109.043 125.164 109.064C125.036 109.085 124.913 109.096 124.796 109.096C124.572 109.096 124.393 109.067 124.26 109.008C124.126 108.949 124.022 108.867 123.948 108.76C123.873 108.653 123.822 108.523 123.796 108.368C123.774 108.208 123.764 108.032 123.764 107.84V105.784H122.948V105.256H123.764V104.192H124.388V105.256H125.492V105.784Z" fill="white"/>
<path d="M40.3788 136.604H12.7515V140.4H40.3788V136.604Z" fill="#263238"/>
<path d="M40.4262 140.447H12.7043V136.557H40.4262V140.447ZM12.7992 140.353H40.3317V136.651H12.7992V140.353Z" fill="#263238"/>
<path d="M15.313 139.137L19.2896 158.755H34.0038L37.8478 140.4L15.313 139.137Z" fill="#263238"/>
<path d="M15.313 156.899L17.4341 159.816H35.3186L37.8478 156.899H15.313Z" fill="#455A64"/>
<path d="M25.5278 139.709C25.4734 139.709 25.4038 130.62 25.3723 119.411C25.3408 108.198 25.3593 99.1113 25.4138 99.1113C25.4678 99.1113 25.5378 108.198 25.5693 119.411C25.6008 130.62 25.5819 139.709 25.5278 139.709Z" fill="#263238"/>
<path d="M31.682 116.964C31.688 116.967 31.6624 117.04 31.608 117.176C31.5432 117.33 31.4617 117.525 31.3613 117.764C31.3061 117.894 31.2461 118.035 31.1813 118.188C31.1243 118.348 31.0628 118.52 30.9972 118.704C30.9302 118.889 30.8595 119.087 30.7843 119.295C30.7106 119.505 30.6524 119.734 30.5798 119.97C30.278 120.912 30.0384 122.067 29.8073 123.353C29.6061 124.645 29.4554 126.075 29.3795 127.583C29.245 130.601 29.4158 133.338 29.598 135.31C29.6869 136.296 29.7761 137.093 29.8421 137.643C29.8706 137.901 29.8935 138.111 29.9117 138.278C29.9254 138.424 29.9295 138.5 29.9228 138.501C29.9161 138.503 29.8991 138.427 29.8724 138.284C29.8447 138.118 29.8095 137.91 29.7661 137.654C29.6773 137.106 29.5665 136.31 29.4595 135.323C29.2413 133.351 29.048 130.606 29.1828 127.573C29.2591 126.058 29.4161 124.62 29.6284 123.322C29.8706 122.031 30.1261 120.871 30.4469 119.929C30.5239 119.692 30.5869 119.464 30.6658 119.254C30.7461 119.047 30.8224 118.849 30.8943 118.664C30.9654 118.482 31.0324 118.311 31.0943 118.152C31.1624 117.997 31.232 117.859 31.2913 117.733C31.4057 117.499 31.4987 117.309 31.5724 117.158C31.6383 117.028 31.6761 116.961 31.6824 116.964L31.682 116.964Z" fill="#263238"/>
<path d="M30.9758 109.614C30.9821 109.617 30.9517 109.72 30.888 109.914C30.8165 110.124 30.7206 110.405 30.6002 110.759C30.5362 110.944 30.4658 111.147 30.3891 111.368C30.3206 111.595 30.2462 111.84 30.1669 112.102C30.0054 112.628 29.818 113.226 29.6517 113.898C29.5632 114.233 29.471 114.584 29.3747 114.949C29.2917 115.318 29.2051 115.701 29.1158 116.098C28.9228 116.889 28.7836 117.749 28.6054 118.646C28.301 120.451 28.0329 122.447 27.8477 124.552C27.6732 126.658 27.5973 128.671 27.5703 130.503C27.5647 132.334 27.588 133.984 27.6632 135.368C27.6877 136.061 27.7321 136.686 27.7677 137.235C27.7992 137.785 27.834 138.258 27.8688 138.643C27.8973 139.016 27.9195 139.312 27.9366 139.534C27.9499 139.738 27.9536 139.845 27.9469 139.846C27.9403 139.846 27.9232 139.74 27.8973 139.538C27.8714 139.317 27.8366 139.022 27.7929 138.651C27.7462 138.265 27.7003 137.793 27.658 137.243C27.6118 136.694 27.5577 136.069 27.5243 135.376C27.4314 133.991 27.3936 132.338 27.3892 130.502C27.4058 128.667 27.4766 126.648 27.6518 124.536C27.8373 122.425 28.1117 120.424 28.4269 118.615C28.6103 117.716 28.7562 116.855 28.9565 116.063C29.0499 115.666 29.1402 115.282 29.2273 114.913C29.328 114.548 29.4251 114.198 29.5176 113.862C29.6932 113.191 29.8902 112.594 30.0625 112.07C30.1476 111.809 30.2273 111.565 30.3006 111.339C30.3832 111.119 30.4595 110.918 30.5284 110.734C30.6632 110.386 30.771 110.108 30.851 109.901C30.9269 109.711 30.9695 109.612 30.9758 109.615V109.614Z" fill="#263238"/>
<path d="M23.7806 141.317C23.7773 141.317 23.7721 141.281 23.7651 141.211C23.7584 141.13 23.7495 141.027 23.7392 140.898C23.7195 140.609 23.6925 140.206 23.6581 139.695C23.5918 138.634 23.4973 137.126 23.381 135.268C23.141 131.53 22.7944 126.367 22.1655 120.689C21.844 117.85 21.4714 115.154 21.084 112.709C20.8781 111.489 20.6914 110.328 20.4792 109.248C20.2848 108.164 20.0755 107.161 19.8826 106.245C19.7011 105.326 19.4985 104.504 19.3359 103.779C19.1759 103.052 19.0211 102.431 18.8915 101.924C18.7696 101.426 18.6737 101.035 18.6044 100.753C18.5759 100.627 18.5529 100.526 18.5344 100.447C18.5196 100.378 18.5137 100.342 18.517 100.341C18.5203 100.34 18.5329 100.374 18.5537 100.442C18.5766 100.52 18.6059 100.619 18.6422 100.743C18.72 101.022 18.8278 101.411 18.9652 101.905C19.1059 102.41 19.2718 103.029 19.4422 103.754C19.6155 104.477 19.8274 105.299 20.0181 106.216C20.2196 107.131 20.4374 108.134 20.6388 109.218C20.8581 110.298 21.0511 111.46 21.2622 112.68C21.6599 115.126 22.0384 117.825 22.3603 120.667C22.9899 126.351 23.3147 131.519 23.5192 135.26C23.6206 137.13 23.6914 138.644 23.7336 139.691C23.7525 140.203 23.7673 140.607 23.778 140.897C23.7806 141.025 23.7829 141.128 23.7847 141.21C23.7851 141.281 23.784 141.317 23.7806 141.317Z" fill="#263238"/>
<path d="M25.3027 103.48C25.1827 102.193 23.8812 101.222 22.5883 101.208C21.2953 101.195 20.0898 101.97 19.2991 102.993C18.5084 104.017 18.0721 105.266 17.7154 106.509C16.8447 109.542 16.3684 112.729 16.741 115.864C17.1132 118.998 18.385 122.083 20.6339 124.297C20.9994 124.657 21.4731 125.017 21.975 124.91C22.2494 124.852 22.4742 124.662 22.6824 124.473C27.1001 120.483 29.6512 114.505 29.4763 108.554C29.4415 107.363 29.2849 106.123 28.6249 105.13C27.9649 104.137 26.4264 103.082 25.3031 103.481" fill="#E30A13"/>
<path d="M15.6465 93.1676C15.0395 94.2672 14.4321 95.3665 13.825 96.4661C13.7824 96.5431 13.7265 96.629 13.6387 96.6364C13.5432 96.6442 13.4713 96.5539 13.4191 96.4735C11.814 94.0102 10.2092 91.5469 8.604 89.0836L9.71362 88.4551L15.6465 93.168V93.1676Z" fill="#E30A13"/>
<g opacity="0.2">
<path d="M15.6465 93.1676C15.0395 94.2672 14.4321 95.3665 13.825 96.4661C13.7824 96.5431 13.7265 96.629 13.6387 96.6364C13.5432 96.6442 13.4713 96.5539 13.4191 96.4735C11.814 94.0102 10.2092 91.5469 8.604 89.0836L9.71362 88.4551L15.6465 93.168V93.1676Z" fill="black"/>
</g>
<path d="M25.4137 99.1111C19.9386 95.8804 14.4635 92.6494 8.98835 89.4187C8.82094 89.3198 8.63909 89.2031 8.58835 89.0154C8.5228 88.7724 8.70539 88.538 8.88057 88.3572C11.1398 86.0265 14.4212 84.6758 17.6586 84.9088C20.896 85.1417 24.0092 87.0117 25.5944 89.8442C27.1796 92.6768 27.2314 96.4227 25.4137 99.1111Z" fill="#E30A13"/>
<path d="M11.3555 86.3249C11.3551 86.3182 11.4292 86.3089 11.5707 86.2982C11.7121 86.2912 11.9214 86.2656 12.1914 86.2682C12.731 86.2549 13.5158 86.2904 14.4702 86.4493C15.4243 86.606 16.545 86.913 17.7161 87.4352C18.8865 87.9548 20.0972 88.707 21.2001 89.6956C22.2942 90.6948 23.1638 91.8248 23.7975 92.9377C24.4338 94.051 24.8508 95.1355 25.1019 96.0692C25.3549 97.0032 25.4686 97.7806 25.509 98.3188C25.5386 98.5869 25.5271 98.6558 25.5342 98.7976C25.5375 98.9395 25.4142 99.1558 25.4075 99.1561C25.3901 99.1573 25.4982 98.8595 25.433 98.3269C25.3693 97.7943 25.2356 97.0269 24.9682 96.1073C24.449 94.2781 23.2431 91.8118 21.0683 89.8415C18.8917 87.8745 16.318 86.9204 14.4462 86.586C13.5047 86.4115 12.7277 86.3549 12.1914 86.3445C11.6547 86.3326 11.357 86.3419 11.3558 86.3245L11.3555 86.3249Z" fill="#263238"/>
<path d="M23.1905 92.4208C23.1997 92.4456 22.8834 92.5919 22.3601 92.7982C21.8368 93.0045 21.1053 93.2682 20.2875 93.5282C19.469 93.7878 18.7198 93.9945 18.1731 94.1282C17.6268 94.2619 17.2839 94.3248 17.2772 94.2989C17.2702 94.2719 17.6002 94.1615 18.1357 93.9941C18.7413 93.8048 19.4475 93.5845 20.2275 93.3408C21.0053 93.0897 21.7094 92.8622 22.3127 92.6674C22.8468 92.4952 23.1801 92.3949 23.1897 92.4212L23.1905 92.4208Z" fill="#263238"/>
<path d="M20.6041 85.4737C20.657 85.4688 20.7733 86.2881 20.7981 87.3059C20.8248 88.3244 20.7496 89.148 20.6967 89.1458C20.6411 89.144 20.6278 88.3225 20.6011 87.311C20.5763 86.2999 20.5485 85.4785 20.6041 85.4737Z" fill="#263238"/>
<path d="M8.84461 89.2353C8.83683 89.2101 9.29127 89.0453 10.0379 88.8153C10.7842 88.5853 11.8235 88.2942 12.982 88.0146C14.1408 87.7357 15.199 87.5216 15.9678 87.3864C16.7371 87.2513 17.2167 87.1909 17.2212 87.2168C17.2263 87.2446 16.7556 87.3531 15.9949 87.5227C15.2341 87.6924 14.1834 87.9272 13.0275 88.2057C11.872 88.4842 10.8301 88.7535 10.0753 88.949C9.32053 89.1442 8.85239 89.262 8.84424 89.2349L8.84461 89.2353Z" fill="#263238"/>
<path d="M18.485 100.687C17.0724 99.6155 15.5784 99.4048 13.8069 99.4751C12.0354 99.5455 10.311 100.085 8.68698 100.796C5.91739 102.009 3.31372 103.797 1.65893 106.328C0.00414154 108.859 -0.571776 112.209 0.667095 114.967C0.790426 115.242 0.951165 115.529 1.2282 115.648C1.51967 115.773 1.85374 115.675 2.15522 115.577C5.30518 114.549 8.47772 113.512 11.3743 111.902C14.2706 110.293 16.9072 108.056 18.4617 105.13C18.8346 104.427 19.1465 103.675 19.2076 102.882C19.2683 102.089 19.0494 101.247 18.485 100.687Z" fill="#E30A13"/>
<path d="M18.5133 100.355C18.5151 100.362 18.437 100.393 18.2866 100.447C18.1163 100.506 17.8974 100.581 17.6266 100.674C17.4807 100.723 17.3215 100.776 17.1489 100.834C16.9755 100.896 16.7907 100.974 16.5904 101.051C16.1918 101.212 15.7293 101.373 15.2419 101.61C14.9952 101.722 14.7374 101.839 14.4693 101.962C14.2015 102.085 13.9341 102.237 13.6508 102.382C13.0797 102.662 12.5023 103.021 11.8867 103.384C10.679 104.148 9.40084 105.066 8.15678 106.15C6.9231 107.246 5.8483 108.397 4.9372 109.498C4.49832 110.062 4.06943 110.589 3.71833 111.12C3.53907 111.383 3.35426 111.629 3.1976 111.878C3.04241 112.129 2.89316 112.369 2.75019 112.6C2.45353 113.053 2.23502 113.491 2.02428 113.866C1.92169 114.055 1.82132 114.228 1.73725 114.392C1.65799 114.556 1.58503 114.707 1.51836 114.846C1.3917 115.103 1.2891 115.31 1.20911 115.472C1.13651 115.614 1.09503 115.687 1.08874 115.685C1.08244 115.682 1.11133 115.603 1.17281 115.456C1.24392 115.29 1.33577 115.077 1.4491 114.813C1.51132 114.672 1.57947 114.518 1.65317 114.351C1.73243 114.184 1.82836 114.007 1.9265 113.815C2.12872 113.434 2.3402 112.989 2.63057 112.529C2.77056 112.295 2.91723 112.051 3.06945 111.796C3.22389 111.543 3.40648 111.293 3.58389 111.027C3.93129 110.49 4.35795 109.955 4.79572 109.384C5.70534 108.27 6.78384 107.107 8.02604 106.003C9.27899 104.911 10.5697 103.99 11.7908 103.23C12.4126 102.869 12.9971 102.514 13.5749 102.238C13.8615 102.096 14.1319 101.946 14.403 101.825C14.6745 101.707 14.9352 101.592 15.1848 101.483C15.6782 101.254 16.1467 101.101 16.5507 100.949C16.7541 100.876 16.9411 100.803 17.117 100.746C17.2922 100.694 17.4541 100.646 17.6022 100.602C17.8781 100.523 18.1011 100.46 18.2748 100.41C18.4289 100.368 18.5107 100.349 18.5126 100.356L18.5133 100.355Z" fill="#263238"/>
<path d="M7.4765 106.33C7.49168 106.382 5.95319 106.877 4.04025 107.437C2.12695 107.996 0.563636 108.407 0.548451 108.355C0.533266 108.303 2.07139 107.807 3.98507 107.248C5.898 106.689 7.46131 106.277 7.4765 106.33Z" fill="#263238"/>
<path d="M7.33504 113.913C7.30837 113.913 7.27763 113.505 7.25948 112.842C7.24133 112.18 7.23837 111.265 7.26652 110.255C7.29504 109.245 7.34874 108.331 7.40392 107.671C7.45911 107.011 7.51244 106.605 7.53911 106.606C7.56688 106.608 7.56207 107.018 7.54281 107.679C7.52059 108.405 7.49318 109.286 7.46318 110.26C7.43874 111.235 7.41689 112.117 7.39837 112.842C7.38096 113.503 7.36244 113.912 7.33467 113.913L7.33504 113.913Z" fill="#263238"/>
<path d="M13.8314 110.604C13.7773 110.608 13.6043 108.749 13.4454 106.452C13.2865 104.154 13.2017 102.289 13.2558 102.285C13.3099 102.281 13.4828 104.14 13.6417 106.438C13.8006 108.735 13.8854 110.6 13.8314 110.604V110.604Z" fill="#263238"/>
<path d="M5.745 102.105C5.74648 102.078 6.16722 102.067 6.84647 102.071C7.52572 102.076 8.46311 102.096 9.49828 102.13C10.5334 102.164 11.4705 102.206 12.1486 102.247C12.8267 102.287 13.2456 102.325 13.2453 102.353C13.2449 102.38 12.8245 102.391 12.1453 102.386C11.466 102.381 10.5279 102.361 9.49161 102.327C8.4557 102.293 7.51831 102.251 6.84017 102.211C6.16203 102.17 5.74389 102.132 5.745 102.105Z" fill="#263238"/>
<path d="M21.3379 124.729C21.3313 124.729 21.3231 124.653 21.3146 124.509C21.3072 124.344 21.2976 124.135 21.2857 123.877C21.2609 123.328 21.2554 122.533 21.2765 121.551C21.2942 120.569 21.3609 119.4 21.4791 118.105C21.6072 116.812 21.792 115.394 22.0572 113.917C22.3294 112.44 22.6557 111.047 22.992 109.79C23.3375 108.535 23.6872 107.415 24.0168 106.488C24.3435 105.559 24.629 104.814 24.846 104.308C24.9479 104.07 25.0305 103.877 25.096 103.725C25.1553 103.592 25.1894 103.524 25.1957 103.526C25.202 103.529 25.1801 103.602 25.1331 103.739C25.0768 103.895 25.0053 104.092 24.9179 104.335C24.7235 104.849 24.4583 105.599 24.1494 106.53C23.8375 107.462 23.5027 108.582 23.1679 109.835C22.8427 111.09 22.5227 112.48 22.2516 113.951C21.9876 115.423 21.7976 116.835 21.6602 118.123C21.5324 119.412 21.4516 120.576 21.4161 121.555C21.3772 122.534 21.3616 123.328 21.3628 123.876C21.3594 124.134 21.3568 124.342 21.3546 124.508C21.3505 124.652 21.345 124.729 21.3379 124.729Z" fill="#263238"/>
<path d="M22.2042 113.975C22.2227 113.994 21.9742 114.27 21.549 114.694C21.1242 115.118 20.5209 115.687 19.8324 116.29C19.1435 116.894 18.5005 117.418 18.0246 117.784C17.5491 118.15 17.2424 118.36 17.2261 118.339C17.2087 118.317 17.4846 118.069 17.9365 117.676C18.4413 117.238 19.0402 116.718 19.7024 116.143C20.359 115.561 20.9531 115.036 21.4535 114.593C21.902 114.196 22.1849 113.955 22.2042 113.975Z" fill="#263238"/>
<path d="M27.4034 118.163C27.3797 118.178 27.1193 117.804 26.7052 117.196C26.2563 116.541 25.6986 115.728 25.0823 114.828C24.4527 113.937 23.8834 113.131 23.4253 112.482C22.999 111.883 22.7394 111.509 22.7616 111.492C22.7823 111.476 23.0812 111.82 23.5367 112.399C23.9923 112.977 24.6015 113.793 25.2438 114.715C25.8852 115.638 26.4378 116.493 26.8223 117.121C27.2067 117.749 27.4256 118.149 27.4034 118.163Z" fill="#263238"/>
<path d="M24.6796 104.992C24.7089 105.038 22.9819 106.2 20.8227 107.588C18.6627 108.977 16.8883 110.065 16.859 110.02C16.8298 109.974 18.5564 108.812 20.7164 107.423C22.8756 106.035 24.6504 104.946 24.6796 104.992Z" fill="#263238"/>
<path d="M29.5498 110.248C29.5117 110.287 28.3421 109.206 26.9376 107.834C25.5325 106.462 24.4247 105.318 24.4629 105.279C24.5006 105.24 25.6703 106.321 27.0754 107.693C28.4798 109.065 29.588 110.209 29.5502 110.248H29.5498Z" fill="#263238"/>
<path d="M30.7742 110.143L32.2567 110.02C33.3089 109.933 34.3308 109.622 35.2508 109.103C35.7056 108.847 36.1626 108.597 36.6463 108.403C38.4792 107.667 40.5244 107.799 42.497 107.699C45.7165 107.538 48.9024 106.723 51.8042 105.319C51.972 105.238 52.1202 105.115 52.2098 104.951C52.5142 104.396 51.9487 103.903 51.462 103.603C48.9643 102.063 46.4221 100.505 43.5895 99.7409C40.757 98.9769 37.5418 99.1061 35.1248 100.769C32.2879 102.722 31.2538 106.732 30.7745 110.143" fill="#E30A13"/>
<path d="M52.2429 104.769C52.2396 104.775 52.1533 104.734 51.9915 104.652C51.8137 104.559 51.58 104.436 51.2885 104.283C50.6789 103.963 49.8015 103.49 48.693 102.958C47.5837 102.432 46.2393 101.839 44.6753 101.41C43.1179 100.977 41.3209 100.751 39.4679 100.988C37.6228 101.231 35.9235 101.949 34.721 103.026C33.5106 104.1 32.7714 105.397 32.2491 106.498C31.7284 107.609 31.4073 108.555 31.1736 109.202C31.0644 109.512 30.9766 109.76 30.9099 109.949C30.8481 110.12 30.8125 110.209 30.8062 110.206C30.7999 110.204 30.8225 110.112 30.8721 109.937C30.9303 109.745 31.0062 109.492 31.101 109.177C31.3129 108.522 31.614 107.567 32.1229 106.44C32.6332 105.322 33.3688 103.998 34.601 102.891C35.8265 101.779 37.565 101.039 39.4424 100.793C41.3268 100.551 43.1531 100.788 44.7234 101.235C46.3012 101.678 47.6478 102.289 48.7533 102.833C49.8581 103.383 50.7263 103.875 51.3248 104.216C51.6089 104.383 51.8366 104.516 52.01 104.617C52.1652 104.71 52.2455 104.763 52.2422 104.769H52.2429Z" fill="#263238"/>
<path d="M48.6825 106.681C48.6521 106.727 46.7128 105.472 44.3521 103.88C41.9903 102.287 40.1011 100.96 40.1315 100.915C40.1618 100.87 42.1007 102.124 44.4625 103.717C46.8236 105.309 48.7132 106.636 48.6828 106.681L48.6825 106.681Z" fill="#263238"/>
<path d="M46.614 100.813C46.6236 100.857 45.9962 101.003 45.2025 101.067C44.4085 101.133 43.7622 101.092 43.7629 101.049C43.7629 101.001 44.4022 100.969 45.1859 100.903C45.9696 100.84 46.6044 100.767 46.614 100.813Z" fill="#263238"/>
<path d="M38.1259 99.7078C38.1726 99.7293 37.8878 100.174 37.49 100.702C37.0919 101.229 36.7311 101.639 36.6845 101.617C36.6378 101.596 36.9222 101.151 37.3207 100.623C37.7189 100.096 38.0792 99.6864 38.1259 99.7078Z" fill="#263238"/>
<path d="M39.8633 107.824C39.85 107.846 39.4903 107.658 38.93 107.318C38.37 106.978 37.6129 106.48 36.8041 105.893C35.9952 105.305 35.2819 104.75 34.7697 104.343C34.2578 103.936 33.9482 103.675 33.9645 103.653C33.9808 103.631 34.3197 103.853 34.8534 104.232C35.4348 104.654 36.14 105.166 36.9196 105.733C37.7259 106.318 38.4663 106.832 39.0055 107.201C39.5448 107.569 39.8781 107.799 39.8633 107.824Z" fill="#263238"/>
<path d="M32.9569 116.441C31.5428 116.068 29.8573 117.443 29.5658 118.876C29.2743 120.31 29.8117 121.776 30.4414 123.096C31.8343 126.018 33.7569 128.729 36.289 130.747C38.8212 132.765 41.9927 134.055 45.2304 134.039C44.6326 131.262 45.3889 128.361 45.0556 125.54C44.7648 123.079 43.6167 120.726 41.8549 118.982C40.0931 117.237 37.7294 116.113 35.2646 115.846C34.362 115.749 33.3172 115.607 32.9572 116.441" fill="#E30A13"/>
<path d="M45.2303 134.039C45.227 134.045 45.1581 134.013 45.0292 133.945C44.9018 133.876 44.7174 133.763 44.5004 133.59C44.0563 133.253 43.5478 132.603 43.1041 131.723C42.8785 131.285 42.6267 130.81 42.3804 130.284C42.1415 129.755 41.8871 129.193 41.6197 128.602C41.3497 128.012 41.0534 127.401 40.6849 126.804C40.3182 126.207 39.8819 125.622 39.3982 125.055C38.4301 123.917 37.3912 122.934 36.4908 121.994C35.5857 121.057 34.8242 120.155 34.2742 119.334C33.7187 118.516 33.382 117.782 33.1909 117.265C33.0998 117.004 33.0342 116.8 33.002 116.659C32.9665 116.518 32.9509 116.443 32.9576 116.441C32.9761 116.436 33.0561 116.73 33.2624 117.237C33.4739 117.741 33.8246 118.456 34.389 119.256C34.9479 120.058 35.7127 120.942 36.6212 121.868C37.5256 122.797 38.5704 123.779 39.5486 124.928C40.0371 125.501 40.4786 126.095 40.8497 126.704C41.2223 127.313 41.5185 127.933 41.7852 128.527C42.0467 129.121 42.2956 129.685 42.5289 130.215C42.7663 130.739 43.0115 131.219 43.2282 131.659C43.6541 132.543 44.1293 133.182 44.55 133.532C44.9629 133.888 45.2426 134.02 45.2307 134.039L45.2303 134.039Z" fill="#263238"/>
<path d="M37.9182 131.732C37.8926 131.727 37.937 131.362 38.0478 130.78C38.1585 130.198 38.34 129.398 38.5852 128.527C38.8307 127.656 39.0933 126.88 39.3026 126.325C39.5118 125.77 39.6641 125.436 39.6889 125.446C39.7155 125.455 39.6092 125.806 39.4344 126.37C39.2592 126.935 39.0192 127.714 38.7748 128.581C38.5307 129.448 38.3289 130.238 38.1837 130.811C38.0385 131.383 37.9459 131.738 37.9182 131.732V131.732Z" fill="#263238"/>
<path d="M44.9625 124.915C44.954 124.942 44.5755 124.846 43.9663 124.687C43.357 124.527 42.5155 124.309 41.5796 124.098C40.6433 123.888 39.7896 123.724 39.1708 123.607C38.5519 123.49 38.1689 123.414 38.1726 123.387C38.1763 123.361 38.5663 123.387 39.193 123.469C39.8193 123.551 40.6815 123.695 41.623 123.907C42.5641 124.119 43.4044 124.359 44.0055 124.553C44.6066 124.747 44.9703 124.891 44.9625 124.915Z" fill="#263238"/>
<path d="M32.6706 126.896C32.6447 126.891 32.6995 126.469 32.8236 125.794C32.948 125.119 33.1458 124.191 33.4102 123.177C33.675 122.163 33.9561 121.257 34.1776 120.607C34.3991 119.957 34.5576 119.563 34.5824 119.571C34.6091 119.58 34.4976 119.99 34.3106 120.648C34.1235 121.307 33.8647 122.217 33.6006 123.227C33.3373 124.237 33.1184 125.157 32.9595 125.823C32.8006 126.489 32.698 126.901 32.6706 126.896Z" fill="#263238"/>
<path d="M41.7185 118.976C41.7129 119.03 39.9474 118.887 37.7759 118.657C35.6037 118.427 33.8482 118.196 33.8538 118.142C33.8597 118.088 35.6245 118.231 37.7967 118.461C39.9681 118.692 41.724 118.922 41.7185 118.976Z" fill="#263238"/>
<path d="M40.4252 140.385C40.4252 140.439 34.2197 140.483 26.5665 140.483C18.9132 140.483 12.7063 140.439 12.7063 140.385C12.7063 140.33 18.9107 140.286 26.5665 140.286C34.2223 140.286 40.4252 140.33 40.4252 140.385Z" fill="#455A64"/>
<path d="M36.1074 148.37C36.1074 148.424 31.9264 148.469 26.7698 148.469C21.6132 148.469 17.4314 148.424 17.4314 148.37C17.4314 148.316 21.6117 148.271 26.7698 148.271C31.9279 148.271 36.1074 148.316 36.1074 148.37Z" fill="#455A64"/>
<path d="M35.9451 149.512C35.9451 149.566 31.8366 149.61 26.77 149.61C21.7034 149.61 17.5942 149.566 17.5942 149.512C17.5942 149.457 21.7016 149.413 26.77 149.413C31.8385 149.413 35.9451 149.457 35.9451 149.512Z" fill="#455A64"/>
<path d="M36.2706 147.429C36.2706 147.483 31.9459 147.527 26.6119 147.527C21.2779 147.527 16.9524 147.483 16.9524 147.429C16.9524 147.374 21.2764 147.33 26.6119 147.33C31.9474 147.33 36.2706 147.374 36.2706 147.429Z" fill="#455A64"/>
</svg>
