<svg width="28" height="34" viewBox="0 0 28 34" fill="none" xmlns="http://www.w3.org/2000/svg">
<path d="M7.00098 13.6667V8.66667C7.00098 6.89856 7.70336 5.20286 8.9536 3.95262C10.2038 2.70238 11.8995 2 13.6676 2C15.4358 2 17.1314 2.70238 18.3817 3.95262C19.6319 5.20286 20.3343 6.89856 20.3343 8.66667V13.6667" stroke="#757575" stroke-width="4" stroke-linecap="round"/>
<path d="M2 13.666H25.3333V28.666C25.3333 29.5501 24.9821 30.3979 24.357 31.023C23.7319 31.6482 22.8841 31.9993 22 31.9993H5.33333C4.44928 31.9993 3.60143 31.6482 2.97631 31.023C2.35119 30.3979 2 29.5501 2 28.666V13.666Z" stroke="#757575" stroke-width="4" stroke-linejoin="round"/>
<path d="M17.832 22.834H17.8487V22.8507H17.832V22.834Z" stroke="#757575" stroke-width="4" stroke-linejoin="round"/>
</svg>
