<svg width="168" height="118" viewBox="0 0 168 118" fill="none" xmlns="http://www.w3.org/2000/svg">
<g filter="url(#filter0_d_4725_4514)">
<rect x="14" y="10" width="140" height="90" rx="10" fill="white"/>
</g>
<rect x="65" y="22" width="37" height="37" rx="18.5" fill="#E30A13"/>
<path d="M76 34.25C76 33.388 76.3424 32.5614 76.9519 31.9519C77.5614 31.3424 78.388 31 79.25 31H88.75C89.612 31 90.4386 31.3424 91.0481 31.9519C91.6576 32.5614 92 33.388 92 34.25V47.75C92 48.1768 91.9159 48.5994 91.7526 48.9937C91.5893 49.388 91.3499 49.7463 91.0481 50.0481C90.7463 50.3499 90.388 50.5893 89.9937 50.7526C89.5994 50.9159 89.1768 51 88.75 51H79.25C78.8232 51 78.4006 50.9159 78.0063 50.7526C77.612 50.5893 77.2537 50.3499 76.9519 50.0481C76.6501 49.7463 76.4107 49.388 76.2474 48.9937C76.0841 48.5994 76 48.1768 76 47.75V34.25ZM81 34C80.4696 34 79.9609 34.2107 79.5858 34.5858C79.2107 34.9609 79 35.4696 79 36V37C79 37.5304 79.2107 38.0391 79.5858 38.4142C79.9609 38.7893 80.4696 39 81 39H87C87.5304 39 88.0391 38.7893 88.4142 38.4142C88.7893 38.0391 89 37.5304 89 37V36C89 35.4696 88.7893 34.9609 88.4142 34.5858C88.0391 34.2107 87.5304 34 87 34H81ZM81.5 42.25C81.5 41.9185 81.3683 41.6005 81.1339 41.3661C80.8995 41.1317 80.5815 41 80.25 41C79.9185 41 79.6005 41.1317 79.3661 41.3661C79.1317 41.6005 79 41.9185 79 42.25C79 42.5815 79.1317 42.8995 79.3661 43.1339C79.6005 43.3683 79.9185 43.5 80.25 43.5C80.5815 43.5 80.8995 43.3683 81.1339 43.1339C81.3683 42.8995 81.5 42.5815 81.5 42.25ZM80.25 47.5C80.5815 47.5 80.8995 47.3683 81.1339 47.1339C81.3683 46.8995 81.5 46.5815 81.5 46.25C81.5 45.9185 81.3683 45.6005 81.1339 45.3661C80.8995 45.1317 80.5815 45 80.25 45C79.9185 45 79.6005 45.1317 79.3661 45.3661C79.1317 45.6005 79 45.9185 79 46.25C79 46.5815 79.1317 46.8995 79.3661 47.1339C79.6005 47.3683 79.9185 47.5 80.25 47.5ZM89 42.25C89 41.9185 88.8683 41.6005 88.6339 41.3661C88.3995 41.1317 88.0815 41 87.75 41C87.4185 41 87.1005 41.1317 86.8661 41.3661C86.6317 41.6005 86.5 41.9185 86.5 42.25C86.5 42.5815 86.6317 42.8995 86.8661 43.1339C87.1005 43.3683 87.4185 43.5 87.75 43.5C88.0815 43.5 88.3995 43.3683 88.6339 43.1339C88.8683 42.8995 89 42.5815 89 42.25ZM87.75 47.5C88.0815 47.5 88.3995 47.3683 88.6339 47.1339C88.8683 46.8995 89 46.5815 89 46.25C89 45.9185 88.8683 45.6005 88.6339 45.3661C88.3995 45.1317 88.0815 45 87.75 45C87.4185 45 87.1005 45.1317 86.8661 45.3661C86.6317 45.6005 86.5 45.9185 86.5 46.25C86.5 46.5815 86.6317 46.8995 86.8661 47.1339C87.1005 47.3683 87.4185 47.5 87.75 47.5ZM85.25 42.25C85.25 41.9185 85.1183 41.6005 84.8839 41.3661C84.6495 41.1317 84.3315 41 84 41C83.6685 41 83.3505 41.1317 83.1161 41.3661C82.8817 41.6005 82.75 41.9185 82.75 42.25C82.75 42.5815 82.8817 42.8995 83.1161 43.1339C83.3505 43.3683 83.6685 43.5 84 43.5C84.3315 43.5 84.6495 43.3683 84.8839 43.1339C85.1183 42.8995 85.25 42.5815 85.25 42.25ZM84 47.5C84.3315 47.5 84.6495 47.3683 84.8839 47.1339C85.1183 46.8995 85.25 46.5815 85.25 46.25C85.25 45.9185 85.1183 45.6005 84.8839 45.3661C84.6495 45.1317 84.3315 45 84 45C83.6685 45 83.3505 45.1317 83.1161 45.3661C82.8817 45.6005 82.75 45.9185 82.75 46.25C82.75 46.5815 82.8817 46.8995 83.1161 47.1339C83.3505 47.3683 83.6685 47.5 84 47.5Z" fill="white"/>
<path d="M25.6613 73.964H29.8943C30.6649 73.964 31.2996 74.0717 31.7983 74.287C32.2969 74.491 32.6879 74.7573 32.9713 75.086C33.2659 75.4033 33.4699 75.766 33.5833 76.174C33.6966 76.5707 33.7533 76.956 33.7533 77.33C33.7533 77.7153 33.6853 78.0893 33.5493 78.452C33.4133 78.8033 33.2149 79.1263 32.9543 79.421C32.7049 79.7043 32.3933 79.948 32.0193 80.152C31.6566 80.3447 31.2486 80.4637 30.7953 80.509L34.2123 86H32.1723L29.1123 80.696H27.2933V86H25.6613V73.964ZM27.2933 79.268H29.4353C29.7526 79.268 30.0643 79.2453 30.3703 79.2C30.6876 79.1433 30.9653 79.047 31.2033 78.911C31.4526 78.775 31.6509 78.5823 31.7983 78.333C31.9456 78.0723 32.0193 77.738 32.0193 77.33C32.0193 76.922 31.9456 76.5933 31.7983 76.344C31.6509 76.0833 31.4526 75.885 31.2033 75.749C30.9653 75.613 30.6876 75.5223 30.3703 75.477C30.0643 75.4203 29.7526 75.392 29.4353 75.392H27.2933V79.268ZM35.6968 78.928C36.1275 78.5313 36.6262 78.2367 37.1928 78.044C37.7595 77.84 38.3262 77.738 38.8928 77.738C39.4822 77.738 39.9865 77.8117 40.4058 77.959C40.8365 78.1063 41.1878 78.3047 41.4598 78.554C41.7318 78.8033 41.9302 79.0923 42.0548 79.421C42.1908 79.7383 42.2588 80.0727 42.2588 80.424V84.538C42.2588 84.8213 42.2645 85.082 42.2758 85.32C42.2872 85.558 42.3042 85.7847 42.3268 86H40.9668C40.9328 85.592 40.9158 85.184 40.9158 84.776H40.8818C40.5418 85.2973 40.1395 85.6657 39.6748 85.881C39.2102 86.0963 38.6718 86.204 38.0598 86.204C37.6858 86.204 37.3288 86.153 36.9888 86.051C36.6488 85.949 36.3485 85.796 36.0878 85.592C35.8385 85.388 35.6402 85.1387 35.4928 84.844C35.3455 84.538 35.2718 84.1867 35.2718 83.79C35.2718 83.2687 35.3852 82.8323 35.6118 82.481C35.8498 82.1297 36.1672 81.8463 36.5638 81.631C36.9718 81.4043 37.4422 81.2457 37.9748 81.155C38.5188 81.053 39.0968 81.002 39.7088 81.002H40.8308V80.662C40.8308 80.458 40.7912 80.254 40.7118 80.05C40.6325 79.846 40.5135 79.6647 40.3548 79.506C40.1962 79.336 39.9978 79.2057 39.7598 79.115C39.5218 79.013 39.2385 78.962 38.9098 78.962C38.6152 78.962 38.3545 78.9903 38.1278 79.047C37.9125 79.1037 37.7142 79.1773 37.5328 79.268C37.3515 79.3473 37.1872 79.4437 37.0398 79.557C36.8925 79.6703 36.7508 79.778 36.6148 79.88L35.6968 78.928ZM40.0148 82.124C39.6522 82.124 39.2782 82.1467 38.8928 82.192C38.5188 82.226 38.1732 82.2997 37.8558 82.413C37.5498 82.5263 37.2948 82.685 37.0908 82.889C36.8982 83.093 36.8018 83.3537 36.8018 83.671C36.8018 84.1357 36.9548 84.47 37.2608 84.674C37.5782 84.878 38.0032 84.98 38.5358 84.98C38.9552 84.98 39.3122 84.912 39.6068 84.776C39.9015 84.6287 40.1395 84.4417 40.3208 84.215C40.5022 83.9883 40.6325 83.739 40.7118 83.467C40.7912 83.1837 40.8308 82.906 40.8308 82.634V82.124H40.0148ZM48.7963 79.268H46.6033V82.923C46.6033 83.1497 46.6089 83.3763 46.6203 83.603C46.6316 83.8183 46.6713 84.0167 46.7393 84.198C46.8186 84.368 46.9319 84.5097 47.0793 84.623C47.2379 84.725 47.4646 84.776 47.7593 84.776C47.9406 84.776 48.1276 84.759 48.3203 84.725C48.5129 84.691 48.6886 84.6287 48.8473 84.538V85.932C48.6659 86.034 48.4279 86.102 48.1333 86.136C47.8499 86.1813 47.6289 86.204 47.4703 86.204C46.8809 86.204 46.4219 86.1247 46.0933 85.966C45.7759 85.796 45.5379 85.5807 45.3793 85.32C45.2319 85.0593 45.1413 84.7703 45.1073 84.453C45.0846 84.1243 45.0733 83.7957 45.0733 83.467V79.268H43.3053V77.942H45.0733V75.681H46.6033V77.942H48.7963V79.268ZM51.9263 82.532C51.9263 82.8833 51.9999 83.2063 52.1473 83.501C52.3059 83.7843 52.5099 84.028 52.7593 84.232C53.0086 84.436 53.2976 84.5947 53.6263 84.708C53.9549 84.8213 54.2949 84.878 54.6463 84.878C55.1223 84.878 55.5359 84.7703 55.8873 84.555C56.2386 84.3283 56.5616 84.0337 56.8563 83.671L58.0123 84.555C57.1623 85.6543 55.9723 86.204 54.4423 86.204C53.8076 86.204 53.2296 86.0963 52.7083 85.881C52.1983 85.6657 51.7619 85.371 51.3993 84.997C51.0479 84.6117 50.7759 84.164 50.5833 83.654C50.3906 83.1327 50.2943 82.5717 50.2943 81.971C50.2943 81.3703 50.3963 80.815 50.6003 80.305C50.8156 79.7837 51.1046 79.336 51.4673 78.962C51.8413 78.5767 52.2833 78.2763 52.7933 78.061C53.3033 77.8457 53.8586 77.738 54.4593 77.738C55.1733 77.738 55.7739 77.8627 56.2613 78.112C56.7599 78.3613 57.1679 78.69 57.4853 79.098C57.8026 79.4947 58.0293 79.948 58.1653 80.458C58.3126 80.9567 58.3863 81.4667 58.3863 81.988V82.532H51.9263ZM56.7543 81.308C56.7429 80.968 56.6863 80.6563 56.5843 80.373C56.4936 80.0897 56.3519 79.846 56.1593 79.642C55.9666 79.4267 55.7229 79.2623 55.4283 79.149C55.1449 79.0243 54.8106 78.962 54.4253 78.962C54.0513 78.962 53.7056 79.0357 53.3883 79.183C53.0823 79.319 52.8216 79.5003 52.6063 79.727C52.3909 79.9537 52.2209 80.2087 52.0963 80.492C51.9829 80.764 51.9263 81.036 51.9263 81.308H56.7543ZM73.72 76.565C73.38 76.123 72.9493 75.783 72.428 75.545C71.9067 75.307 71.3683 75.188 70.813 75.188C70.133 75.188 69.5153 75.3183 68.96 75.579C68.416 75.8283 67.9457 76.174 67.549 76.616C67.1637 77.058 66.8633 77.5793 66.648 78.18C66.4327 78.7693 66.325 79.404 66.325 80.084C66.325 80.7187 66.427 81.3193 66.631 81.886C66.835 82.4527 67.1297 82.9513 67.515 83.382C67.9003 83.8127 68.3707 84.1527 68.926 84.402C69.4813 84.6513 70.1103 84.776 70.813 84.776C71.5043 84.776 72.1107 84.6343 72.632 84.351C73.1533 84.0677 73.5953 83.671 73.958 83.161L75.335 84.198C75.2443 84.3227 75.0857 84.504 74.859 84.742C74.6323 84.9687 74.332 85.201 73.958 85.439C73.584 85.6657 73.1307 85.864 72.598 86.034C72.0767 86.2153 71.4703 86.306 70.779 86.306C69.827 86.306 68.9657 86.1247 68.195 85.762C67.4357 85.3993 66.784 84.9233 66.24 84.334C65.7073 83.7447 65.2993 83.0817 65.016 82.345C64.7327 81.597 64.591 80.8433 64.591 80.084C64.591 79.1547 64.744 78.299 65.05 77.517C65.356 76.7237 65.781 76.0437 66.325 75.477C66.8803 74.899 67.5433 74.4513 68.314 74.134C69.0847 73.8167 69.9347 73.658 70.864 73.658C71.6573 73.658 72.4337 73.811 73.193 74.117C73.9637 74.423 74.5927 74.8933 75.08 75.528L73.72 76.565ZM76.9517 78.928C77.3824 78.5313 77.8811 78.2367 78.4477 78.044C79.0144 77.84 79.5811 77.738 80.1477 77.738C80.7371 77.738 81.2414 77.8117 81.6607 77.959C82.0914 78.1063 82.4427 78.3047 82.7147 78.554C82.9867 78.8033 83.1851 79.0923 83.3097 79.421C83.4457 79.7383 83.5137 80.0727 83.5137 80.424V84.538C83.5137 84.8213 83.5194 85.082 83.5307 85.32C83.5421 85.558 83.5591 85.7847 83.5817 86H82.2217C82.1877 85.592 82.1707 85.184 82.1707 84.776H82.1367C81.7967 85.2973 81.3944 85.6657 80.9297 85.881C80.4651 86.0963 79.9267 86.204 79.3147 86.204C78.9407 86.204 78.5837 86.153 78.2437 86.051C77.9037 85.949 77.6034 85.796 77.3427 85.592C77.0934 85.388 76.8951 85.1387 76.7477 84.844C76.6004 84.538 76.5267 84.1867 76.5267 83.79C76.5267 83.2687 76.6401 82.8323 76.8667 82.481C77.1047 82.1297 77.4221 81.8463 77.8187 81.631C78.2267 81.4043 78.6971 81.2457 79.2297 81.155C79.7737 81.053 80.3517 81.002 80.9637 81.002H82.0857V80.662C82.0857 80.458 82.0461 80.254 81.9667 80.05C81.8874 79.846 81.7684 79.6647 81.6097 79.506C81.4511 79.336 81.2527 79.2057 81.0147 79.115C80.7767 79.013 80.4934 78.962 80.1647 78.962C79.8701 78.962 79.6094 78.9903 79.3827 79.047C79.1674 79.1037 78.9691 79.1773 78.7877 79.268C78.6064 79.3473 78.4421 79.4437 78.2947 79.557C78.1474 79.6703 78.0057 79.778 77.8697 79.88L76.9517 78.928ZM81.2697 82.124C80.9071 82.124 80.5331 82.1467 80.1477 82.192C79.7737 82.226 79.4281 82.2997 79.1107 82.413C78.8047 82.5263 78.5497 82.685 78.3457 82.889C78.1531 83.093 78.0567 83.3537 78.0567 83.671C78.0567 84.1357 78.2097 84.47 78.5157 84.674C78.8331 84.878 79.2581 84.98 79.7907 84.98C80.2101 84.98 80.5671 84.912 80.8617 84.776C81.1564 84.6287 81.3944 84.4417 81.5757 84.215C81.7571 83.9883 81.8874 83.739 81.9667 83.467C82.0461 83.1837 82.0857 82.906 82.0857 82.634V82.124H81.2697ZM85.8521 73.148H87.3821V86H85.8521V73.148ZM95.5801 80.084C95.2968 79.7893 94.9965 79.5683 94.6791 79.421C94.3731 79.2623 94.0048 79.183 93.5741 79.183C93.1548 79.183 92.7865 79.2623 92.4691 79.421C92.1631 79.5683 91.9025 79.778 91.6871 80.05C91.4831 80.3107 91.3245 80.6167 91.2111 80.968C91.1091 81.308 91.0581 81.665 91.0581 82.039C91.0581 82.413 91.1205 82.77 91.2451 83.11C91.3698 83.4387 91.5455 83.7277 91.7721 83.977C91.9988 84.2263 92.2708 84.4247 92.5881 84.572C92.9055 84.708 93.2625 84.776 93.6591 84.776C94.0898 84.776 94.4581 84.7023 94.7641 84.555C95.0701 84.3963 95.3535 84.1697 95.6141 83.875L96.7021 84.963C96.3055 85.405 95.8408 85.7223 95.3081 85.915C94.7868 86.1077 94.2315 86.204 93.6421 86.204C93.0188 86.204 92.4465 86.102 91.9251 85.898C91.4151 85.694 90.9731 85.4107 90.5991 85.048C90.2251 84.674 89.9361 84.232 89.7321 83.722C89.5281 83.2007 89.4261 82.6283 89.4261 82.005C89.4261 81.3817 89.5281 80.8093 89.7321 80.288C89.9361 79.7667 90.2195 79.319 90.5821 78.945C90.9561 78.571 91.3981 78.282 91.9081 78.078C92.4295 77.8627 93.0075 77.755 93.6421 77.755C94.2315 77.755 94.7925 77.8627 95.3251 78.078C95.8691 78.282 96.3395 78.5993 96.7361 79.03L95.5801 80.084ZM105.158 86H103.628V84.759H103.594C103.402 85.1897 103.067 85.541 102.591 85.813C102.115 86.0737 101.566 86.204 100.942 86.204C100.546 86.204 100.172 86.1417 99.8203 86.017C99.469 85.9037 99.1573 85.7223 98.8853 85.473C98.6246 85.2237 98.415 84.9063 98.2563 84.521C98.0976 84.1243 98.0183 83.6597 98.0183 83.127V77.942H99.5483V82.702C99.5483 83.076 99.5993 83.399 99.7013 83.671C99.8033 83.9317 99.9393 84.147 100.109 84.317C100.279 84.4757 100.472 84.5947 100.687 84.674C100.914 84.742 101.146 84.776 101.384 84.776C101.702 84.776 101.996 84.725 102.268 84.623C102.54 84.521 102.778 84.3623 102.982 84.147C103.186 83.9203 103.345 83.637 103.458 83.297C103.572 82.957 103.628 82.5547 103.628 82.09V77.942H105.158V86ZM107.584 73.148H109.114V86H107.584V73.148ZM111.583 78.928C112.013 78.5313 112.512 78.2367 113.079 78.044C113.645 77.84 114.212 77.738 114.779 77.738C115.368 77.738 115.872 77.8117 116.292 77.959C116.722 78.1063 117.074 78.3047 117.346 78.554C117.618 78.8033 117.816 79.0923 117.941 79.421C118.077 79.7383 118.145 80.0727 118.145 80.424V84.538C118.145 84.8213 118.15 85.082 118.162 85.32C118.173 85.558 118.19 85.7847 118.213 86H116.853C116.819 85.592 116.802 85.184 116.802 84.776H116.768C116.428 85.2973 116.025 85.6657 115.561 85.881C115.096 86.0963 114.558 86.204 113.946 86.204C113.572 86.204 113.215 86.153 112.875 86.051C112.535 85.949 112.234 85.796 111.974 85.592C111.724 85.388 111.526 85.1387 111.379 84.844C111.231 84.538 111.158 84.1867 111.158 83.79C111.158 83.2687 111.271 82.8323 111.498 82.481C111.736 82.1297 112.053 81.8463 112.45 81.631C112.858 81.4043 113.328 81.2457 113.861 81.155C114.405 81.053 114.983 81.002 115.595 81.002H116.717V80.662C116.717 80.458 116.677 80.254 116.598 80.05C116.518 79.846 116.399 79.6647 116.241 79.506C116.082 79.336 115.884 79.2057 115.646 79.115C115.408 79.013 115.124 78.962 114.796 78.962C114.501 78.962 114.24 78.9903 114.014 79.047C113.798 79.1037 113.6 79.1773 113.419 79.268C113.237 79.3473 113.073 79.4437 112.926 79.557C112.778 79.6703 112.637 79.778 112.501 79.88L111.583 78.928ZM115.901 82.124C115.538 82.124 115.164 82.1467 114.779 82.192C114.405 82.226 114.059 82.2997 113.742 82.413C113.436 82.5263 113.181 82.685 112.977 82.889C112.784 83.093 112.688 83.3537 112.688 83.671C112.688 84.1357 112.841 84.47 113.147 84.674C113.464 84.878 113.889 84.98 114.422 84.98C114.841 84.98 115.198 84.912 115.493 84.776C115.787 84.6287 116.025 84.4417 116.207 84.215C116.388 83.9883 116.518 83.739 116.598 83.467C116.677 83.1837 116.717 82.906 116.717 82.634V82.124H115.901ZM124.682 79.268H122.489V82.923C122.489 83.1497 122.495 83.3763 122.506 83.603C122.517 83.8183 122.557 84.0167 122.625 84.198C122.704 84.368 122.818 84.5097 122.965 84.623C123.124 84.725 123.35 84.776 123.645 84.776C123.826 84.776 124.013 84.759 124.206 84.725C124.399 84.691 124.574 84.6287 124.733 84.538V85.932C124.552 86.034 124.314 86.102 124.019 86.136C123.736 86.1813 123.515 86.204 123.356 86.204C122.767 86.204 122.308 86.1247 121.979 85.966C121.662 85.796 121.424 85.5807 121.265 85.32C121.118 85.0593 121.027 84.7703 120.993 84.453C120.97 84.1243 120.959 83.7957 120.959 83.467V79.268H119.191V77.942H120.959V75.681H122.489V77.942H124.682V79.268ZM127.897 81.971C127.897 82.379 127.959 82.7587 128.084 83.11C128.209 83.45 128.384 83.7447 128.611 83.994C128.838 84.232 129.115 84.4247 129.444 84.572C129.773 84.708 130.141 84.776 130.549 84.776C130.957 84.776 131.325 84.708 131.654 84.572C131.983 84.4247 132.26 84.232 132.487 83.994C132.714 83.7447 132.889 83.45 133.014 83.11C133.139 82.7587 133.201 82.379 133.201 81.971C133.201 81.563 133.139 81.189 133.014 80.849C132.889 80.4977 132.714 80.203 132.487 79.965C132.26 79.7157 131.983 79.523 131.654 79.387C131.325 79.2397 130.957 79.166 130.549 79.166C130.141 79.166 129.773 79.2397 129.444 79.387C129.115 79.523 128.838 79.7157 128.611 79.965C128.384 80.203 128.209 80.4977 128.084 80.849C127.959 81.189 127.897 81.563 127.897 81.971ZM126.265 81.971C126.265 81.3817 126.373 80.832 126.588 80.322C126.815 79.812 127.121 79.3643 127.506 78.979C127.891 78.5937 128.345 78.2933 128.866 78.078C129.387 77.8513 129.948 77.738 130.549 77.738C131.15 77.738 131.711 77.8513 132.232 78.078C132.753 78.2933 133.207 78.5937 133.592 78.979C133.977 79.3643 134.278 79.812 134.493 80.322C134.72 80.832 134.833 81.3817 134.833 81.971C134.833 82.5603 134.72 83.1157 134.493 83.637C134.278 84.147 133.977 84.5947 133.592 84.98C133.207 85.354 132.753 85.6543 132.232 85.881C131.711 86.0963 131.15 86.204 130.549 86.204C129.948 86.204 129.387 86.0963 128.866 85.881C128.345 85.6543 127.891 85.354 127.506 84.98C127.121 84.5947 126.815 84.147 126.588 83.637C126.373 83.1157 126.265 82.5603 126.265 81.971ZM136.75 77.942H138.28V79.183H138.314C138.416 78.9677 138.552 78.775 138.722 78.605C138.892 78.4237 139.079 78.2707 139.283 78.146C139.498 78.0213 139.73 77.925 139.98 77.857C140.229 77.7777 140.478 77.738 140.728 77.738C140.977 77.738 141.204 77.772 141.408 77.84L141.34 79.489C141.215 79.455 141.09 79.4267 140.966 79.404C140.841 79.3813 140.716 79.37 140.592 79.37C139.844 79.37 139.271 79.5797 138.875 79.999C138.478 80.4183 138.28 81.07 138.28 81.954V86H136.75V77.942Z" fill="#0C0C0D"/>
<defs>
<filter id="filter0_d_4725_4514" x="0" y="0" width="168" height="118" filterUnits="userSpaceOnUse" color-interpolation-filters="sRGB">
<feFlood flood-opacity="0" result="BackgroundImageFix"/>
<feColorMatrix in="SourceAlpha" type="matrix" values="0 0 0 0 0 0 0 0 0 0 0 0 0 0 0 0 0 0 127 0" result="hardAlpha"/>
<feMorphology radius="4" operator="dilate" in="SourceAlpha" result="effect1_dropShadow_4725_4514"/>
<feOffset dy="4"/>
<feGaussianBlur stdDeviation="5"/>
<feComposite in2="hardAlpha" operator="out"/>
<feColorMatrix type="matrix" values="0 0 0 0 0 0 0 0 0 0 0 0 0 0 0 0 0 0 0.15 0"/>
<feBlend mode="normal" in2="BackgroundImageFix" result="effect1_dropShadow_4725_4514"/>
<feBlend mode="normal" in="SourceGraphic" in2="effect1_dropShadow_4725_4514" result="shape"/>
</filter>
</defs>
</svg>
