<svg width="130" height="130" viewBox="0 0 130 130" fill="none" xmlns="http://www.w3.org/2000/svg">
<circle cx="65" cy="65" r="65" fill="#23A26D" fill-opacity="0.12"/>
<path d="M65.0207 34.0674C47.966 34.0674 34.0684 47.965 34.0684 65.0198C34.0684 82.0745 47.966 95.9721 65.0207 95.9721C82.0755 95.9721 95.9731 82.0745 95.9731 65.0198C95.9731 47.965 82.0755 34.0674 65.0207 34.0674ZM79.816 57.9007L62.266 75.4507C61.8326 75.884 61.2445 76.1317 60.6255 76.1317C60.0065 76.1317 59.4184 75.884 58.985 75.4507L50.2255 66.6912C49.3279 65.7936 49.3279 64.3079 50.2255 63.4102C51.1231 62.5126 52.6088 62.5126 53.5065 63.4102L60.6255 70.5293L76.535 54.6198C77.4326 53.7221 78.9184 53.7221 79.816 54.6198C80.7136 55.5174 80.7136 56.9721 79.816 57.9007Z" fill="#23A26D"/>
</svg>
