<svg width="168" height="118" viewBox="0 0 168 118" fill="none" xmlns="http://www.w3.org/2000/svg">
<g filter="url(#filter0_d_4725_4526)">
<rect x="14" y="10" width="140" height="90" rx="10" fill="white"/>
</g>
<path d="M54.2263 83.484C54.5209 83.926 54.8949 84.2547 55.3483 84.47C55.8129 84.674 56.2889 84.776 56.7763 84.776C57.0483 84.776 57.3259 84.7363 57.6093 84.657C57.8926 84.5663 58.1476 84.436 58.3743 84.266C58.6123 84.096 58.8049 83.8863 58.9523 83.637C59.0996 83.3877 59.1733 83.0987 59.1733 82.77C59.1733 82.3053 59.0259 81.954 58.7313 81.716C58.4366 81.4667 58.0683 81.2627 57.6263 81.104C57.1956 80.934 56.7196 80.7753 56.1983 80.628C55.6883 80.4693 55.2123 80.254 54.7703 79.982C54.3396 79.71 53.9769 79.3473 53.6823 78.894C53.3876 78.4293 53.2403 77.806 53.2403 77.024C53.2403 76.6727 53.3139 76.2987 53.4613 75.902C53.6199 75.5053 53.8636 75.1427 54.1923 74.814C54.5209 74.4853 54.9403 74.2133 55.4503 73.998C55.9716 73.7713 56.5949 73.658 57.3203 73.658C57.9776 73.658 58.6066 73.7487 59.2073 73.93C59.8079 74.1113 60.3349 74.4797 60.7883 75.035L59.4623 76.242C59.2583 75.9247 58.9693 75.6697 58.5953 75.477C58.2213 75.2843 57.7963 75.188 57.3203 75.188C56.8669 75.188 56.4873 75.2503 56.1813 75.375C55.8866 75.4883 55.6486 75.6413 55.4673 75.834C55.2859 76.0153 55.1556 76.2137 55.0763 76.429C55.0083 76.6443 54.9743 76.8427 54.9743 77.024C54.9743 77.534 55.1216 77.925 55.4163 78.197C55.7109 78.469 56.0736 78.69 56.5043 78.86C56.9463 79.03 57.4223 79.183 57.9323 79.319C58.4536 79.455 58.9296 79.6477 59.3603 79.897C59.8023 80.135 60.1706 80.4637 60.4653 80.883C60.7599 81.291 60.9073 81.8577 60.9073 82.583C60.9073 83.161 60.7939 83.6823 60.5673 84.147C60.3519 84.6117 60.0573 85.0027 59.6833 85.32C59.3093 85.6373 58.8673 85.881 58.3573 86.051C57.8473 86.221 57.3033 86.306 56.7253 86.306C55.9546 86.306 55.2236 86.17 54.5323 85.898C53.8409 85.626 53.2913 85.2067 52.8833 84.64L54.2263 83.484ZM70.0646 86H68.5346V84.759H68.5006C68.3079 85.1897 67.9736 85.541 67.4976 85.813C67.0216 86.0737 66.4719 86.204 65.8486 86.204C65.4519 86.204 65.0779 86.1417 64.7266 86.017C64.3752 85.9037 64.0636 85.7223 63.7916 85.473C63.5309 85.2237 63.3212 84.9063 63.1626 84.521C63.0039 84.1243 62.9246 83.6597 62.9246 83.127V77.942H64.4546V82.702C64.4546 83.076 64.5056 83.399 64.6076 83.671C64.7096 83.9317 64.8456 84.147 65.0156 84.317C65.1856 84.4757 65.3782 84.5947 65.5936 84.674C65.8202 84.742 66.0526 84.776 66.2906 84.776C66.6079 84.776 66.9026 84.725 67.1746 84.623C67.4466 84.521 67.6846 84.3623 67.8886 84.147C68.0926 83.9203 68.2512 83.637 68.3646 83.297C68.4779 82.957 68.5346 82.5547 68.5346 82.09V77.942H70.0646V86ZM72.3708 77.942H73.9008V79.098H73.9348C74.2295 78.6673 74.6318 78.333 75.1418 78.095C75.6632 77.857 76.1958 77.738 76.7398 77.738C77.3632 77.738 77.9242 77.8457 78.4228 78.061C78.9328 78.2763 79.3635 78.5767 79.7148 78.962C80.0775 79.3473 80.3552 79.8007 80.5478 80.322C80.7405 80.832 80.8368 81.3817 80.8368 81.971C80.8368 82.5717 80.7405 83.1327 80.5478 83.654C80.3552 84.164 80.0775 84.6117 79.7148 84.997C79.3635 85.371 78.9328 85.6657 78.4228 85.881C77.9242 86.0963 77.3632 86.204 76.7398 86.204C76.1618 86.204 75.6178 86.085 75.1078 85.847C74.5978 85.5977 74.2068 85.2633 73.9348 84.844H73.9008V90.794H72.3708V77.942ZM76.5528 79.166C76.1448 79.166 75.7765 79.2397 75.4478 79.387C75.1192 79.523 74.8415 79.7157 74.6148 79.965C74.3882 80.203 74.2125 80.4977 74.0878 80.849C73.9632 81.189 73.9008 81.563 73.9008 81.971C73.9008 82.379 73.9632 82.7587 74.0878 83.11C74.2125 83.45 74.3882 83.7447 74.6148 83.994C74.8415 84.232 75.1192 84.4247 75.4478 84.572C75.7765 84.708 76.1448 84.776 76.5528 84.776C76.9608 84.776 77.3292 84.708 77.6578 84.572C77.9865 84.4247 78.2642 84.232 78.4908 83.994C78.7175 83.7447 78.8932 83.45 79.0178 83.11C79.1425 82.7587 79.2048 82.379 79.2048 81.971C79.2048 81.563 79.1425 81.189 79.0178 80.849C78.8932 80.4977 78.7175 80.203 78.4908 79.965C78.2642 79.7157 77.9865 79.523 77.6578 79.387C77.3292 79.2397 76.9608 79.166 76.5528 79.166ZM82.7634 77.942H84.2934V79.098H84.3274C84.6221 78.6673 85.0244 78.333 85.5344 78.095C86.0558 77.857 86.5884 77.738 87.1324 77.738C87.7558 77.738 88.3168 77.8457 88.8154 78.061C89.3254 78.2763 89.7561 78.5767 90.1074 78.962C90.4701 79.3473 90.7478 79.8007 90.9404 80.322C91.1331 80.832 91.2294 81.3817 91.2294 81.971C91.2294 82.5717 91.1331 83.1327 90.9404 83.654C90.7478 84.164 90.4701 84.6117 90.1074 84.997C89.7561 85.371 89.3254 85.6657 88.8154 85.881C88.3168 86.0963 87.7558 86.204 87.1324 86.204C86.5544 86.204 86.0104 86.085 85.5004 85.847C84.9904 85.5977 84.5994 85.2633 84.3274 84.844H84.2934V90.794H82.7634V77.942ZM86.9454 79.166C86.5374 79.166 86.1691 79.2397 85.8404 79.387C85.5118 79.523 85.2341 79.7157 85.0074 79.965C84.7808 80.203 84.6051 80.4977 84.4804 80.849C84.3558 81.189 84.2934 81.563 84.2934 81.971C84.2934 82.379 84.3558 82.7587 84.4804 83.11C84.6051 83.45 84.7808 83.7447 85.0074 83.994C85.2341 84.232 85.5118 84.4247 85.8404 84.572C86.1691 84.708 86.5374 84.776 86.9454 84.776C87.3534 84.776 87.7218 84.708 88.0504 84.572C88.3791 84.4247 88.6568 84.232 88.8834 83.994C89.1101 83.7447 89.2858 83.45 89.4104 83.11C89.5351 82.7587 89.5974 82.379 89.5974 81.971C89.5974 81.563 89.5351 81.189 89.4104 80.849C89.2858 80.4977 89.1101 80.203 88.8834 79.965C88.6568 79.7157 88.3791 79.523 88.0504 79.387C87.7218 79.2397 87.3534 79.166 86.9454 79.166ZM94.397 81.971C94.397 82.379 94.4593 82.7587 94.584 83.11C94.7087 83.45 94.8843 83.7447 95.111 83.994C95.3377 84.232 95.6153 84.4247 95.944 84.572C96.2727 84.708 96.641 84.776 97.049 84.776C97.457 84.776 97.8253 84.708 98.154 84.572C98.4827 84.4247 98.7603 84.232 98.987 83.994C99.2137 83.7447 99.3893 83.45 99.514 83.11C99.6387 82.7587 99.701 82.379 99.701 81.971C99.701 81.563 99.6387 81.189 99.514 80.849C99.3893 80.4977 99.2137 80.203 98.987 79.965C98.7603 79.7157 98.4827 79.523 98.154 79.387C97.8253 79.2397 97.457 79.166 97.049 79.166C96.641 79.166 96.2727 79.2397 95.944 79.387C95.6153 79.523 95.3377 79.7157 95.111 79.965C94.8843 80.203 94.7087 80.4977 94.584 80.849C94.4593 81.189 94.397 81.563 94.397 81.971ZM92.765 81.971C92.765 81.3817 92.8727 80.832 93.088 80.322C93.3147 79.812 93.6207 79.3643 94.006 78.979C94.3913 78.5937 94.8447 78.2933 95.366 78.078C95.8873 77.8513 96.4483 77.738 97.049 77.738C97.6497 77.738 98.2107 77.8513 98.732 78.078C99.2533 78.2933 99.7067 78.5937 100.092 78.979C100.477 79.3643 100.778 79.812 100.993 80.322C101.22 80.832 101.333 81.3817 101.333 81.971C101.333 82.5603 101.22 83.1157 100.993 83.637C100.778 84.147 100.477 84.5947 100.092 84.98C99.7067 85.354 99.2533 85.6543 98.732 85.881C98.2107 86.0963 97.6497 86.204 97.049 86.204C96.4483 86.204 95.8873 86.0963 95.366 85.881C94.8447 85.6543 94.3913 85.354 94.006 84.98C93.6207 84.5947 93.3147 84.147 93.088 83.637C92.8727 83.1157 92.765 82.5603 92.765 81.971ZM103.25 77.942H104.78V79.183H104.814C104.916 78.9677 105.052 78.775 105.222 78.605C105.392 78.4237 105.579 78.2707 105.783 78.146C105.998 78.0213 106.23 77.925 106.48 77.857C106.729 77.7777 106.978 77.738 107.228 77.738C107.477 77.738 107.704 77.772 107.908 77.84L107.84 79.489C107.715 79.455 107.59 79.4267 107.466 79.404C107.341 79.3813 107.216 79.37 107.092 79.37C106.344 79.37 105.771 79.5797 105.375 79.999C104.978 80.4183 104.78 81.07 104.78 81.954V86H103.25V77.942ZM113.86 79.268H111.667V82.923C111.667 83.1497 111.672 83.3763 111.684 83.603C111.695 83.8183 111.735 84.0167 111.803 84.198C111.882 84.368 111.995 84.5097 112.143 84.623C112.301 84.725 112.528 84.776 112.823 84.776C113.004 84.776 113.191 84.759 113.384 84.725C113.576 84.691 113.752 84.6287 113.911 84.538V85.932C113.729 86.034 113.491 86.102 113.197 86.136C112.913 86.1813 112.692 86.204 112.534 86.204C111.944 86.204 111.485 86.1247 111.157 85.966C110.839 85.796 110.601 85.5807 110.443 85.32C110.295 85.0593 110.205 84.7703 110.171 84.453C110.148 84.1243 110.137 83.7957 110.137 83.467V79.268H108.369V77.942H110.137V75.681H111.667V77.942H113.86V79.268Z" fill="#0C0C0D"/>
<rect x="65" y="22" width="37" height="37" rx="18.5" fill="#E30A13"/>
<path fill-rule="evenodd" clip-rule="evenodd" d="M89.8928 46.8916C87.346 49.4387 83.5748 49.989 80.4886 48.5618C80.033 48.3783 79.6595 48.2301 79.3044 48.2301C78.3154 48.2359 77.0843 49.195 76.4444 48.5559C75.8046 47.916 76.7643 46.6839 76.7643 45.6889C76.7643 45.3337 76.622 44.9669 76.4386 44.5104C75.0107 41.4248 75.5617 37.6523 78.1085 35.1061C81.3596 31.8538 86.6416 31.8538 89.8928 35.1052C93.1497 38.3626 93.1439 43.6402 89.8928 46.8916ZM84.8286 42.19C84.7107 42.5635 84.4365 42.8903 84.0448 42.8903H83.9695C83.5212 42.8903 83.1521 42.5168 83.2105 42.0723C83.2426 41.8277 83.2855 41.6394 83.339 41.5075C83.4419 41.2503 83.707 40.9556 84.1343 40.6232L84.5675 40.285C84.7099 40.1781 84.8247 40.0614 84.9117 39.9348C85.07 39.7172 85.1491 39.4778 85.1491 39.2167C85.1491 38.916 85.0601 38.643 84.882 38.3977C84.708 38.1485 84.3875 38.0239 83.9206 38.0239C83.4617 38.0239 83.1353 38.1762 82.9414 38.4808C82.9118 38.5283 82.8845 38.5761 82.8595 38.6242C82.6457 39.0356 82.2807 39.4304 81.8171 39.4304C81.3395 39.4304 80.944 39.0273 81.0617 38.5646C81.2351 37.883 81.5887 37.3725 82.1224 37.0328C82.5893 36.7321 83.163 36.5817 83.8435 36.5817C84.7376 36.5817 85.4795 36.7954 86.069 37.2227C86.6624 37.65 86.9592 38.283 86.9592 39.1218C86.9592 39.6361 86.8306 40.0693 86.5734 40.4215C86.4231 40.6351 86.1343 40.9081 85.707 41.2404L85.2856 41.5668C85.0561 41.7449 84.9038 41.9526 84.8286 42.19ZM84.8761 44.5609C84.8761 45.0345 84.4922 45.4184 84.0186 45.4184H83.9651C83.4915 45.4184 83.1076 45.0345 83.1076 44.5609C83.1076 44.0872 83.4915 43.7033 83.9651 43.7033H84.0186C84.4922 43.7033 84.8761 44.0872 84.8761 44.5609Z" fill="white"/>
<defs>
<filter id="filter0_d_4725_4526" x="0" y="0" width="168" height="118" filterUnits="userSpaceOnUse" color-interpolation-filters="sRGB">
<feFlood flood-opacity="0" result="BackgroundImageFix"/>
<feColorMatrix in="SourceAlpha" type="matrix" values="0 0 0 0 0 0 0 0 0 0 0 0 0 0 0 0 0 0 127 0" result="hardAlpha"/>
<feMorphology radius="4" operator="dilate" in="SourceAlpha" result="effect1_dropShadow_4725_4526"/>
<feOffset dy="4"/>
<feGaussianBlur stdDeviation="5"/>
<feComposite in2="hardAlpha" operator="out"/>
<feColorMatrix type="matrix" values="0 0 0 0 0 0 0 0 0 0 0 0 0 0 0 0 0 0 0.15 0"/>
<feBlend mode="normal" in2="BackgroundImageFix" result="effect1_dropShadow_4725_4526"/>
<feBlend mode="normal" in="SourceGraphic" in2="effect1_dropShadow_4725_4526" result="shape"/>
</filter>
</defs>
</svg>
