<svg width="31" height="31" viewBox="0 0 31 31" fill="none" xmlns="http://www.w3.org/2000/svg">
<path d="M15.0602 0C17.0574 0 18.9727 0.793349 20.3848 2.20552C21.797 3.61769 22.5904 5.53301 22.5904 7.53012C22.5904 9.52723 21.797 11.4425 20.3848 12.8547C18.9727 14.2669 17.0574 15.0602 15.0602 15.0602C13.0631 15.0602 11.1478 14.2669 9.73564 12.8547C8.32347 11.4425 7.53012 9.52723 7.53012 7.53012C7.53012 5.53301 8.32347 3.61769 9.73564 2.20552C11.1478 0.793349 13.0631 0 15.0602 0ZM15.0602 3.76506C14.0617 3.76506 13.104 4.16174 12.3979 4.86782C11.6919 5.57391 11.2952 6.53156 11.2952 7.53012C11.2952 8.52868 11.6919 9.48633 12.3979 10.1924C13.104 10.8985 14.0617 11.2952 15.0602 11.2952C16.0588 11.2952 17.0165 10.8985 17.7225 10.1924C18.4286 9.48633 18.8253 8.52868 18.8253 7.53012C18.8253 6.53156 18.4286 5.57391 17.7225 4.86782C17.0165 4.16174 16.0588 3.76506 15.0602 3.76506ZM15.0602 16.9428C20.0866 16.9428 30.1205 19.4465 30.1205 24.4729V30.1205H0V24.4729C0 19.4465 10.0339 16.9428 15.0602 16.9428ZM15.0602 20.5196C9.46913 20.5196 3.57681 23.2681 3.57681 24.4729V26.5437H26.5437V24.4729C26.5437 23.2681 20.6514 20.5196 15.0602 20.5196Z" fill="#757575"/>
</svg>
