<svg width="19" height="20" viewBox="0 0 19 20" fill="none" xmlns="http://www.w3.org/2000/svg">
<path d="M9.375 0C4.1875 0 0 4.1875 0 9.375C0 11.5 0.6875 13.5 2 15.125L0.6875 19.125C0.625 19.375 0.6875 19.625 0.875 19.8125C0.9375 19.9375 1.125 20 1.25 20C1.3125 20 1.4375 20 1.5 19.9375L5.8125 18C6.9375 18.5 8.125 18.75 9.375 18.75C14.5625 18.75 18.75 14.5625 18.75 9.375C18.75 4.1875 14.5625 0 9.375 0ZM14.8125 12.8125C14.5625 13.5625 13.625 14.1875 12.8125 14.3125C12.625 14.375 12.4375 14.375 12.1875 14.375C11.6875 14.375 10.9375 14.25 9.625 13.6875C8.125 13.0625 6.625 11.75 5.4375 10.0625V10C5.0625 9.4375 4.375 8.375 4.375 7.25C4.375 5.875 5.0625 5.1875 5.3125 4.875C5.625 4.5625 6.0625 4.375 6.5625 4.375C6.6875 4.375 6.75 4.375 6.875 4.375C7.3125 4.375 7.625 4.5 7.9375 5.125L8.1875 5.625C8.375 6.125 8.625 6.6875 8.6875 6.75C8.875 7.125 8.875 7.4375 8.6875 7.75C8.625 7.9375 8.5 8.0625 8.375 8.1875C8.3125 8.3125 8.25 8.375 8.1875 8.375C8.125 8.4375 8.125 8.4375 8.0625 8.5C8.25 8.8125 8.625 9.375 9.125 9.8125C9.875 10.5 10.4375 10.6875 10.75 10.8125C10.875 10.6875 11 10.4375 11.1875 10.25L11.25 10.125C11.5625 9.6875 12.0625 9.5625 12.5625 9.75C12.8125 9.875 14.1875 10.5 14.1875 10.5L14.3125 10.5625C14.5 10.6875 14.75 10.75 14.875 11C15.125 11.5625 14.9375 12.375 14.8125 12.8125Z" fill="#757575"/>
</svg>
