<svg width="490" height="286" viewBox="0 0 490 286" fill="none" xmlns="http://www.w3.org/2000/svg">
<path d="M175.421 8.36011L167.187 10.4538L165.423 14.9205L163.51 13.7629L158.364 16.7681L160.423 18.9463L157.483 21.7579L149.542 23.3819L150.276 27.3522L154.835 28.3193L148.364 29.7048L150.717 35.145L160.274 36.1485L159.539 50.7317L161.892 53.0843L158.804 55.5578V58.5245H162.921L159.98 63.524L157.04 65.1416L158.952 77.7862L161.892 81.9405L166.156 85.3233L173.508 70.8771L180.125 68.9653L184.537 64.1113L196.742 59.1964L189.977 58.3769L191.154 53.9648L194.536 57.9351L196.741 58.2293V54.4067L193.653 49.2607L197.477 49.5549L199.829 47.4954L201.005 39.8492L199.534 37.2034L202.696 37.6431L203.358 34.9974L201.005 33.3348L212.474 18.0134L208.101 14.974L198.606 21.039L202.697 14.9194L198.606 16.7381L199.242 14.9194L192.235 15.6362L204.977 11.8864L201.743 9.23953L200.271 8.35797L192.235 9.23953L199.976 6.76389L191.447 4.82959L188.066 6.76389L184.537 6.17547L180.419 8.35797C180.419 8.35797 183.066 13.4055 182.624 13.7607C182.182 14.1159 179.536 13.7607 179.536 13.7607L178.802 8.35797L177.037 12.4384L174.243 12.3271L175.419 8.35904L175.421 8.36011Z" fill="#E30A13"/>
<path d="M286.733 206.083H286.144V207.185H286.733V206.083Z" fill="#E30A13"/>
<path d="M305.112 196.01H304.525V196.892H305.407L305.112 196.01Z" fill="#E30A13"/>
<path d="M307.612 219.537H306.802V220.273L307.207 220.565L307.612 219.537Z" fill="#E30A13"/>
<path d="M304.525 220.565H303.495V221.669H304.525V220.565Z" fill="#E30A13"/>
<path d="M289.525 208.067H288.79V208.949H289.525V208.067Z" fill="#E30A13"/>
<path d="M98.1506 155.427L101.237 154.912L102.856 154.324L104.253 154.912L107.268 155.942L107.708 156.971L109.693 157.56L108.59 158.807H109.032L110.944 158.441L112.414 158.807L113.958 158.001L111.457 156.567L108.37 154.912H106.532L105.503 153.662H103.665L102.562 153.074L100.651 153.59L98.8129 154.25L98.1506 155.427Z" fill="#E30A13"/>
<path d="M110.796 161.676L109.767 160.573L107.193 161.125L108.518 162.044H109.693L110.796 161.676Z" fill="#E30A13"/>
<path d="M123.516 161.307V162.044H126.015L126.309 160.573L123.516 161.307Z" fill="#E30A13"/>
<path d="M133.22 172.335H131.676V174.101H132.448L133.22 172.335Z" fill="#E30A13"/>
<path d="M107.781 147.264L108.15 148.182L109.473 147.264V146.603L107.781 147.264Z" fill="#E30A13"/>
<path d="M108.995 149.912L108.296 150.94L108.995 151.382V152.706L109.914 152.339L109.473 151.31L108.995 149.912Z" fill="#E30A13"/>
<path d="M110.354 146.971L109.914 147.392V149.104L110.796 148.515L110.354 146.971Z" fill="#E30A13"/>
<path d="M112.046 150.721V152.043H112.855L112.046 150.721Z" fill="#E30A13"/>
<path d="M114.693 153.59H113.958V154.912H114.693V153.59Z" fill="#E30A13"/>
<path d="M115.87 156.382H114.693L114.326 157.117H115.575L115.87 156.382Z" fill="#E30A13"/>
<path d="M112.855 152.706H112.046L113.149 154.25L112.855 152.706Z" fill="#E30A13"/>
<path d="M135.353 168.807H134.69L135.353 169.616L135.793 169.212L135.353 168.807Z" fill="#E30A13"/>
<path d="M132.448 170.057H131.676V171.013H132.448V170.057Z" fill="#E30A13"/>
<path d="M133.22 167.778L132.448 168.365L132.834 168.807L133.22 167.778Z" fill="#E30A13"/>
<path d="M132.062 166.307L132.834 167.41L133.22 167.116L132.834 166.307H132.062Z" fill="#E30A13"/>
<path d="M131.676 164.249V165.132L132.448 164.69L132.062 163.954L131.676 164.249Z" fill="#E30A13"/>
<path d="M133.22 163.515L132.641 163.954L132.931 164.544L133.22 163.515Z" fill="#E30A13"/>
<path d="M130.279 161.308L129.617 162.044L130.279 162.705V161.308Z" fill="#E30A13"/>
<path d="M132.062 161.602L131.161 162.006L131.676 162.705L132.062 161.602Z" fill="#E30A13"/>
<path d="M116.973 158.807L115.355 158.441L114.914 158.807L115.942 159.471L116.531 160.573H114.987H113.149L113.958 161.676H116.861L117.646 158.539L116.973 158.807Z" fill="#E30A13"/>
<path d="M120.648 159.471L119.692 158.807L117.891 158.441L117.646 158.539L116.861 161.676H116.899L117.634 162.705L118.957 161.308H122.191L122.633 160.573L120.648 159.471Z" fill="#E30A13"/>
<path d="M99.106 172.188L100.283 166.123L99.902 165.98L93.2057 170.016L94.9892 171.601L95.3037 172.335H99.2312L99.106 172.188Z" fill="#E30A13"/>
<path d="M99.2312 172.335H95.3037L96.3126 174.688L99.5468 176.6L100.133 176.838L101.133 174.574L99.2312 172.335Z" fill="#E30A13"/>
<path d="M89.5854 164.544L88.5198 162.006L90.8724 162.154L93.6679 161.522L93.8124 161.013L95.8718 156.015L94.8426 155.28L90.4305 156.602L87.9314 161.013L83.2251 160.72L79.549 156.455L80.7805 149.16L78.2267 148.038L75.6141 142.046L72.6389 143.074L68.8163 138.492H62.1992L56.3171 135.723L52.808 135.266L53.6703 138.859L55.8753 144.251H53.9645L56.9056 146.899L58.8174 150.574L61.6097 153.81L62.3458 152.339L60.1397 149.03L58.8174 144.84L56.3171 141.457V138.124L58.8174 138.492L60.4339 144.251L63.5216 146.899L67.4918 155.28L66.4626 158.22L76.0207 163.854L80.8735 165.884L83.3727 164.58L86.3298 166.976L87.2702 164.544H89.5854Z" fill="#E30A13"/>
<path d="M90.8724 162.153L88.5198 162.006L89.5854 164.544H87.2702L86.3298 166.975L88.2256 168.513L89.7416 168.783L91.7422 166.7L91.1859 162.082L90.8724 162.153Z" fill="#E30A13"/>
<path d="M92.49 165.646L93.6679 161.522L91.1859 162.082L91.7422 166.701L92.857 165.539L92.49 165.646Z" fill="#E30A13"/>
<path d="M89.7416 168.783L92.3424 169.248L93.2058 170.016L95.1326 168.854L91.2233 167.241L89.7416 168.783Z" fill="#E30A13"/>
<path d="M96.166 164.58L92.857 165.539L91.2233 167.241L95.1326 168.854L99.902 165.981L96.166 164.58Z" fill="#E30A13"/>
<path d="M119.747 186.967L123.516 186.599L122.633 179.688L115.87 177.851L115.398 173.218L117.902 170.575L117.341 170.132L110.722 173.218L109.253 176.306L106.017 174.247L101.605 175.13L101.133 174.574L100.133 176.839L103.517 178.216L104.4 176.894L106.017 175.277L107.046 176.747L108.518 182.04L105.559 187.113L119.25 195.128L119.747 186.967Z" fill="#E30A13"/>
<path d="M111.601 190.649L105.559 187.113L105.43 187.335L102.782 191.892L104.107 194.392L103.272 195.115L105.943 197.186L111.601 190.649Z" fill="#E30A13"/>
<path d="M118.516 203.878L114.693 203.068L113.848 199.098L116.861 196.01H119.178L119.038 195.003L111.601 190.649L105.943 197.186L103.272 195.115L101.899 196.303L105.576 201.156L110.134 210.567L114.987 214.244L118.969 217.812L120.869 216.155V206.817L118.516 203.878Z" fill="#E30A13"/>
<path d="M128.588 185.718L127.412 182.997L133.22 181.674L132.448 179.909L134.131 176.709L129.984 173.806L130.574 172.335H120.133L117.902 170.574L115.398 173.218L115.87 177.851L122.633 179.687L123.516 186.599L123.443 186.606L125.574 188.363L128.588 185.718Z" fill="#E30A13"/>
<path d="M134.69 186.231L136.087 187.777L139.617 186.085L137.41 182.004L138.504 180.276H138.366L134.396 176.894L134.131 176.709L132.448 179.909L133.22 181.674L132.999 181.723L134.69 183.144V186.231Z" fill="#E30A13"/>
<path d="M140.425 185.055L142.777 185.754L143.218 183.438L142.411 181.527L143.281 180.276H138.504L137.41 182.004L139.617 186.085L139.558 186.112L140.425 186.452V185.055Z" fill="#E30A13"/>
<path d="M144.101 186.452L146.244 183.62L143.66 180.276H143.281L142.41 181.527L143.218 183.438L142.777 185.754L142.563 185.688L142.999 186.452H144.101Z" fill="#E30A13"/>
<path d="M122.265 220.418L124.103 224.904L125.867 223.139H131.382L132.19 219.684L135.867 218.728L137.558 219.684L138.734 217.812L137.044 214.023L134.47 213.655L133.735 210.2L127.412 207.627L126.235 204.232L120.761 206.682L120.869 206.817V216.155L120.705 216.298L122.191 218.581L122.265 220.418Z" fill="#E30A13"/>
<path d="M125.647 278.648L124.913 275.265L123.368 275.781L123.001 272.325L124.03 271.737L123.809 262.546L122.045 257.401L122.486 251.519L122.045 246.299L122.854 242.401L121.53 238.431L122.265 233.862L123.442 231.226L123.148 227.55L125.06 224.904L124.683 224.325L124.103 224.904L122.265 220.418L122.191 218.581L120.705 216.298L118.969 217.812L119.25 218.067L119.397 237.328L118.369 250.122L118.957 255.709L120.869 258.062L120.427 262.62L119.839 265.856L118.369 267.472L119.692 270.119L121.163 276.664L124.987 282.617L130.132 286H134.103L134.841 285.209L130.353 278.648H125.647Z" fill="#E30A13"/>
<path d="M138.734 228.066V229.903L137.778 231.667H141.821L144.027 225.714L142.189 226.007L141.455 223.066L138.734 223.212L137.666 219.514L137.558 219.684L135.867 218.728L132.19 219.684L131.409 223.026L133.882 225.786L138.734 228.066Z" fill="#E30A13"/>
<path d="M138.734 242.181L139.564 243.199L145.572 244.974L147.645 241.303L139.984 236.08L138.734 242.181Z" fill="#E30A13"/>
<path d="M145.057 230.932V229.167L143.183 227.993L141.821 231.667H137.778L138.734 229.903V228.066L133.882 225.786L131.409 223.026L131.382 223.138H125.867L124.683 224.325L125.06 224.904L123.148 227.549L123.442 231.225L122.265 233.862L121.53 238.431L122.854 242.401L122.045 246.299L122.486 251.518L122.045 257.401L123.809 262.545L124.03 271.737L123.001 272.325L123.368 275.781L124.913 275.265L125.647 278.648H130.353L134.841 285.208L136.16 283.795L129.104 276L132.632 268.062L129.104 266.002L131.749 263.651L133.661 258.062L131.308 255.709L134.838 256.443V252.033L141.455 250.71L142.337 246.739L139.101 243.062L139.564 243.199L138.734 242.181L139.984 236.079L140.302 236.296L141.161 234.535L145.057 230.932Z" fill="#E30A13"/>
<path d="M170.421 196.892L160.275 192.774L152.776 190.789L148.218 188.805L148.66 186.746L146.244 183.62L144.101 186.452H142.999L142.563 185.688L140.425 185.055V186.452L139.558 186.112L136.087 187.777L134.69 186.231V183.144L132.999 181.723L127.412 182.997L128.588 185.718L125.574 188.363L123.443 186.606L119.747 186.967L119.25 195.128L119.038 195.003L119.178 196.01H116.861L113.848 199.098L114.693 203.068L118.516 203.878L120.761 206.682L126.235 204.232L127.412 207.627L133.735 210.2L134.47 213.655L137.044 214.023L138.734 217.812L137.666 219.514L138.734 223.212L141.455 223.066L142.189 226.007L144.027 225.714L143.183 227.994L145.057 229.167V230.932L141.161 234.535L140.302 236.296L147.645 241.303L152.63 232.476V229.094L162.334 223.948L165.57 216.008V208.508L172.039 200.42L170.421 196.892Z" fill="#E30A13"/>
<path d="M47.3475 69.7011L44.0395 71.4653L40.4362 66.6124L57.3667 36.3024L57.1998 36.1494L54.8461 33.3817L49.1128 29.8522H47.4941L46.466 26.4693L43.2307 23.8225L35.8787 25.4412L28.8208 29.5591L26.174 28.6764L24.2622 31.0291L24.9982 37.0577L27.644 39.9976L24.2622 41.3221L21.9085 40.2919L23.5272 38.8219L21.9085 37.645L14.9972 39.7034L15.5867 45.0763L17.7917 46.0263L22.7911 45.0763L20.8804 49.4092L14.2633 50.4384L9.41045 54.4086V60.2896L12.3515 60.878L11.3212 65.289L15.1449 66.4648H16.6159L10.7339 72.0537L0 76.3171L1.32341 77.0521L6.17628 76.1705L17.9393 69.7011L23.0853 67.1998L21.3211 65.1425L25.438 62.7898L28.6732 61.7596L25.2914 66.9066L29.849 65.289L31.3189 62.4956L35.4368 64.9948L41.9062 69.7011L44.5541 77.7871L46.895 85.2868L49.5525 83.1556L47.3475 69.7011Z" fill="#E30A13"/>
<path d="M126.781 110.578L122.839 113.813L116.245 116.215L116.31 116.459L115.134 117.562L113.664 117.01L111.752 117.562V117.56L111.233 118.396L111.752 118.812L106.164 121.311L105.061 119.989L106.459 119.769L107.051 119.297L107.471 116.9H107.268L106.606 115.431L105.797 116.313C105.797 116.313 105.283 115.725 105.062 115.725C104.843 115.725 106.165 114.475 106.165 114.475L106.607 113.078L104.475 112.268L103.005 113.151L102.048 114.915L101.828 117.636L99.7693 119.989L99.0354 119.034L100.47 115.063L99.9908 113.593L101.903 111.461H106.093L104.844 109.99L102.49 110.578L100.8 109.549L101.239 108.151L96.7556 109.915L94.8437 108.739L98.3047 106.955L93.2261 104.476L52.9867 100.667L53.3772 101.314L49.8478 101.608L49.1139 108.667L46.3205 116.165V123.37L48.5254 130.65L52.4957 133.959L52.8091 135.266L56.3183 135.724L62.2003 138.493H68.8174L72.64 143.075L75.6152 142.046L78.2278 148.039L80.7816 149.161L81.6086 144.252L87.0488 142.34L90.8724 143.223L92.6366 142.34L92.3424 141.163L100.135 141.899L102.488 143.223L102.341 146.311L104.253 150.722L105.87 149.841L106.164 146.262L104.988 138.86L112.781 133.573L114.104 126.11L114.292 125.932L114.987 128.813L116.31 126.681L115.804 124.487L116.078 124.225L116.31 125.799L118.295 123.299L118.021 122.374L118.516 121.903L123.662 120.359L124.104 117.197L129.176 114.856V110.58H126.781V110.578Z" fill="#E30A13"/>
<path d="M42.6423 85.324L45.4357 85.9851L44.0395 91.895L42.6423 89.7714V85.324Z" fill="#E30A13"/>
<path d="M46.6125 94.9548L46.0241 96.3521L48.9651 99.6975L50.5817 100.579C51.169 99.6975 48.3029 96.3521 48.3029 96.3521L46.6125 94.9548Z" fill="#E30A13"/>
<path d="M79.6967 33.3366L82.4901 37.4983L89.2548 32.6466L95.5766 31.903L94.5484 26.7634L86.9022 25.3972L86.0195 28.3201L79.6967 33.3366Z" fill="#E30A13"/>
<path d="M95.5765 33.3367H90.5782L87.0487 36.1493C87.0487 36.1493 86.7556 37.0576 87.0487 37.4984C87.3429 37.9392 91.249 38.2334 91.249 38.2334L86.0206 39.238V41.3221H90.7996L92.6376 44.4097L86.0217 42.3513L85.2878 44.4097L87.6393 46.3215V49.851H91.9037L96.9042 47.0576L98.2266 50.587H102.197L101.169 47.9402L103.962 48.9705V46.7633L102.344 42.6465L104.55 36.1515L102.639 33.3388L99.4034 40.5881L99.9918 35.2956L95.5808 33.3388L95.5765 33.3367Z" fill="#E30A13"/>
<path d="M114.987 33.3367C114.545 33.5282 111.017 34.8516 111.017 34.8516C111.017 34.8516 106.606 37.2042 106.9 37.4984C107.193 37.7915 110.134 45.0762 110.134 45.0762L113.517 41.9608L114.988 37.4984V33.3367H114.987Z" fill="#E30A13"/>
<path d="M123.221 36.1492L118.222 34.7039L114.987 40.1441L115.87 41.9607L117.927 39.2379L119.104 40.8801L123.221 36.1492Z" fill="#E30A13"/>
<path d="M102.93 19.2647C102.488 19.1181 96.1661 24.1165 96.6068 23.8223C97.0487 23.5281 99.7565 28.3199 99.7565 28.3199L106.885 27.3528L108.811 28.3199L112.192 23.7912L109.106 23.8233L110.282 19.2615H108.223L106.311 24.5701L104.389 23.8223L102.93 19.2647Z" fill="#E30A13"/>
<path d="M104.389 13.9714H101.605L93.96 17.3543L95.5766 20.4408L102.488 18.0155L104.389 13.9714Z" fill="#E30A13"/>
<path d="M112.192 13.9712L106.885 13.2373L107.487 17.2075H110.282L112.192 13.9712Z" fill="#E30A13"/>
<path d="M114.987 10.1487L114.4 13.9713L110.282 12.0594L114.987 10.1487Z" fill="#E30A13"/>
<path d="M113.958 22.4756V26.9112H116.457L114.987 30.5252H117.341L121.31 23.7904L117.634 22.4756V25.3974L114.987 24.5704L113.958 22.4756Z" fill="#E30A13"/>
<path d="M121.31 10.1487L118.222 15.2219H121.31L120.575 20.4407H123.221L125.28 13.9713L121.31 10.1487Z" fill="#E30A13"/>
<path d="M128.662 18.0153L126.457 15.2219L125.28 19.2617L126.971 20.4407L128.662 18.0153Z" fill="#E30A13"/>
<path d="M128.662 22.4755L124.545 20.4407V22.4755L126.971 23.8225L128.662 22.4755Z" fill="#E30A13"/>
<path d="M122.633 22.4756V26.5004L125.28 27.2054L124.545 30.5252L123.221 33.3368L126.603 35.4401L133.515 36.7635L137.044 36.1494V31.9031L133.073 31.4474L126.603 29.619L128.221 26.5004L125.28 24.5704L122.633 22.4756Z" fill="#E30A13"/>
<path d="M122.633 29.6189L121.31 33.3366L119.104 31.4473L120.869 28.3201L122.633 29.6189Z" fill="#E30A13"/>
<path d="M108.223 48.6743L109.539 52.6446L108.223 53.9669L104.547 51.3211L108.223 48.6743Z" fill="#E30A13"/>
<path d="M129.25 38.333H125.28L119.839 45.0763L119.104 49.4092L124.545 52.055L129.25 53.2318L131.014 50.585L132.632 55.4379L135.72 59.9954L132.19 64.8483L131.308 67.0533L126.971 65.7299L125.28 69.7012H129.25L132.338 71.4653L133.955 74.5529L138.808 77.7871L137.044 72.7888L140.867 75.4356L142.189 72.2003L139.248 66.1706L141.161 64.8483L143.807 70.5827L148.365 64.7007L141.748 58.9662L144.395 56.7613L142.042 51.321L138.514 47.4974L137.044 45.0763H131.749L132.779 39.2381L128.662 40.1443L126.971 41.9609L125.28 47.7916L124.545 45.0763L126.603 40.5861L129.25 38.333Z" fill="#E30A13"/>
<path d="M133.735 39.238V43.5271H137.925L137.044 40.2918L133.735 39.238Z" fill="#E30A13"/>
<path d="M133.735 59.4081L132.044 58.0601L129.25 59.4081L129.838 62.2015L133.735 59.4081Z" fill="#E30A13"/>
<path d="M117.634 64.4062L114.987 68.0833L113.958 70.436L115.796 72.0536L119.104 69.701L121.31 71.172L122.633 68.2299L117.634 64.4062Z" fill="#E30A13"/>
<path d="M129.838 28.3201L133.735 29.6189L137.925 30.5251L142.043 28.3191L141.309 26.4992L145.866 24.5692L149.69 20.4407L148.366 18.0142H153.366L157.777 13.9702L164.394 12.0583C164.394 12.0583 164.54 9.70572 164.394 10.1465C164.246 10.5884 169.247 8.0881 169.247 8.0881L168.07 4.82933L163.365 1.76419L156.455 0L147.192 1.61762L140.574 3.82259L139.985 9.1173L145.72 12.0573L144.985 13.2341L139.543 10.1454L138.662 4.82826H137.044L132.926 9.26387L131.493 13.968L133.735 15.2925H130.721L130.427 20.4385H133.736L135.831 21.4677L131.494 25.3941L129.839 28.3169L129.838 28.3201Z" fill="#E30A13"/>
<path d="M104.389 32.499L105.43 35.4401L108.076 33.969V32.499H104.389Z" fill="#E30A13"/>
<path d="M147.41 102.196L145.792 102.784L143.808 105.707L141.088 109.769L141.822 110.393H143.441L146.014 109.988L147.411 110.393L145.058 111.9L146.16 112.561L148.365 110.393L147.777 111.68L149.468 112.561C149.468 112.561 150.792 109.695 150.571 109.695C150.351 109.695 148.954 109.18 148.954 109.18L149.396 106.311H145.842V105.136L147.41 102.195V102.196Z" fill="#E30A13"/>
<path d="M146.455 96.9578L143.66 94.955L140.426 91.1699L142.19 89.7716L138.956 80.9121L136.015 86.1694L132.485 84.847L133.074 79.4068L130.869 77.7881L129.84 74.9958L123.811 73.7451L122.341 80.9132L119.989 84.6641L121.753 89.0387L120.283 91.6128L116.166 92.9715L116.314 99.6987L113.226 100.58L111.901 97.5665L113.52 92.3093L109.403 91.6117L103.521 85.9864L100.14 87.1269L101.17 80.9132L99.2569 80.7302L106.904 71.1732L110.873 68.3787L115.873 65.7319L117.785 63.2328L123.078 61.7617L124.696 59.7033L124.107 56.4691H125.799L126.902 54.4107L122.932 52.0581L121.462 54.5584L117.786 59.117L117.198 56.0283L117.639 52.0581L115.14 54.9991L114.553 52.0581L116.023 48.5297L115.288 42.6477L111.024 45.0795C111.024 45.0795 109.112 48.9716 109.554 49.2658C109.994 49.56 111.906 51.6173 111.906 51.6173L109.994 55.1468L107.347 58.0867L106.025 53.3826L103.23 55.2944L98.3785 54.1176L97.0562 50.295H93.5267L92.0557 54.5594L90.5857 52.0592L86.027 52.2068L84.1152 50.4426L86.4678 50.0008L85.7318 46.4713L79.5566 42.2069L76.9108 43.3837L74.7048 42.2069V36.9143L62.058 40.5903L57.3731 36.3066L40.4427 66.6167L44.0459 71.4706L47.3539 69.7064L49.5589 83.1599L46.9014 85.2921L46.9121 85.3285L48.6773 93.5268L52.9921 100.672L93.2315 104.481L98.31 106.96L101.833 105.142L103.304 105.584L105.363 107.422L105.657 110.068L110.215 111.76L111.759 114.077L110.51 115.068L108.892 113.526L108.451 116.906H107.48L107.059 119.304L108.416 118.229L109.555 118.599L111.025 118.229L111.241 118.402L111.759 117.566L111.025 116.466L113.672 115.804L114.481 116.318L114.923 115.51L115.952 115.068L116.255 116.221L122.848 113.819L126.791 110.583H129.186V114.86L129.848 114.554L130.437 117.495L133.819 115.436L139.847 112.862L139.113 111.501L136.466 112.862L133.379 112.274L132.496 109.205L135.144 107.9L133.38 105.805L125.806 110.143L130.291 105.805L132.79 103.966L140.437 104.482L144.995 102.791L147.347 100.586L146.465 96.9642L146.455 96.9578ZM79.4025 77.7871L78.5948 79.3319L75.7275 78.8911V78.2278L77.7859 78.3755L78.6686 76.9782L80.8008 76.3898L83.2262 77.7871H79.4025ZM87.0851 79.9931C87.1953 79.9203 88.5605 79.9931 88.5605 79.9931L87.0851 82.8614C87.0851 82.8614 86.4614 82.6399 86.3876 82.4934C86.3138 82.3457 86.976 80.0669 87.0851 79.9931ZM87.0851 85.3242V83.8157L89.0333 81.8322L90.2102 83.3032L88.1518 83.7451V85.3253L86.0195 86.9792L85.6515 85.95L87.0851 85.3242ZM87.9314 96.6465L86.8647 98.3732L86.1672 97.987L87.1964 95.7275L85.7992 95.5798V94.8438H87.9314V96.6465ZM88.1518 101.314C88.0041 101.314 88.1518 98.1528 88.1518 98.1528L88.7402 97.7666L88.5605 99.5393L89.0333 100.946C89.0333 100.946 88.2984 101.314 88.1518 101.314ZM90.5044 101.314V97.4168H89.6956L89.1082 95.7264L89.6956 94.6223H88.1518L86.3876 93.1523L86.9022 91.5347H88.5562L88.2256 93.2261L88.8878 93.96L89.7694 92.4901L91.0928 93.0785V97.0477L91.6801 100.576L90.5044 101.312V101.314ZM119.104 107.049L120.281 106.313L120.943 107.711L119.104 107.049ZM123.883 102.196L121.75 103.115V102.196L123.883 101.314V102.196ZM129.691 96.3876L128.515 95.4332L129.546 93.8156L130.868 94.6234L129.691 96.3876ZM138.146 96.977H135.573L135.867 99.5415L134.25 96.3886L135.132 95.4343L138.146 95.8013V96.977Z" fill="#E30A13"/>
<path d="M415.059 83.5686L413.736 85.7736L415.059 89.9642L416.934 91.7295L418.478 98.2352L419.913 101.764L420.904 104.521L421.345 102.425L422.889 103.528V101.985L420.464 100.33L419.802 96.0292L422.227 97.022L420.243 94.0436L417.596 89.6325L416.824 87.5378L415.059 83.5686Z" fill="#E30A13"/>
<path d="M427.741 106.836H428.846L431.05 104.521V103.087L428.734 104.521L427.741 106.836Z" fill="#E30A13"/>
<path d="M431.931 103.749L433.256 101.654L432.595 100.992L431.491 103.749H431.931Z" fill="#E30A13"/>
<path d="M238.728 39.238L240.603 30.6353L242.588 29.9741L238.728 26.0039L237.076 24.5703L236.192 25.1213L236.634 29.4221L235.309 25.7835L234.098 25.3417L231.559 27.1069L234.098 31.2976L234.868 32.5108L235.972 31.9031L235.641 30.1956L238.619 31.9031L234.868 33.2821L236.412 36.5912L238.728 39.238Z" fill="#E30A13"/>
<path d="M243.25 30.5254H241.595L242.424 32.3998L242.588 35.5986L244.464 34.2752V36.1496L246.48 33.337L244.037 32.8416V31.5182L242.588 31.9034L243.25 30.5254Z" fill="#E30A13"/>
<path d="M241.595 22.4756H239.39L238.287 24.5704L239.942 26.004L242.036 25.453L240.162 26.6662L242.036 27.7692L244.037 28.3202L246.48 27.2172L246.976 23.5775L244.037 22.4756L242.631 24.0183L241.595 23.5775V22.4756Z" fill="#E30A13"/>
<path d="M262.107 19.3892L264.676 20.3788L265.084 18.0155H266.219L265.525 16.7402H264.163L262.107 19.3892Z" fill="#E30A13"/>
<path d="M265.415 21.5931L266.959 22.4757L267.763 20.3788L269.165 18.5601L267.29 16.7402L266.219 18.5601L265.415 21.5931Z" fill="#E30A13"/>
<path d="M270.929 20.3787L272.915 19.6074L274.457 20.3787L275.56 19.9947L276.663 18.56L274.79 17.5137L273.245 18.56L270.487 18.0154L270.929 20.3787Z" fill="#E30A13"/>
<path d="M277.987 14.9758L276.001 15.7483L276.663 18.5598L278.537 17.5135L277.271 16.2992L278.537 15.7483L277.987 14.9758Z" fill="#E30A13"/>
<path d="M279.53 11.8894H277.987V13.7638L279.53 15.6392L280.522 13.7638L279.53 11.8894Z" fill="#E30A13"/>
<path d="M273.576 12.3291H271.811V13.7638L270.819 14.9759V16.7401L272.198 17.5136H273.576L274.79 15.6392L272.804 13.7638L273.576 12.3291Z" fill="#E30A13"/>
<path d="M277.987 19.6074L277.271 18.9473L276.001 20.3787L276.994 21.042L277.987 19.6074Z" fill="#E30A13"/>
<path d="M269.165 21.0422H268.172L269.165 22.4758L270.487 21.759L269.165 21.0422Z" fill="#E30A13"/>
<path d="M273.576 10.4548H271.811L272.693 11.8895H273.576V10.4548Z" fill="#E30A13"/>
<path d="M306.88 4.83154L305.114 8.47119L305.997 11.1715L309.416 11.8894L311.511 9.02216L306.88 4.83154Z" fill="#E30A13"/>
<path d="M312.944 9.24268L310.297 12.3292V14.2047L312.944 15.3077L316.915 15.6393L318.018 14.3149L315.371 10.4548L312.944 9.24268Z" fill="#E30A13"/>
<path d="M318.789 11.1716V13.7639L320.002 18.5601L320.994 18.9473L322.758 16.7402L324.524 15.0595L323.896 13.7639L318.789 11.1716Z" fill="#E30A13"/>
<path d="M380.763 11.1716V13.2118H377.235L375.36 11.8895L377.014 11.1716H380.763Z" fill="#E30A13"/>
<path d="M375.36 19.6074L374.368 22.4757H378.669V20.3788L375.36 19.6074Z" fill="#E30A13"/>
<path d="M373.156 11.8895L367.971 11.1716V13.7639L364.664 11.1716L363.452 13.7639L365.657 16.7691L369.406 18.5601L372.382 15.6393L374.368 14.3149L373.156 11.8895Z" fill="#E30A13"/>
<path d="M291.22 30.5254L292.983 33.337L287.579 38.024L284.933 43.0973L283.391 49.1623L285.265 53.0223L288.187 54.3446L286.809 55.5589L282.839 54.8967L279.253 51.6978L280.521 49.9336V47.948L281.074 41.9953L280.521 39.7893L282.726 38.576L283.279 36.1496C283.279 36.1496 287.47 34.0548 287.579 34.0548C287.689 34.0548 289.455 31.9034 289.455 31.9034L291.219 30.5254H291.22Z" fill="#E30A13"/>
<path d="M280.522 59.6391L277.987 59.1973V60.7411L278.537 61.9532H280.522V59.6391Z" fill="#E30A13"/>
<path d="M299.821 42.1045L300.814 43.9799H298.94L298.167 43.0428L299.821 42.1045Z" fill="#E30A13"/>
<path d="M344.042 27.658L342.058 28.3202V29.8629H344.042V27.658Z" fill="#E30A13"/>
<path d="M439.656 39.851L440.759 38.9695L442.598 39.4113L443.258 35.0731L440.537 32.5001L441.272 31.1028L442.375 32.7943L443.845 33.1612L444.138 31.6174L445.903 31.5447L446.932 32.7943L451.05 31.6902L448.918 28.089L447.3 27.1326L449.212 25.0004L447.668 22.5012L444.286 21.9866L442.449 23.4576L444.36 26.0296H442.667L440.684 23.0896L432.303 21.9866L425.464 20.8836L418.553 22.4274L419.362 24.1916L421.789 26.1034L421.201 27.8676L419.583 26.7646L417.744 26.1034L416.348 24.6334L415.538 26.5452L410.025 27.8676L410.245 29.7067L408.481 28.5309L406.276 29.0444L405.172 26.1034L402.012 24.5596L397.527 26.6918L394.734 27.5006L394.513 26.3976L393.116 25.7354L392.16 26.618L389.659 25.148L389.88 23.6042L386.057 24.045L385.469 27.2802L384.954 24.7811L383.115 25.515L383.189 24.045L376.865 24.4868L378.704 26.0296L377.16 27.2802L378.704 27.721L379.954 29.8532L378.336 30.0009L378.409 31.9855L375.542 30.8097L374.219 31.3981L374.44 32.2797L372.236 32.2069L370.911 31.1039L371.941 35.8819L368.264 33.97L365.323 32.3535L367.086 31.9844L365.986 30.3678L364.882 30.5893L364.809 29.0455L360.84 27.3541L357.826 27.721L356.722 28.3833L358.119 30.662L354.37 31.7651L351.723 31.6174L351.797 29.7794L346.061 30.9563L343.931 31.8378L341.726 30.8824V33.1612L339.225 36.9838L338.932 34.4846L340.769 28.456L341.431 23.9712L337.019 20.8836L334.814 19.9271L332.314 21.104L331.432 23.1624L330.625 19.9271L327.536 20.8836L327.977 18.6048L325.55 18.0164L324.448 21.6186L327.094 24.8538L323.896 25.2218L325.846 27.5744L323.896 26.4704L322.242 28.089L321.361 27.4279L318.42 28.1618L319.743 28.824L315.921 31.5436L314.377 34.5574L314.523 36.6885L316.95 37.8654L315.847 38.6014L310.039 40.6598L311.803 44.1882L314.67 45.731L315.853 46.4221L316.433 46.7602L317.463 49.3342L316.215 50.5838L315.625 46.834H313.126L309.523 44.8483L308.569 46.0979L309.23 47.4951L307.244 46.834L308.421 49.1866L311.363 50.0681L306.951 49.5546L305.333 44.4803L304.378 44.4065L305.408 47.3475L304.23 48.3767L304.966 50.4351L306.951 51.9778L307.834 55.8742L308.788 56.7569L310.921 55.7277L314.008 57.4929L313.936 58.8163L312.758 58.0803L311.215 56.6831L309.452 58.1541L310.628 61.0951L309.819 63.8136L308.864 65.0643L307.467 64.5486L308.57 58.5949L306.509 56.5354L304.598 51.1701L303.202 49.9933L302.614 45.4346L298.495 45.1404L298.644 49.699L297.541 51.9778L299.966 56.6103L301.143 56.8307L303.055 58.4494L302.833 60.6544L298.937 58.2279L294.819 56.6841L292.247 56.7579L291.954 57.861L293.055 59.7728L291.878 61.0224L290.922 59.6979L286.951 61.0962L286.363 62.1243L284.82 62.1971L284.672 60.5067L279.6 64.1078L278.864 64.7712L278.643 66.7557L276.806 66.9772L275.555 65.213L277.025 64.0362L275.482 62.3447L272.983 62.1243L273.865 66.3139L274.894 66.6081L275.042 69.1822L272.541 68.3734L269.822 71.1678L271.292 73.0797L270.335 74.1078L266.659 72.3436L266.147 73.7398L268.498 74.769L267.542 75.872L264.969 74.6224L263.572 71.9017L263.792 69.8433L260.191 67.5646L260.778 67.2703L264.601 68.9618L267.689 69.9161L270.703 68.5199L271.071 66.1663L263.784 61.261L260.866 61.7017L258.353 60.8009L257.423 60.5024L255.634 62.3683L255.544 62.1522L255.072 63.4927L257.322 66.5054L256.637 68.0321L258.283 71.5679V73.4562L259.57 77.634L260.533 78.92L257.396 84.2543L259.013 85.6515L257.232 87.1472L257.802 90.6103L258.485 94.1868L257.08 95.5113L255.915 98.1485L253.142 99.5297L253.122 99.5072L253.866 101.659L253.252 102.663L253.38 103.444L254.817 103.709L256.481 103.185L259.37 103.868H263.104L263.347 102.884L264.875 102.663L265.196 102.102H267.326L267.566 103.37L268.29 104.11L269.093 103.908L270.379 106.077L272.397 105.555L273.031 106.279L276.165 106.977L276.528 107.789L275.924 108.152L276.285 109.775L276.165 110.578L274.959 110.94L274.646 112.013L275.264 111.824L274.822 113L273.941 115.28L272.985 115.206L273.058 115.94L274.748 116.898L277.689 119.031L279.968 120.794L279.711 122.125L282.174 122.594L283.055 123.346L285.051 123.091L285.836 122.471L287.864 123.091L287.21 121.898L287.603 121.46L289.173 122.594L290.743 121.434L288.496 118.001L286.878 116.898L287.613 114.325L289.012 113.883L290.032 113.04L288.643 111.971L285.835 109.325L285.687 106.09L286.437 105.061L288.254 106.457V104.767L290.552 102.414H292.559L296.162 104.104L299.705 103.369L302.242 104.104L305.147 103.811V102.414L303.449 101.017L304.007 98.738H305.146L303.448 97.2669L305.146 96.7523L311.927 94.1055L313.638 92.7083L316.358 93.0763L316.799 95.0609L321.945 96.089L324.592 94.1044L331.136 101.458L333.342 101.604L335.622 100.796L338.121 103.075L339.665 103.59L341.209 103.443L341.966 104.6L342.385 104.178L342.671 104.575L343.679 103.591L345.766 101.017L348.781 100.281L352.084 102.102L356.061 101.678L354.81 98.5893L356.061 96.824L360.911 97.6339L362.897 100.06L367.308 99.473L371.278 101.163L377.086 100.355L379.365 98.2961L382.649 99.1306L382.673 98.8846L384.511 99.0311L385.689 97.6339L385.395 95.2813L385.763 93.5898V92.0642L384.512 91.7529L384.88 90.5023L387.527 89.4741H390.101L392.747 90.3557L395.321 94.0403L397.452 97.1942L399.511 97.636L402.82 98.9584L403.564 101.459L405.54 101.826L406.286 100.282L408.187 99.3275L409.216 100.989L408.922 102.368L409.216 107.487L407.19 107.193L406.285 108.076L407.19 111.972L406.534 112.984L407.19 113.404L407.524 113.001L408.186 111.385L409.215 111.459L409.729 112.488L411.347 112.12L413.848 107.121L415.389 101.535L416.053 97.4156L414.728 93.1523L414.215 89.3297L413.626 88.0801L413.038 85.8741L408.995 83.9622L408.406 85.5809L407.303 84.9925L406.201 85.4343L405.319 83.1555L402.966 83.0817L405.613 75.949L406.642 71.3187L407.525 69.0388L413.185 67.2746L415.391 67.2008L415.686 65.3639C415.686 65.3639 419.141 65.8774 419.361 65.9512C419.582 66.024 418.994 67.128 418.994 67.128L419.411 67.7892L423.552 65.5104L422.891 64.6278L421.714 64.4812L422.156 60.2906L422.009 57.7904L423.992 56.5408L426.197 55.8047L426.566 58.4537L428.55 59.409L429.872 55.1446L428.475 52.2763L431.123 51.7617L432.079 58.0118L430.461 59.5556L430.315 65.6581L430.021 68.3038L428.55 69.5545L429.064 71.6129L428.918 75.3617L434.285 84.6983L436.27 88.3016L437.961 86.7578L437.445 82.8613L438.843 81.7583L437.962 78.8911L439.432 77.2724L437.741 72.0526L439.432 71.905L438.182 70.1408H437.08L437.152 67.4939L435.829 67.0521L435.536 68.1551L434.507 66.9793L434.579 62.9353L433.623 60.3623L436.05 58.3777L437.08 60.1419L438.182 57.2019L440.021 56.7601L442.301 58.4515V57.0543L442.961 52.2753L446.271 47.0554H448.55V45.2185L441.05 39.85H439.653L439.656 39.851ZM261.882 85.5082L259.531 83.1555L260.559 80.7291L263.5 83.9633L261.882 85.5082ZM266.882 83.1555L264.677 80.7291L265.338 78.6707L266.219 79.2591L267.101 80.9121L267.763 82.7137L266.882 83.1555ZM271.88 90.2679L269.381 88.3379L270.262 87.1247L272.396 88.8803L271.88 90.2679ZM366.282 94.6233V96.7288L362.9 97.6393V96.7288L364.811 95.874L365.914 92.9693L367.311 90.2679L365.914 86.4999H368.046L368.928 91.9947L366.282 94.6233Z" fill="#E30A13"/>
<path d="M438.406 167.852L437.818 167.337L437.083 168.293L437.744 169.468L438.406 167.852Z" fill="#E30A13"/>
<path d="M458.991 200.568V201.047L460.536 202.848L461.197 202.039L458.991 200.568Z" fill="#E30A13"/>
<path d="M460.61 203.84L460.095 204.685L462.08 205.641L462.374 204.742L460.61 203.84Z" fill="#E30A13"/>
<path d="M462.374 202.039H461.86L463.108 204.742L463.991 204.171L462.374 202.039Z" fill="#E30A13"/>
<path d="M462.925 205.201V206.011L464.579 206.964V206.011L462.925 205.201Z" fill="#E30A13"/>
<path d="M470.241 212.625L469.358 213.066L470.241 214.757L471.197 214.317L470.241 212.625Z" fill="#E30A13"/>
<path d="M471.197 214.758L470.829 216.008H471.858L471.197 214.758Z" fill="#E30A13"/>
<path d="M472.592 217.332H471.858L472.225 218.728H472.961L472.592 217.332Z" fill="#E30A13"/>
<path d="M487.296 217.332L485.826 218.029L485.312 219.168L487.296 219.537L487.664 218.433L487.296 217.332Z" fill="#E30A13"/>
<path d="M489.797 215.382L487.664 216.229V217.036H489.797V215.382Z" fill="#E30A13"/>
<path d="M465.608 222.183L465.167 222.844L466.565 225.124L468.844 226.667L469.358 225.714L467.263 223.8L465.608 222.183Z" fill="#E30A13"/>
<path d="M473.769 251.739L472.815 252.107L473.292 255.343L473.769 258.503L473.292 262.473L471.49 262.913V264.165L473.033 265.782L471.49 268.428L472.152 269.679L476.416 264.826L477.961 263.795L479.652 260.708L478.915 260.047L477.592 261.15L476.196 259.9L476.049 257.032L474.725 257.401L475.57 254.534L473.769 251.739Z" fill="#E30A13"/>
<path d="M468.477 266.445L470.535 269.163L470.02 270.855L467.152 273.428V274.899L464.36 275.487L462.228 278.794L459.285 281.368L457.375 280.413L455.609 279.677L457.888 275.928L461.786 273.575L465.314 271.002L468.477 266.445Z" fill="#E30A13"/>
<path d="M456.345 280.706L457.669 282.104L455.609 282.913L456.345 280.706Z" fill="#E30A13"/>
<path d="M428.26 262.473C428.48 262.473 430.834 264.385 430.834 264.385L433.553 263.429L432.819 266.443L430.908 268.648L428.995 269.679L428.26 268.208V262.473Z" fill="#E30A13"/>
<path d="M435.318 206.523H434.216L433.185 210.934L432.413 216.209L430.907 217.625L428.774 216.209L424.731 213.692L424.218 212.074L426.349 208.508L422.856 208.069L419.951 206.965V208.363L417.379 208.656L414.879 211.304V213.142L413.188 212.627L411.204 211.157L408.043 213.288L406.28 215.384L405.764 217.038L404.422 215.384L403.192 217.038V218.436L401.648 220.642L392.68 222.994L390.253 224.429L389.15 229.17L389.739 231.523L389.15 232.259L389.665 236.523L390.401 242.184C390.401 242.184 388.415 245.419 388.635 245.493C388.857 245.566 389.885 247.331 389.885 247.331L392.681 248.067L396.575 246.009H400.62L402.459 244.317L404.424 244.17L405.105 243.067H407.678L410.03 242.185L414.515 242.626L417.013 243.655L418.596 248.875L422.456 244.905L420.396 249.537L422.859 248.875L422.088 250.933L423.632 250.566V254.169L424.293 256.008L428.262 258.58L430.395 256.888L431.717 259.316L435.32 256.888L437.525 256.962L438.628 255.418L439.73 251.743L445.17 244.244L448.185 236.157L447.082 230.054L442.009 221.158L439.289 218.732L438.26 212.261L436.642 211.821L435.319 206.527L435.318 206.523Z" fill="#E30A13"/>
<path d="M416.35 206.523V207.7L417.746 208.068L418.592 206.963L416.35 206.523Z" fill="#E30A13"/>
<path d="M419.143 251.223L421.202 250.562L421.864 251.739H419.658L419.143 251.223Z" fill="#E30A13"/>
<path d="M412.38 202.848L412.012 202.039L409.328 202.479L408.127 203.208L409.548 203.916L409.659 203.804L412.38 202.848Z" fill="#E30A13"/>
<path d="M443.92 197.333V198.436L446.492 199.263H448.625L450.169 197.333V195.569H449.139L448.037 197.959H446.126L443.92 197.333Z" fill="#E30A13"/>
<path d="M447.669 193.142V193.988L449.802 194.779L451.051 196.966H451.494L450.169 194.245L447.669 193.142Z" fill="#E30A13"/>
<path d="M453.477 197.415V198.73L454.435 200.054L455.683 199.263L453.477 197.415Z" fill="#E30A13"/>
<path d="M444.655 203.215L442.008 199.907L443.185 199.76L443.038 198.436L440.024 197.333L440.391 196.011L433.145 193.207L432.88 203.652L433.113 203.84L435.98 204.319L436.566 201.525L438.48 201.157L440.612 202.406L442.523 205.127L447.082 206.011V204.905L444.655 203.215Z" fill="#E30A13"/>
<path d="M368.12 181.452L364.811 180.643V181.673L366.466 183.584L369.517 186.598C369.517 186.598 372.385 191.671 372.457 191.892C372.532 192.112 373.634 193.877 373.634 193.877L378.412 198.435H380.398L381.133 194.391L379.147 193.068L378.633 191.304L377.09 190.716L377.678 189.539L376.795 188.657L374.296 186.893L371.062 184.026L368.12 181.452Z" fill="#E30A13"/>
<path d="M381.574 198.436L379.59 199.979L384.075 201.523L389.147 202.257L392.236 202.698H395.028L396.647 203.581L399.513 203.213C399.513 203.213 399.367 204.462 399.513 204.462C399.661 204.462 402.602 205.639 402.602 205.639V204.021L400.102 203.508L400.617 202.846L402.601 203.139L405.762 202.846V201.669L403.999 202.403L402.087 202.036L399.44 202.403L396.424 202.036H394.147L392.614 201.522L390.25 200.052L387.602 198.948L387.309 200.125L384.613 199.906L381.573 198.435L381.574 198.436Z" fill="#E30A13"/>
<path d="M368.12 187.188H367.09L368.12 188.805L369.003 187.997L368.12 187.188Z" fill="#E30A13"/>
<path d="M370.031 190.863L369.37 191.672L370.62 192.774L371.061 191.819L370.031 190.863Z" fill="#E30A13"/>
<path d="M380.325 191.819L379.59 192.774L381.722 194.467L382.235 193.584L380.325 191.819Z" fill="#E30A13"/>
<path d="M382.971 193.51V194.467H384.221L384.614 193.51H382.971Z" fill="#E30A13"/>
<path d="M409.328 187.188L407.307 187.997L402.968 187.592L401.278 188.805L400.617 191.304L399.513 194.98L400.617 195.422V198.216L402.234 198.436L402.526 193.987L403.042 194.466L403.926 197.48L406.644 196.01L403.851 192.812L406.939 191.304L406.719 190.201L403.042 191.819L401.646 189.982L402.749 188.805H405.101L407.454 189.54L409.328 187.997V187.188Z" fill="#E30A13"/>
<path d="M414.364 185.79C414.144 185.79 412.746 186.746 412.746 186.746V189.54L414.364 191.23V190.348L413.556 188.805H414.952V187.188H413.851L414.364 185.79Z" fill="#E30A13"/>
<path d="M411.498 193.987L410.027 194.467L410.762 195.569H412.38L411.498 193.987Z" fill="#E30A13"/>
<path d="M413.188 193.987L413.557 195.569L415.909 194.779L418.04 195.569L417.305 193.987L415.614 193.51L413.188 193.987Z" fill="#E30A13"/>
<path d="M423.629 198.436C423.408 198.216 422.82 197.959 422.82 197.959L422.085 199.391L422.453 200.568L423.629 198.436Z" fill="#E30A13"/>
<path d="M419.143 200.054L418.04 200.568L418.335 202.039L419.143 201.047V200.054Z" fill="#E30A13"/>
<path d="M407.085 203.84L406.278 205.641L408.262 205.201L409.548 203.916L408.127 203.208L407.085 203.84Z" fill="#E30A13"/>
<path d="M428.04 191.23L425.099 194.539L423.26 193.51L422.819 190.863L420.173 189.908L417.746 190.863L418.04 191.71L419.806 193.142L422.012 192.774L422.231 193.51L419.658 193.987L420.834 196.01L422.378 194.779L427.893 197.628L429.583 200.348L428.113 202.406L430.906 202.039L432.88 203.651L433.145 193.206L428.04 191.23Z" fill="#E30A13"/>
<path d="M398.557 185.79L397.676 184.319L398.346 183.06L395.691 182.703L393.927 187.407L387.972 188.51L386.772 186.733L385.913 186.524C385.913 186.524 384.222 188.804 384.701 188.73C385.177 188.657 387.383 194.391 387.383 194.391L392.972 194.832L393.707 196.009L395.618 194.832L396.425 192.039L398.118 188.51L400.177 188.216L398.264 186.524L398.558 185.79H398.557Z" fill="#E30A13"/>
<path d="M404.421 162.852L401.498 159.395L400.617 160.793L400.176 164.763L401.646 166.748L402.896 167.778L405.174 168.292L407.085 169.984L408.41 171.233H407.454L406.278 173.439L405.762 171.307L404.292 170.865V172.924L405.396 172.408L404.806 174.394L406.278 175.276L407.379 173.439L407.748 174.394L408.777 173.954L407.968 172.188L409.328 172.262L410.027 171.968L409.328 169.395L406.866 169.027L406.278 167.337L404.735 166.527H403.263L402.896 164.69L404.421 162.852Z" fill="#E30A13"/>
<path d="M409.328 174.028L407.454 176.746L406.791 176.086L404.421 177.52V178.952H405.101L405.762 177.704H407.527L407.675 179.687L409.328 180.644L410.027 179.32V177.924L411.571 178.364L410.909 175.276L409.328 174.028Z" fill="#E30A13"/>
<path d="M400.176 171.307L400.617 172.852L397.454 176.086L396.793 175.645L400.176 171.307Z" fill="#E30A13"/>
<path d="M401.13 167.852L402.527 170.425L403.557 169.616L402.968 168.292L401.13 167.852Z" fill="#E30A13"/>
<path d="M402.014 148.956L400.91 148.182L399.513 150.426V152.558L400.395 153.589L400.764 154.618H401.278L400.764 153.294L401.646 152.191L402.014 148.956Z" fill="#E30A13"/>
<path d="M341.727 174.394L341.212 177.704L342.093 180.644L344.299 179.321C344.299 179.321 344.152 177.704 344.299 177.52C344.446 177.336 342.755 174.91 342.755 174.91L341.727 174.394Z" fill="#E30A13"/>
<path d="M427.741 108.27L420.904 105.293V106.395L421.566 108.27V110.256H420.464V112.57L421.345 114.886L422.889 113.784L421.566 112.02L422.889 111.799L425.317 113.122L425.866 110.089H427.741V108.27Z" fill="#E30A13"/>
<path d="M422.889 114.886L421.566 116.209V118.305L422.227 121.393L421.566 124.149H419.139L418.314 126.907L416.824 127.459L414.177 128.119L411.753 130.539V131.758L410.428 133.304L412.413 137.604L413.736 136.501V132.64L412.523 131.428L413.736 130.539L417.265 129.442L418.314 131.097L419.03 132.311L420.464 130.105V128.782L422.119 129.442L422.889 128.671L424.101 127.126L424.654 129.112L425.866 127.017L424.984 125.693L424.101 122.386L425.426 121.282L424.876 117.423L422.889 114.886Z" fill="#E30A13"/>
<path d="M416.604 130.539L413.736 131.537L415.17 133.853L416.604 132.195H417.597L416.604 130.539Z" fill="#E30A13"/>
<path d="M352.899 149.15L351.592 148.515L352.087 147.58L353.816 148.107L354.731 149.347L358.003 149.815L356.434 151.898L357.545 153.206L357.676 152.464L358.266 151.898L358.919 154.973L359.666 153.992V151.898H360.842V150.146L362.519 146.338L364.611 145.028L363.368 143.786L362.649 142.216L360.252 142.542L356.498 145.028L356.891 146.665L352.574 146.729L352.087 144.702L351.002 144.768V147.449L348.122 147.123L344.002 146.01L339.292 143.786L339.684 140.972L337.263 140.252L336.216 136.831L333.337 136.196L331.057 137.3L331.701 137.463L330.262 138.879L329.935 140.799L327.318 145.356L325.16 145.028L323.72 147.123L326.009 149.282L326.653 151.116L323.652 151.636L322.753 152.464L323.052 152.558L324.007 153.662L326.064 153.441L324.669 154.691L323.493 154.471L326.653 157.337L328.713 156.09L329.226 154.176L329.962 159.912L331.874 165.498L334.375 170.865L337.977 176.746L339.005 176.379L341.358 173.439L341.947 168.585V164.837L345.916 161.748L348.564 158.734L350.917 156.823L352.24 154.838L353.933 155.177L352.087 150.459L352.899 149.15Z" fill="#E30A13"/>
<path d="M348.974 144.291H347.274L346.423 143.786L343.681 142.149L340.992 141.401H339.623L339.292 143.786L344.002 146.01L348.122 147.123L351.002 147.449V145.028H350.349L348.974 144.291Z" fill="#E30A13"/>
<path d="M335.954 134.102L334.057 132.009L331.701 131.027L330.524 128.737H328.954V129.326L326.99 130.281L326.803 130.339L326.653 131.237L328.954 132.781L328.104 133.922L328.429 136.132L329.542 136.915L331.057 137.3L333.337 136.196L336.216 136.831L336.41 137.466L337.197 136.849L335.954 134.102Z" fill="#E30A13"/>
<path d="M358.919 154.973L358.266 151.898L357.676 152.464L357.546 153.206L356.434 151.898L358.003 149.815L354.731 149.347L353.816 148.107L352.087 147.58L351.592 148.515L352.899 149.15L352.087 150.459L353.933 155.177L354.077 155.206L355.769 153.81L357.092 153.589L357.9 155.942L358.667 156.822L359.006 154.859L358.919 154.973Z" fill="#E30A13"/>
<path d="M369.912 167.851L368.537 166.096L368.799 163.759L366.835 160.927L367.654 159.066L370.107 157.263L371.809 155.236L368.669 154.319L369.257 153.468L368.275 151.898L366.706 151.4L365.92 150.524L367.229 147.253L365.723 144.291L364.334 144.751L364.611 145.028L362.519 146.338L360.842 150.146V151.898H359.666V153.991L359.006 154.859L358.667 156.822L359.372 157.632L360.914 158.807L360.252 159.322L360.914 160.204L361.649 159.395L362.679 162.262L362.019 164.543L362.679 164.91L365.914 163.293V162.19L367.679 165.645L368.854 168.733L369.442 171.38L369.003 173.365V174.27L370.369 171.307L370.173 169.837L369.912 167.851Z" fill="#E30A13"/>
<path d="M353.489 144.425L352.281 145.508L352.574 146.729L356.891 146.665L356.498 145.028L356.553 144.993L355.843 144.425H353.489Z" fill="#E30A13"/>
<path d="M381.134 172.639L380.379 171.307L382.538 169.468L381.884 167.337L380.379 166.555V167.851L378.418 166.816H375.896L374.818 168.402L375.203 170.839L376.427 172.335L377.162 173.365H378.346L378.939 172.639H381.134Z" fill="#E30A13"/>
<path d="M383.78 164.468L380.325 161.748L380.031 160.865L378.854 159.985L379.073 157.779L379.956 156.014L381.569 155.453L379.726 154.618V153.274L377.174 152.464L374.165 153.468L373.151 153.781L374.165 155.366L374.818 156.472H376.912L377.632 157.632L376.324 158.703L376.977 160.011L378.679 160.862L380.183 162.89L382.538 164.264L382.147 165.638L381.78 167.282L381.884 167.337L382.538 169.468L380.379 171.307L381.134 172.639H378.939L378.346 173.365H378.412L379.148 173.513L378.633 176.158L379.59 175.938L381.501 173.292L382.457 173.218L384.956 171.159V168.733L383.78 164.468Z" fill="#E30A13"/>
<path d="M404.439 125.576L403.704 126.09L404.954 128.002L404.512 129.326L405.396 131.017L407.307 129.473L409.218 128.297L407.748 124.473L406.282 122.347L403.357 123.984L404.439 125.576Z" fill="#E30A13"/>
<path d="M404.13 114.886L404.523 116.175L402.167 115.454L399.943 118.791V119.901L401.278 120.283V123.592L402.014 124.546L403.19 123.739L403.357 123.984L406.282 122.347L406.278 122.342L405.615 121.606L404.219 120.871L404.071 119.548L406.572 116.974L406.057 114.769L407.192 113.406L405.898 112.575L404.13 114.886Z" fill="#E30A13"/>
<path d="M406.288 108.077L407.192 107.196L409.218 107.49L408.924 102.371L409.218 100.992L408.189 99.3303L406.288 100.285L405.541 101.828L403.566 101.461L402.821 98.9612L399.513 97.6389L397.454 97.197L395.323 94.0431L392.748 90.3596L390.103 89.478H387.528L384.882 90.5062L384.514 91.7579L385.765 92.0692V93.5948L385.397 95.2852L385.692 97.6389L384.514 99.035L382.676 98.8885L382.163 103.749H383.339H385.176L386.133 102.784L387.897 104.52L388.412 105.872L386.5 106.166L385.03 107.416L384.295 108.74L382.676 109.255L381.501 110.504L379.59 110.137L378.193 110.65V111.974L379.442 112.575L377.825 115.283L372.163 117.121L370.693 118.151H368.487L365.238 116.68L362.9 116.312L360.107 116.68H357.606L355.695 113.813L352.68 112.268H349.886L348.269 111.314L348.637 110.089L348.269 108.519L347.019 106.835L345.147 106.534L344.299 106.835L342.387 104.181L341.285 105.293L340.256 106.835L340.769 108.225L339.741 109.328L337.197 108.886L336.507 111.974L337.197 112.575L335.991 113.003L333.933 113.372V114.36L334.742 114.474L335.55 117.268L334.962 118.561L333.344 117.93L329.596 117.856L325.404 117.489V118.561H322.389L321.822 119.762V121.082L322.803 121.753L323.327 120.884L324.154 121.753L323.458 122.393L321.364 121.888L320.318 122.954L320.776 123.712L318.288 125.068L319.27 126.937L318.947 128.898L320.513 129.326L322.083 128.803L323.065 126.937L324.154 127.378V130.044H325.404L326.925 128.309L328.954 127.91V128.736H330.524L331.701 131.027L334.057 132.009L335.954 134.102L337.197 136.849L336.41 137.465L337.263 140.252L339.684 140.972L339.623 141.401H340.992L343.681 142.149L346.423 143.786L347.274 144.291H348.974L350.349 145.028H351.002V144.768L352.087 144.702L352.281 145.508L353.489 144.425H355.843L356.553 144.993L360.252 142.542L362.649 142.215L363.368 143.786L364.334 144.751L365.723 144.291L367.229 147.253L365.92 150.524L366.706 151.4L368.275 151.898L369.257 153.468L368.669 154.319L371.809 155.236L371.474 155.635L372.462 155.824V153.991L374.165 153.468L377.174 152.464L379.726 153.273V154.618L381.569 155.453L383.117 154.911L384.442 155.353L384.956 157.043L385.839 156.971V155.426L389.588 154.103L394.074 152.264L396.058 149.803L397.896 146.162L399.513 143.148L400.323 139.986L398.263 138.957L399.807 137.559L398.116 136.236L399.218 135.501L396.353 131.606L394.514 130.796L394.882 128.517L396.646 126.753L398.41 126.385L398.485 124.988H396.277L395.396 124.326L394.439 124.988L393.778 126.163H392.896L392.53 124.621L391.72 124.693L390.397 123.518L390.544 121.974L392.088 122.12L392.455 120.209L393.558 119.988L394.514 117.856L396.277 118.298L395.47 120.282L396.058 121.386L395.396 122.268L395.91 122.709L396.94 121.753L397.307 121.017L399.734 119.843L399.943 119.9V118.791L402.167 115.454L404.523 116.175L404.13 114.886L405.898 112.575L406.536 112.986L407.192 111.974L406.288 108.077Z" fill="#E30A13"/>
<path d="M377.09 100.359L371.281 101.167L367.311 99.477L362.9 100.064L360.914 97.639L356.063 96.8291L354.812 98.5944L356.063 101.682L352.087 102.106L348.784 100.285L345.768 101.02L343.681 103.594L342.673 104.578L344.298 106.835L345.147 106.534L347.019 106.835L348.269 108.519L348.637 110.089L348.269 111.314L349.886 112.268H352.68L355.695 113.813L357.606 116.68H360.107L362.9 116.312L365.238 116.68L368.487 118.151H370.693L372.163 117.121L377.825 115.283L379.442 112.575L378.193 111.974V110.651L379.59 110.137L381.501 110.504L382.676 109.255L384.295 108.74L385.03 107.416L386.5 106.166L388.412 105.873L387.897 104.52L386.133 102.784L385.176 103.749H383.339H382.163L382.652 99.1346L379.368 98.3002L377.09 100.359Z" fill="#E30A13"/>
<path d="M360.842 168.292L360.107 169.174L359.666 172.924L360.252 173.439V171.526L360.842 169.837V168.292Z" fill="#E30A13"/>
<path d="M361.503 176.086L362.386 179.32L362.9 178.806L362.202 176.674L361.503 176.086Z" fill="#E30A13"/>
<path d="M393.926 187.407L395.69 182.703L398.345 183.059L398.924 181.967L400.617 181.158L396.647 178.364L392.614 182.482L389.588 185.201L388.337 187.114L386.771 186.733L387.971 188.51L393.926 187.407Z" fill="#E30A13"/>
<path d="M372.016 179.909L372.604 182.776L374.075 184.982L378.045 187.407L378.412 186.598L377.015 184.54L376.868 181.599L375.031 179.615L374.992 179.593L371.597 179.358L372.016 179.909Z" fill="#E30A13"/>
<path d="M377.828 163.805L377.37 161.777L375.896 160.499L375.473 161.451L374.295 161.124L372.135 161.777V159.066H371.351L370.169 157.19L370.107 157.263L367.653 159.066L366.835 160.927L368.799 163.759L368.537 166.096L369.912 167.852L370.173 169.837L370.369 171.307L369.003 174.271V176.746L369.442 176.527L371.597 179.358L374.992 179.593L372.973 178.51L372.016 177.629L372.384 177.262L371.87 176.012L370.84 174.836L370.178 174.322L370.693 172.188L371.209 169.984L371.281 168.439H372.532V169.763L375.104 170.718L375.203 170.84L374.818 168.403L375.896 166.816H378.418L378.844 167.042L379.268 164.984L377.828 163.805Z" fill="#E30A13"/>
<path d="M382.538 164.264L380.183 162.891L378.679 160.862L376.977 160.012L376.324 158.703L377.632 157.632L376.912 156.473H374.818L374.165 155.366L373.151 153.781L372.462 153.992V155.824L371.474 155.635L370.169 157.19L371.351 159.066H372.135V161.777L374.295 161.124L375.473 161.451L375.896 160.499L377.37 161.777L377.828 163.805L379.268 164.984L378.844 167.042L380.379 167.851V166.555L381.78 167.282L382.147 165.638L382.538 164.264Z" fill="#E30A13"/>
<path d="M386.427 157.632H384.075L382.971 158.66L383.633 160.5H384.956L385.912 159.837L386.427 158.366V157.632Z" fill="#E30A13"/>
<path d="M268.279 134.252L269.013 135.281L270.925 134.767L271.732 133.59H270.006L268.279 134.252Z" fill="#E30A13"/>
<path d="M303.42 169.764H301.657V170.644H303.42V169.764Z" fill="#E30A13"/>
<path d="M274.452 131.531L282.041 130.65H285.509L285.836 130.172L284.986 128.94L284.463 126.31L284.986 125.539L283.612 125.136L283.481 123.713L282.173 122.597L279.71 122.128L279.526 123.077L276.439 123.518L272.615 122.563L270.632 121.754L267.029 122.415L265.631 123.665L263.648 123.445L262.912 123.958L263.132 124.621L260.265 125.063L259.088 125.798L259.309 126.753L260.044 126.974L260.118 128.297L259.382 128.665L262.102 131.606L264.896 132.266L265.924 131.237L268.645 132.708L270.632 132.119L271.807 131.164L273.793 131.091L273.508 132.62L274.452 133.001V131.531Z" fill="#E30A13"/>
<path d="M287.669 127.183L288.323 126.31L286.687 125.136L285.228 122.954L285.05 123.094L283.054 123.349L283.481 123.713L283.612 125.136L284.986 125.539L284.6 126.108L285.313 125.926L285.705 126.315L286.229 125.908L287.669 127.183Z" fill="#E30A13"/>
<path d="M292.247 123.74L290.743 121.438L289.173 122.597L287.603 121.462L287.21 121.902L287.864 123.095L285.836 122.474L285.228 122.955L286.687 125.136L288.323 126.311L287.669 127.184L286.229 125.908L285.705 126.315L286.882 127.489L288.389 127.424L290.023 125.927L290.874 127.184V128.076L291.491 128.31L291.878 125.136L292.981 124.327L292.247 123.74Z" fill="#E30A13"/>
<path d="M274.19 138.159L273.798 137.309L272.486 137.516L272.322 138.296L271.002 140.276L272.781 144.292L273.034 143.308L273.47 138.879L274.19 138.159Z" fill="#E30A13"/>
<path d="M273.084 134.696L272.486 137.516L273.798 137.309L273.918 137.569L274.78 135.608L273.084 134.696Z" fill="#E30A13"/>
<path d="M276.023 143.328H277.004L277.985 141.822L276.218 140.253L279.096 139.01L278.115 136.915L275.302 138.879L274.056 138.293L273.47 138.879L273.034 143.308L273.057 143.222V143.962L274.781 144.291L276.023 143.328Z" fill="#E30A13"/>
<path d="M281.125 132.781V131.936L282.695 131.237V130.65H282.041L274.452 131.531V133.001L273.508 132.62L273.425 133.076L273.084 134.696L274.781 135.607L273.918 137.568L274.19 138.159L274.056 138.293L275.302 138.879L278.115 136.915L278.202 137.099L281.125 134.913V132.781Z" fill="#E30A13"/>
<path d="M286.949 144.292H290.089L290.677 142.542L292.226 142.806L292.466 142.119L292.561 142.121L291.464 140.646V139.206L289.565 137.7L287.669 136.261L287.733 134.913L288.323 134.252L288.715 133.001L287.013 132.34L285.52 130.636L285.509 130.65H282.695V131.237L281.125 131.936V132.781V134.913L278.202 137.099L279.036 138.879H280.144L286.949 144.292Z" fill="#E30A13"/>
<path d="M297.613 149.803L297.539 148.956L296.657 148.515L296.592 150.552L297.797 151.116L297.613 149.803Z" fill="#E30A13"/>
<path d="M298.421 151.859L297.908 151.897L297.797 151.116L296.592 150.552L296.583 150.794L295.187 147.707L292.637 144.574L291.694 145.029L290.099 144.263L290.089 144.292H286.949L280.144 138.879H279.036L279.096 139.01L276.218 140.253L277.985 141.822L277.004 143.328H276.023L274.781 144.292L273.057 143.962V145.722L276.073 149.803L277.174 152.044L278.497 152.339L279.526 155.06L279.822 156.676L282.541 159.323L284.379 162.19L285.284 164.251L286.49 163.742V162.171L290.809 163.316L291.043 164.918L293.753 161.386L303.421 158.704V154.059L303.453 153.992H298.421V151.859Z" fill="#E30A13"/>
<path d="M304.525 148.108L301.805 151.604L298.421 151.859V153.992H303.453L305.248 150.147L304.525 148.108Z" fill="#E30A13"/>
<path d="M293.753 161.386L291.043 164.918L290.809 163.316L286.49 162.171V163.741L285.284 164.251L285.704 165.205L287.026 169.837L289.306 169.396L290.187 168.439L291.732 169.028L293.424 167.852L296.217 166.527L299.966 165.498V164.102L301.02 163.76L298.927 159.951L293.753 161.386Z" fill="#E30A13"/>
<path d="M308.42 152.485L305.92 152.044L305.248 150.147L303.421 154.059V158.704L298.927 159.951L301.02 163.76L303.127 163.072L304.229 162.778L304.671 161.823L305.848 161.529L306.435 160.205L307.76 160.131V158.146L308.641 157.265L310.332 154.544L308.42 152.485Z" fill="#E30A13"/>
<path d="M314.952 147.45L313.775 145.029L312.072 144.291L310.896 142.542L312.072 140.799L311.811 139.402H310.332L309.195 134.436L310.045 133.59L309.652 130.944L303.421 127.911L299.355 129.841L299.526 130.539L295.855 131.237L291.365 129.326L291.491 128.31L290.874 128.076V127.183L290.023 125.926L288.389 127.424L286.882 127.488L285.313 125.926L284.6 126.108L284.463 126.31L284.986 128.94L285.836 130.171L285.52 130.636L287.013 132.34L288.715 133.001L288.323 134.252L287.733 134.913L287.669 136.261L289.565 137.7L291.464 139.205V140.645L292.562 142.121L294.819 142.191L297.025 145.354L302.466 148.108L304.891 146.751L306.362 148.956L312.538 150.133L312.727 150.119V148.515L314.952 147.45Z" fill="#E30A13"/>
<path d="M314.363 131.237L314.952 129.589L317.178 129.064V127.911L310.83 124.875L309.784 122.394L304.629 119.446L302.539 120.884V122.394H300.362L297.797 120.559L296.164 121.46L296.583 122.636L296.657 124.546L298.495 126.31L299.355 129.841L303.421 127.911L309.652 130.944L309.902 132.627L312.072 133.223L314.363 131.237Z" fill="#E30A13"/>
<path d="M319.27 126.937L318.288 125.068L320.776 123.713L320.318 122.954L321.364 121.889L323.458 122.394L324.154 121.754L323.327 120.884L322.803 121.754L321.822 121.082V119.446L319.533 121.889L316.326 121.754L315.999 120.495L314.559 120.166V118.583L313.383 117.268H308.671L306.134 115.733L305.628 116.681L303.495 116.165V114.36L299.708 115.128L300.926 122.394H302.539V120.884L304.629 119.446L309.784 122.394L310.83 124.875L317.178 127.911V128.798L318.878 129.326L319.27 126.937Z" fill="#E30A13"/>
<path d="M318.747 140.604L322.279 138.879L322.999 135.281L324.504 134.696L324.831 130.944L326.99 130.282L328.954 129.326V127.911L326.925 128.31L325.404 130.044H324.154V127.378L323.065 126.938L322.083 128.803L320.514 129.326L318.947 128.899L318.878 129.326L317.178 128.798V129.064L314.952 129.589L314.363 131.237L312.072 133.223L309.902 132.627L310.045 133.59L309.194 134.436L310.332 139.402H311.811L312.072 140.8L310.896 142.542H318.747V140.604Z" fill="#E30A13"/>
<path d="M326.653 151.116L326.009 149.282L323.72 147.123L325.16 145.028L327.318 145.356L329.935 140.799L330.262 138.879L331.701 137.464L329.542 136.915L328.429 136.133L328.104 133.922L328.954 132.781L326.653 131.237L326.803 130.339L324.832 130.944L324.504 134.696L322.999 135.281L322.279 138.879L318.747 140.604V142.542H310.896L312.072 144.291L313.775 145.028L314.952 147.45L312.727 148.515V150.119L317.391 149.803H319.743L321.435 152.043L322.753 152.464L323.653 151.636L326.653 151.116Z" fill="#E30A13"/>
<path d="M339.667 103.594L338.123 103.08L335.624 100.801L333.344 101.608L331.138 101.462L324.594 94.1088L321.947 96.0934L316.801 95.0653L316.36 93.0807L313.64 92.7126L311.929 94.1099L305.148 96.7567L303.451 97.2713L305.148 98.7424H304.009L303.452 101.021L305.149 102.418V103.816L302.244 104.109L299.707 103.374L296.164 104.109L292.562 102.418H290.554L288.256 104.771V106.461L286.439 105.065L285.689 106.094L285.837 109.33L288.645 111.975L290.035 113.044L291.955 111.462H294.968C294.968 111.462 295.703 114.475 295.848 114.697C295.996 114.917 292.908 115.064 292.908 115.064L291.954 116.682L293.202 118.52L295.482 119.55L296.165 121.462L297.798 120.56L300.362 122.396H300.926L299.707 115.129L303.494 114.361V113.594L306.066 112.27L306.801 114.476L306.133 115.734L308.669 117.27H313.381L314.558 118.585V120.168L315.998 120.497L316.325 121.756L319.531 121.891L321.821 119.448V119.766L322.388 118.565H325.403V117.493L329.595 117.86L333.343 117.933L334.961 118.565L335.549 117.271L334.741 114.477L333.932 114.362V113.375L335.99 113.007L337.196 112.579L336.507 111.978L337.196 108.89L339.74 109.332L340.769 108.229L340.256 106.839L341.285 105.296L341.97 104.606L341.212 103.45L339.668 103.596L339.667 103.594ZM325.404 111.974V113.813L324.154 113.151V111.461L325.404 110.137L326.654 110.579L325.404 111.974Z" fill="#E30A13"/>
<path d="M259.566 122.715L258.749 124.457L259.088 125.136L260.853 124.033L262.323 123.886L262.471 123.298L261.368 122.563L261.124 121.889L259.399 122.639L259.566 122.715Z" fill="#E30A13"/>
<path d="M293.675 145.5L292.743 144.437L292.082 143.482L292.605 142.291L288.326 139.616L285.651 145.5L291.001 149.245L293.675 145.5Z" fill="black"/>
<path d="M240.928 96.3523V97.3077L241.48 97.5644V96.6818L240.928 96.3523Z" fill="#E30A13"/>
<path d="M243.685 92.4922L243.281 94.8448L243.685 94.955L244.126 92.4922H243.685Z" fill="#E30A13"/>
<path d="M246.48 91.169C246.368 91.169 245.671 91.352 245.671 91.352L245.156 92.1597L245.378 93.5206H245.671L246.296 92.3437L246.48 91.169Z" fill="#E30A13"/>
<path d="M250.818 88.3384L250.008 88.8166L250.818 89.037L251.258 88.6882L250.818 88.3384Z" fill="#E30A13"/>
<path d="M251.258 89.3674H250.45L250.008 89.7718V90.249V91.1691L250.376 90.9112L250.633 90.2683H251.258V89.9184V89.3674Z" fill="#E30A13"/>
<path d="M246.848 84.8462L246.48 85.5084L247.471 86.1685V85.1404L246.848 84.8462Z" fill="#E30A13"/>
<path d="M213.468 80.729L212.769 80.9494L213.119 81.7946L213.468 83.1554H213.652V81.5742L213.468 80.729Z" fill="#E30A13"/>
<path d="M196.227 71.5394L194.758 69.7025L193.508 70.6204C193.508 70.6204 192.037 72.2733 192.257 72.3482C192.478 72.421 195.126 72.3482 195.126 72.3482L194.831 73.3774H192.478L192.772 74.4794H194.232L195.053 75.5086L193.803 75.8755L194.233 76.9058H196.229L198.434 77.7874L203.801 75.4358L204.978 73.7433L204.463 71.1714L202.698 69.7014L199.61 70.9499L197.405 70.7295L197.332 72.4199L196.082 72.7879L196.229 71.5384L196.227 71.5394Z" fill="#E30A13"/>
<path d="M220.601 84.6621L219.828 85.1029V85.7277L220.379 85.9855L220.601 85.3243V84.6621Z" fill="#E30A13"/>
<path d="M217.733 89.7717H215.563L215.122 91.4642L214.609 92.3458V93.2284L213.91 93.9624L214.13 94.9552L215.233 93.7238L214.793 95.2119L214.682 96.6819H215.381L215.823 94.9552V96.3524L215.346 97.7871H216.117L217.55 97.3452C217.55 97.3452 217.109 98.2632 217.145 98.3734C217.183 98.4846 217.403 99.0356 217.403 99.0356H218.211L217.918 100.836L216.06 100.579L215.896 101.939L216.593 102.123L216.52 103.006L215.086 103.667L215.345 104.439L216.373 104.254L217.108 104.66L217.842 104.843L218.981 104.034L218.209 105.358H216.63L215.967 105.946L214.35 107.564L215.048 107.895L216.444 107.086L217.327 107.343L218.209 106.24C218.209 106.24 219.496 106.24 219.607 106.277C219.716 106.314 222.915 106.093 222.915 106.093L224.275 104.844L223.025 104.477L224.459 102.785L224.054 101.537H222.143L222.34 100.837L221.959 100.212L221.077 98.4108L220.6 98.154L219.642 96.3524L218.503 95.213H217.107L218.32 94.7359L218.172 94.2213L219.386 91.9778L218.209 91.6846L216.666 91.9778L216.739 91.17L217.768 90.5078L217.73 89.7717H217.733Z" fill="#E30A13"/>
<path d="M214.129 90.2683L213.027 90.5069V91.3895L212.475 91.7201L212.623 93.5228L212.77 93.3377L212.954 91.8956L213.652 91.1691L214.129 90.2683Z" fill="#E30A13"/>
<path d="M213.91 91.6473C213.91 91.6473 213.139 91.9041 213.305 92.0143C213.469 92.1245 213.91 92.9697 213.91 92.9697H214.278V92.4925L213.91 91.6473Z" fill="#E30A13"/>
<path d="M216.263 98.5212L215.563 98.8336V99.697L216.263 99.1097V98.5212Z" fill="#E30A13"/>
<path d="M211.963 98.5211L212.475 99.1095L212.927 98.5211L213.762 99.3384L214.609 98.8335L214.278 97.1238L213.303 96.958L213.055 96.9131L211.963 97.9284V98.5211Z" fill="#E30A13"/>
<path d="M212.927 98.5212L212.475 99.1096L211.963 98.5212V97.9285L213.055 96.9132L211.814 96.6821L210.932 97.7498L211.557 98.1542L210.932 98.5212H208.947V99.3311L209.535 99.697L208.947 100.285L210.087 100.874L208.947 102.05H210.381L208.947 102.565L208.102 102.749L208.689 103.999L209.793 104.476L211.3 103.667L213.21 103.153L213.652 103.006L213.91 101.572L213.777 99.9548L213.652 99.4038L213.762 99.3386L212.927 98.5212Z" fill="#E30A13"/>
<path d="M212.445 128.94L212.123 128.645L212.526 127.489L211.922 126.311L212.727 126.11L213.571 122.556L210.116 122.148L210.196 122.415L210.269 124.842L208.947 127.561L209.683 128.591L209.608 130.944H212.053L211.884 130.045L212.445 128.94Z" fill="#E30A13"/>
<path d="M224.643 127.489L224.129 127.709L224.386 128.334L224.901 127.911L224.643 127.489Z" fill="#E30A13"/>
<path d="M225.635 126.791L226.298 127.232L226.703 126.496L226.169 126.311L225.635 126.791Z" fill="#E30A13"/>
<path d="M227.069 125.908H227.658L227.988 126.31H227.363L227.069 125.908Z" fill="#E30A13"/>
<path d="M223.053 121.23L220.721 120.666L219.992 119.914L211.3 119.034L209.535 120.209L210.116 122.148L213.571 122.555L212.727 126.109L211.922 126.311L212.526 127.488L212.123 128.645L212.445 128.94L211.884 130.044L212.053 130.944H212.843L214.314 132.708L216.961 131.386H219.534L221.372 130.577L222.342 127.856L221.812 126.533L224.165 123.74L226.15 122.856L226.288 121.695L224.516 121.23H223.053Z" fill="#E30A13"/>
<path d="M234.753 120.357L233.65 121.387L234.202 123.445H234.753V120.357Z" fill="#E30A13"/>
<path d="M231.528 116.327L231.047 114.199L229.881 114.842L230.163 113.758L231.247 112.592L231.047 111.867H232.171L232.695 109.177L230.444 108.573L227.988 107.609L226.703 106.686L225.718 105.218L225.122 105.579L224.203 107.417L223.137 107.711L222.342 108.704L221.078 108.667L219.975 108.078L220.159 109.99L218.836 110.1L215.416 110.063L219.497 113.298L221.078 115.762L220.011 119.916L219.992 119.914L220.721 120.666L223.053 121.23H224.516L226.288 121.695L226.444 120.357L227.327 119.329L228.945 119.623L230.489 120.357L232.408 118.938L231.006 116.769L231.528 116.327Z" fill="#E30A13"/>
<path d="M235.267 96.3525L234.569 96.7206L235.267 97.5647L235.966 97.1239L235.267 96.3525Z" fill="#E30A13"/>
<path d="M236.7 95.6166L236.188 96.1686L236.443 96.7934L237.178 96.9582V97.7499L236.407 97.5648L235.966 97.7499L236.334 98.1543H237.583V96.9582L237.987 96.6468V95.2122L236.977 95.3598L237.216 96.0584L236.7 95.6166Z" fill="#E30A13"/>
<path d="M233.944 96.94L235.194 95.838L235.488 91.1692L232.031 93.9626L232.735 97.2417C233.365 97.4032 234.146 97.5862 234.524 97.6739L233.944 96.94Z" fill="#E30A13"/>
<path d="M231.328 102.025L231.134 100.615L227.842 101.608L227.069 104.402L227.052 104.412L229.703 105.16L229.961 103.752H230.725L231.027 103.19L230.725 102.427L231.328 102.025Z" fill="#E30A13"/>
<path d="M225.718 105.218L226.703 106.686L227.988 107.61L229.38 108.156L229.681 106.847V105.279L229.703 105.161L227.052 104.413L225.718 105.218Z" fill="#E30A13"/>
<path d="M229.38 108.156L230.444 108.573L230.553 108.603L229.65 106.981L229.38 108.156Z" fill="#E30A13"/>
<path d="M238.962 108.452L237.987 106.806L241.974 105.279L240.928 101.784L241.151 99.4026L238.871 98.6676L235.489 98.889L234.525 97.6737C234.147 97.5859 233.366 97.403 232.736 97.2415L233.319 99.9546L231.135 100.615L231.328 102.025L230.726 102.427L231.028 103.19L230.726 103.753H229.962L229.681 105.279V106.847L229.651 106.981L230.554 108.603L232.694 109.178L232.192 111.765L232.694 112.05L233.65 111.787L235.267 112.269L238.277 111.708L239.458 112.05L239.242 111.386L240.406 109.698L238.961 108.452H238.962Z" fill="#E30A13"/>
<path d="M236.711 86.7183L237.62 85.9854L236.977 84.0661L237.987 82.4196L236.892 81.5755L236.706 76.9558L238.319 76.4733L239.122 71.6119L240.166 70.5667L241.204 68.4772L240.928 67.4737L241.935 65.6667L242.739 65.9064L243.139 64.3808L245.155 64.8215L246.48 62.21L248.322 63.8983L251.615 62.8541L251.897 60.3228L253.424 59.6392L254.951 60.724L255.634 62.3716L257.423 60.5068L255.056 59.7472L257.066 58.7426L252.912 56.5398L246.368 58.8197L240.855 63.7453L235.783 74.7006L232.4 78.597L227.842 81.3914L228.65 89.6989L231.225 90.9485L235.414 87.5667L235.848 88.6879H236.977L236.711 86.7183Z" fill="#E30A13"/>
<path d="M249.648 66.9921L249.125 65.1434L247.471 64.3806L246.027 63.1011L245.155 64.8214L243.14 64.3806L242.739 65.9062L241.935 65.6666L240.928 67.4736L241.204 68.4771L240.166 70.5665L239.122 71.6118L238.319 76.4732L236.706 76.9557L236.892 81.5753L237.987 82.4194L236.977 84.0659L237.62 85.9853L236.711 86.7181L236.977 88.6877H235.848L238.942 96.6817L243.134 94.1825L243.208 89.4045L245.12 88.3015L245.414 85.7274L243.576 84.1098L243.356 80.2145L247.839 75.8024L248.06 72.4206L250.847 72.1627L250.171 69.6828L249.648 66.9921Z" fill="#E30A13"/>
<path d="M259.571 77.6384L258.284 73.4606V71.5713L256.638 68.0365L257.322 66.5098L255.072 63.4971L255.545 62.1565L254.951 60.724L253.424 59.6392L251.897 60.3228L251.615 62.8541L248.322 63.8983L246.48 62.21L246.027 63.1012L247.471 64.3808L249.125 65.1436L249.649 66.9923L250.171 69.683L250.847 72.1629L252.029 72.0538V73.818L247.839 78.8174L248.428 84.3314L251.663 86.0218L257.398 84.2565L257.399 84.2576L260.534 78.9244L259.571 77.6384Z" fill="#E30A13"/>
<path d="M252.86 94.3515L250.633 94.1504L249.457 94.9164V95.1389L251.663 96.9031L251.736 97.8585H251.516L253.143 99.5339L255.916 98.1538L257.045 95.5947L254.751 94.4318L252.86 94.3515Z" fill="#E30A13"/>
<path d="M256.598 91.9405L257.974 91.5072L257.804 90.615L257.233 87.1518L257.177 87.1978L253.5 86.9785L251.663 88.0815L252.104 89.7719L253.207 89.8457L253.235 90.8428L255.072 90.5743L256.598 91.9405Z" fill="#E30A13"/>
<path d="M258.487 94.1912L257.974 91.5069L256.598 91.9402L255.072 90.574L253.235 90.8425L253.281 92.4184L252.177 92.565L251.001 91.1688L249.457 92.8592V94.9165L250.633 94.1505L252.86 94.3516L254.751 94.4319L257.045 95.5948L257.081 95.5156L258.487 94.1912Z" fill="#E30A13"/>
<path d="M239.458 129.915L243.134 132.34L243.869 129.548L239.458 129.915Z" fill="#E30A13"/>
<path d="M235.414 127.416L233.65 128.076V124.252L235.414 123.74V127.416Z" fill="#E30A13"/>
<path d="M242.104 133.001L242.655 133.774L242.95 133.186L242.104 133.001Z" fill="#E30A13"/>
<path d="M238.118 112.953L236.471 113.194L235.586 114.459H234.531L234.202 115.122L233.255 114.158L232.694 115.202H231.649L231.32 115.407L231.528 116.327L231.006 116.77L232.408 118.938L233.87 117.857L235.783 118.372L236.884 120.503L239.458 123.077L242.62 124.621L244.089 125.871L244.604 127.929L244.237 129.62L244.972 129.696L246.221 127.194L245.266 126.238L245.926 124.988L247.619 126.164L247.987 124.988L244.163 123.005L244.604 122.342L242.032 121.46L240.634 119.329L238.942 117.857V115.873L240.227 115.615L240.729 113.877L238.118 112.953Z" fill="#E30A13"/>
<path d="M243.662 116.408L244.446 116.488H246.272L248.001 116.891L248.603 116.529L248.001 115.373L247.279 115.564L245.631 114.921L244.505 114.459L243.3 115.081L242.528 115.965L240.633 116.239L240.928 117.122L242.252 116.459L243.281 118.665L246.001 120.48L243.869 117.21L243.662 116.408Z" fill="#E30A13"/>
<path d="M244.545 113.456L244.224 111.747H245.108V110.06L242.337 109.336L241.663 110.06L240.328 109.813L239.242 111.386L239.458 112.049L238.277 111.708L235.268 112.269L235.216 112.255L234.943 112.953L236.403 113.293L236.471 113.194L238.118 112.953L240.729 113.877L240.679 114.053L242.104 114.199L244.545 113.456Z" fill="#E30A13"/>
<path d="M255.339 133.59V134.399L259.457 134.913L259.823 134.252L257.581 133.59H255.339Z" fill="#E30A13"/>
<path d="M251.112 128.334L250.854 129.548H251.589L251.112 128.334Z" fill="#E30A13"/>
<path d="M251.589 129.804L251.222 129.915L251.405 130.282L251.589 130.172V129.804Z" fill="#E30A13"/>
<path d="M249.457 126.311L249.972 127.232L250.229 127.01L249.842 126.311H249.457Z" fill="#E30A13"/>
<path d="M255.191 127.489L255.395 128.489L256.257 128.94L256.626 129.804L257.286 129.548L256.661 129.179L256.478 128.334L255.559 128.076V127.489H255.191Z" fill="#E30A13"/>
<path d="M258.537 130.944H257.802V131.533H258.537V130.944Z" fill="#E30A13"/>
<path d="M261.33 132.781L261.662 133.223L262.471 132.34L261.33 132.781Z" fill="#E30A13"/>
<path d="M260.889 133.223V133.923L260.522 133.774L260.889 133.223Z" fill="#E30A13"/>
<path d="M256.405 131.972L256.698 132.34L257.286 131.972L256.845 131.531L256.405 131.972Z" fill="#E30A13"/>
<path d="M259.382 130.044L259.97 130.282L260.265 130.044L259.676 129.804L259.382 130.044Z" fill="#E30A13"/>
<path d="M258.169 127.489L258.757 127.911L259.052 127.232V127.911H259.566L259.382 126.938H258.867L258.169 127.489Z" fill="#E30A13"/>
<path d="M257.286 125.687V126.11L257.802 126.311V125.539L257.286 125.687Z" fill="#E30A13"/>
<path d="M257.067 130.044L257.581 130.54L258.059 130.292L257.286 129.804L257.067 130.044Z" fill="#E30A13"/>
<path d="M258.867 122.394V123.157L257.802 123.319L255.674 123.445L252.3 124.282L251.222 125.539L250.503 126.903L250.928 127.416L252.177 128.738L251.958 130.135L253.428 131.679L254.971 131.972L254.529 130.577H255.412L255.339 129.62L256.147 129.696L254.309 127.416L254.823 126.899L253.795 124.915L255.118 125.798L256.074 125.429L255.265 124.4L258.573 124.106L258.749 124.458L259.566 122.715L258.867 122.394Z" fill="#E30A13"/>
<path d="M235.216 112.255L233.65 111.787L232.694 112.049L232.192 111.764L232.171 111.867H231.047L231.247 112.592L230.163 113.758L229.881 114.842L231.047 114.199L231.32 115.407L231.649 115.202H232.694L233.255 114.158L234.202 115.122L234.531 114.459H235.586L236.403 113.292L234.943 112.953L235.216 112.255Z" fill="#E30A13"/>
<path d="M257.563 119.034L254.308 118.818L253.253 118.055V118.859L253.867 119.983L253.253 120.907L253.465 121.695L254.429 122.755L254.595 123.713L255.674 123.445L257.802 123.319L258.868 123.156V122.394L259.399 122.639L261.124 121.889L260.707 120.725L261.807 119.107V118.564L259.382 118.055L257.563 119.034Z" fill="#E30A13"/>
<path d="M249.045 119.341H248.201L248.403 119.903L247.4 121.462L248.829 122.474L249.287 121.323L250.229 121.149V120.48L249.045 119.341Z" fill="#E30A13"/>
<path d="M248.403 117.854L248.603 117.011L248.25 116.74L248.001 116.89L246.272 116.488H244.446L243.662 116.408L243.869 117.21L246.001 120.48L246.148 120.576L247.4 121.462L248.403 119.903L248.201 119.34H248.77L248.965 118.537L248.403 117.854Z" fill="#E30A13"/>
<path d="M250.854 121.902L250.229 121.148L249.287 121.323L248.829 122.474L249.162 122.709V125.282L250.503 126.903L251.222 125.539L251.903 124.744L250.854 123.445V121.902Z" fill="#E30A13"/>
<path d="M242.104 114.199L240.679 114.053L240.227 115.615L240.415 115.578L240.633 116.239L242.528 115.965L243.3 115.081L244.505 114.459L244.665 114.524L244.179 113.568L242.104 114.199Z" fill="#E30A13"/>
<path d="M250.854 123.445L251.903 124.744L252.3 124.282L254.594 123.713L254.429 122.755L253.465 121.695L253.396 121.446L250.854 122.597V123.445Z" fill="#E30A13"/>
<path d="M252.086 117.211L251.405 116.65L249.649 114.64L248.104 115.573L248.603 116.529L248.25 116.74L248.603 117.012L248.403 117.855L248.965 118.537L248.77 119.341H249.045L250.23 120.48V121.149L250.854 121.902V122.597L253.396 121.446L253.253 120.907L253.867 119.984L253.253 118.859V118.056L253.482 118.222L253.253 117.211H252.086Z" fill="#E30A13"/>
<path d="M248.801 110.663L249.287 111.024L250.229 110.18L252.179 109.988V108.603H249.842L246.877 109.336L245.108 110.091V111.072L247.116 111.764L248.801 110.663Z" fill="#E30A13"/>
<path d="M252.179 110.1V109.988L250.229 110.18L249.287 111.024L248.801 110.663L247.116 111.764L245.108 111.073V111.747H244.224L244.545 113.456L244.179 113.568L244.665 114.524L245.631 114.921L247.279 115.564L248.001 115.373L248.104 115.572L249.648 114.64L249.859 114.88L251.222 114.199L252.179 111.768L252.983 111.064L252.179 110.1Z" fill="#E30A13"/>
<path d="M246.314 107.207L244.345 106.724L241.959 105.229L241.974 105.279L237.987 106.806L238.962 108.452L240.407 109.698L240.328 109.813L241.663 110.06L242.337 109.336L245.108 110.06V110.091L246.877 109.336L249.114 108.784L247.987 108.156L246.314 107.207Z" fill="#E30A13"/>
<path d="M253.424 103.714L253.253 102.668L253.867 101.663L253.123 99.5129L251.517 97.8589H244.604L241.151 99.4027L240.928 101.783L241.96 105.229L244.345 106.725L246.314 107.207L247.987 108.156L249.114 108.784L249.842 108.603H252.179V108.893L252.724 108.814L253.606 106.982L254.228 105.721L253.424 103.714Z" fill="#E30A13"/>
<path d="M260.609 113.456L258.749 110.582L255.594 111.764L253.867 110.743L252.908 110.975L252.983 111.064L252.179 111.768L251.222 114.199L249.859 114.88L251.405 116.65L252.086 117.21H253.253L253.482 118.221L254.308 118.818L257.563 119.034L259.382 118.056L261.807 118.564V116.901L262.984 116.607L263.105 115.592L260.89 115.766L260.609 113.456Z" fill="#E30A13"/>
<path d="M276.164 110.581L276.284 109.779L275.923 108.156L276.526 107.793L276.164 106.981L273.03 106.284L272.396 105.559L270.379 106.083L269.092 103.913L268.289 104.114L267.566 103.375L267.326 102.106H265.196L264.875 102.668L263.347 102.888L263.105 103.872H261.807H259.37L256.481 103.19L254.818 103.714L253.381 103.45L253.424 103.714L254.227 105.721L253.606 106.981L252.724 108.814L252.179 108.893V110.1L252.908 110.975L253.867 110.743L255.594 111.764L258.169 110.8V109.779H259.382L260.522 110.402L261.33 110.581L262.304 112.269L263.347 113.584L261.9 113.757L261.33 115.406H260.845L260.889 115.766L263.105 115.591L263.132 115.357L265.118 113.078L267.101 114.18L268.279 114.621L267.029 115.725L268.352 116.165L268.499 117.268L272.249 116.165V115.137L270.262 115.431L268.866 114.254L270.558 113.373L272.615 112.637L274.645 112.017L274.958 110.944L276.164 110.581Z" fill="#E30A13"/>
<path d="M261.9 113.757L263.347 113.585L262.304 112.269L261.33 110.582L260.522 110.402L259.382 109.779H258.169V110.8L258.749 110.582L260.609 113.456L260.845 115.407H261.33L261.9 113.757Z" fill="#E30A13"/>
<path d="M235.194 183.291L234.384 184.319L235.194 184.688V183.291Z" fill="#E30A13"/>
<path d="M295.187 207.185L292.834 210.713L290.996 212.772L287.835 213.729L286.438 215.935L287.32 218.653L285.556 222.551V225.197L288.055 228.358L291.07 227.33L295.702 212.92L296.436 213.14V211.743L295.187 207.185Z" fill="#E30A13"/>
<path d="M218.578 139.399L217.911 141.826L213.571 144.291L210.859 144.545L209.535 145.918V147.264L227.988 159.95L231.006 159.47L239.497 153.44L238.503 151.898L236.959 151.603L236.001 148.515L236.517 148.107L235.414 140.28L234.202 138.123L232.989 136.132L234.202 134.764L234.349 130.858L230.93 131.531L226.15 131.826L220.636 133.885L219.341 134.186L221.078 139.399H218.578Z" fill="#E30A13"/>
<path d="M241.223 215.052L242.62 215.419H249.089L251.222 216.081L254.089 216.448L256.661 215.749L254.382 213.802V208.508L257.764 208.95L257.434 205.476H255.045L254.456 200.054L251.076 199.612L250.633 201.45L247.912 201.156L246.809 198.2H240.117L242.325 205.788L240.561 209.096L239.022 215.251L239.826 215.419L241.223 215.052Z" fill="#E30A13"/>
<path d="M276.455 155.573L276.439 155.501L274.602 154.175L272.615 149.803L271.22 146.456L269.013 143.221L269.455 143.001L272.028 146.235L272.469 145.501L272.781 144.291L271.002 140.276L270.852 140.501L266.22 140.06L264.308 141.162L258.573 139.913L258.113 139.736L259.088 155.573H276.455Z" fill="#E30A13"/>
<path d="M272.032 192.774H269.055L269.318 190.869L266.072 191.23L265.338 193.105V194.065H265.966L266.189 198.2L267.512 199.247L268.308 201.731L272.179 203.479L272.143 203.218H273.245L274.348 206.083V206.634H277.689L280.997 206.083L282.321 204.883V204.612L279.967 198.068L281.217 195.827L272.71 190.553L272.032 192.774Z" fill="#E30A13"/>
<path d="M268.504 227.403L268.131 223.212L264.755 222.624L261.736 224.756L260.337 226.594L259.676 228.358L255.487 227.771L252.471 229.755L250.854 226.962V232.035L248.722 233.505L246.59 232.035L245.065 232.451L247.987 239.092L247.912 242.181L250.707 243.062L259.602 241.298L267.837 233.579L269.637 229.607L269.055 229.167L268.504 227.403Z" fill="#E30A13"/>
<path d="M201.595 169.763L204.683 170.203L206.373 170.644L205.491 168.218L204.536 166.969L203.286 164.918L202.036 163.759H199.463L197.697 164.58L197.189 164.655L196.742 166.602L199.174 170.317L199.682 170.203L201.595 169.763Z" fill="#E30A13"/>
<path d="M207.257 175.645L206.373 173.659L204.094 174.394L203.203 175.192L204.609 178.145L205.611 178.774L206.373 177.85L207.257 175.645Z" fill="#E30A13"/>
<path d="M218.136 178.071L219.092 175.792L218.615 173.954H217.108L214.903 172.975H212.991L210.637 173.513L211.079 176.379L209.977 178.732V179.615L211.593 180.129L211.638 182.443L216.151 181.011L218.236 181.619L218.504 180.496L218.136 178.071Z" fill="#E30A13"/>
<path d="M209.535 145.918L210.859 144.544L213.571 144.291L217.911 141.826L218.578 139.398H221.078L219.341 134.186L218.431 134.398L215.638 134.325L214.609 133.222L213.946 133.516L213.21 136.016L209.683 138.295L208.285 142.706L205.713 145.794L203.512 146.968L209.535 146.905V145.918Z" fill="#E30A13"/>
<path d="M203.512 153.441H205.229V149.47H209.535L209.841 147.477L209.535 147.264V146.905L203.512 146.968L203.506 146.971L202.697 148.107L198.802 154.029L197.788 156.529H203.512V153.441Z" fill="#E30A13"/>
<path d="M205.713 164.918L206.742 165.645L208.212 164.918L209.841 165.645H214.534L214.976 164.286L214.534 163.759L213.571 151.116L214.736 150.839L209.841 147.477L209.535 149.47H205.229V153.44H203.512V156.529H197.788L197.551 157.116L198.654 158.293L197.189 164.655L197.697 164.58L199.463 163.759H202.036L203.286 164.918L204.455 166.837L205.713 166.122V164.918Z" fill="#E30A13"/>
<path d="M259.088 155.573L258.113 139.736L255.118 138.59L251.736 138.516L250.559 139.986L251.148 141.162L249.678 142.707L246.442 141.016L244.456 140.721L243.869 138.737L238.61 137.715L237.767 139.736L236.77 140.094V141.751L236.149 142.542L235.714 142.405L236.517 148.107L236.001 148.515L236.959 151.603L238.503 151.898L239.493 153.436L242.528 154.323L245.78 153.147L257.53 159.25L259.088 158.66L259.203 155.573H259.088Z" fill="#E30A13"/>
<path d="M236.77 141.751V140.094L237.767 139.736L238.61 137.715L238.576 137.707L236.369 136.163L237.839 134.693L237.547 133.517L236.811 132.708L237.62 131.09L236.443 131.385L235.783 130.577L234.348 130.858L234.202 134.764L232.989 136.132L234.202 138.123L235.414 140.28L235.714 142.405L236.149 142.542L236.77 141.751Z" fill="#E30A13"/>
<path d="M278.202 166.527L278.718 167.263L280.189 166.895L281.734 167.263L284.085 169.102L285.382 170.644L286.431 170.336L286.438 170.203L282.541 166.454L280.851 165.793L279.345 161.961L277.395 162.852L276.807 164.874V167.263H277.395L278.202 166.527Z" fill="#E30A13"/>
<path d="M287.026 175.204L285.998 172.832L286.159 172.577L284.463 172.975L284.894 171.527L285.158 170.38L284.085 169.102L281.733 167.263L280.189 166.895L278.717 167.263L278.202 166.527L277.395 167.263H276.807V167.485L276.065 168.955L274.19 172.408L273.084 176.086L271.732 176.746L272.143 177.41L273.245 178.216L275.19 181.086L276.065 182.334H278.202L279.526 183.291L281.512 183.989L283.128 182.188L285.284 182.849L287.687 181.674L290.099 181.379L294.158 176.894L287.026 175.204Z" fill="#E30A13"/>
<path d="M288.569 173.734L286.673 171.773L285.998 172.832L287.026 175.204L294.158 176.894L290.099 181.379L287.687 181.674L285.284 182.849L284.834 182.711L283.572 183.989V190.201L284.474 191.374L292.026 184.246L296.805 177.188L298.421 171.086L288.569 173.734Z" fill="#E30A13"/>
<path d="M283.572 183.989L284.834 182.711L283.129 182.187L281.512 183.989L279.526 183.29L278.202 182.334H276.065L275.19 181.085L274.889 180.64L273.057 182.443L274.674 185.864L273.829 187.371L272.76 188.804H273.245L272.71 190.553L281.217 195.827L282.835 192.921L284.474 191.374L283.572 190.201V183.989Z" fill="#E30A13"/>
<path d="M268.504 185.276L267.763 187.371L266.293 189.981V191.206L269.318 190.869L269.606 188.804H272.76L273.829 187.371L274.674 185.865L273.125 182.589L268.504 183.29V185.276Z" fill="#E30A13"/>
<path d="M272.143 205.641L271.646 207.324L271.149 209.316L271.646 210.861L273.245 211.45L272.71 213.066L273.829 215.346L275.115 213.286V210.934L274.348 209.749V210.496H273.245L272.693 207.185L272.179 203.479L271.149 203.013V203.878L272.143 205.641Z" fill="#E30A13"/>
<path d="M262.69 221.668L262.323 220.052L260.779 218.801L259.162 216.448H256.221L252.986 217.036V222.183L251.295 222.624V227.723L252.471 229.755L255.487 227.771L259.676 228.358L260.337 226.594L261.736 224.756L264.711 222.654L264.234 221.668H262.69Z" fill="#E30A13"/>
<path d="M269.637 220.564L270.484 218.654V214.39L267.047 213.286V212.552L264.755 212.992L264.382 213.948L261.514 216.449L259.382 215.787L259.125 216.449H259.162L260.779 218.801L262.323 220.052L262.69 221.668H264.234L264.711 222.654L264.755 222.624L268.131 223.212L268.138 223.29L269.637 221.668V220.564Z" fill="#E30A13"/>
<path d="M256.661 215.749L254.09 216.448L251.222 216.081L249.089 215.419H242.62L241.223 215.052L239.826 215.419L239.022 215.251L238.943 215.566L241.517 220.346L242.987 226.373L245.046 232.403L245.065 232.451L246.59 232.035L248.722 233.505L250.854 232.035V226.962L251.295 227.723V222.624L252.987 222.183V217.036L256.221 216.448H259.125L259.272 216.071L256.392 215.519L256.661 215.749Z" fill="#E30A13"/>
<path d="M248.722 183.291L247.104 183.989L245.927 186.452L241.865 186.081L242.032 187.335L243.428 186.897L243.869 188.233L242.693 189.319L243.576 190.129L242.693 192.774L240.928 191.966L239.022 192.774L240.119 193.217V194.065L238.649 194.906L239.458 195.937L239.676 196.688L241.519 196.173L241.59 196.01H242.104H243.502L244.09 196.45L246.001 194.832V192.774L248.394 190.553L249.016 186.305L250.192 183.989L248.722 183.291Z" fill="#E30A13"/>
<path d="M239.972 197.701H240.855L241.519 196.173L239.676 196.688L239.972 197.701Z" fill="#E30A13"/>
<path d="M238.942 185.873L236.325 185.917L235.866 187.777H238.942V185.873Z" fill="#E30A13"/>
<path d="M240.119 193.217L239.022 192.774L240.928 191.966L242.693 192.774L243.576 190.129L242.693 189.319L243.869 188.233L243.428 186.897L242.032 187.334L241.865 186.081L239.497 185.865L238.942 185.873V187.776H235.866L235.194 190.495L238.649 194.906L240.119 194.065V193.217Z" fill="#E30A13"/>
<path d="M267.837 183.989L266.629 182.115L264.015 182.443L263.03 181.294L259.75 181.599L255.633 181.821V182.922L253.207 182.61L251.295 181.23L250.192 182.443L249.593 183.705L250.192 183.989L249.016 186.305L248.394 190.553L246.001 192.774V194.832L244.09 196.45L243.502 196.01H241.59L240.855 197.701H239.972L240.117 198.2H246.809L247.912 201.156L250.633 201.45L251.076 199.612L254.456 200.054L255.045 205.476H257.434L257.523 206.407L258.867 206.083L260.853 207.185L262.543 206.857L264.755 208.95L266.293 209.316V207.324H265.043L264.161 206.083L264.755 203.73L264.308 202.847L266.906 201.105L265.36 198.435L264.755 194.065H265.338V193.105L266.072 191.23L266.293 191.206V189.981L267.763 187.371L268.504 185.276V183.989H267.837Z" fill="#E30A13"/>
<path d="M262.471 180.641L259.97 178.071L258.721 176.746L257.029 175.259L255.927 172.188L255.903 172.144L254.238 173.659L253.281 175.259H250.192L250.559 176.746L247.766 177.708L246.074 178.071L245.27 177.569L244.384 179.468L244.017 180.938L244.972 183.291L246.506 185.24L247.104 183.989L248.722 183.291L249.593 183.705L250.192 182.443L251.295 181.23L253.207 182.61L255.633 182.923V181.821L259.75 181.599L263.03 181.294L262.471 180.641Z" fill="#E30A13"/>
<path d="M202.081 169.831L201.595 169.763L199.682 170.203L199.174 170.317L200.638 172.557L200.758 172.676L202.427 171.654L202.081 169.831Z" fill="#E30A13"/>
<path d="M209.021 177.708V176.746L208.212 176.216H207.027L206.373 177.85L205.611 178.774L211.52 182.482L211.638 182.443L211.593 180.129L209.977 179.616V178.732L210.456 177.708H209.977H209.021Z" fill="#E30A13"/>
<path d="M209.841 170.644L208.763 170.362L207.257 170.965L206.279 170.385L206.373 170.644L204.683 170.203L202.081 169.831L202.427 171.654L200.758 172.676L203.139 175.057L203.203 175.192L204.094 174.393L206.373 173.658L207.257 175.645L207.027 176.215H208.212L209.021 176.746V177.708H209.977H210.455L211.079 176.379L210.637 173.513L211.699 173.27L209.977 172.144L209.841 170.644Z" fill="#E30A13"/>
<path d="M237.404 178.691L238.942 179.349L239.972 177.708L242.104 174.101L243.576 171.654L243.318 169.617L242.178 168.585L240.928 169.322L239.022 168.955L236.369 169.837L234.384 168.955L232.842 169.395L231.665 168.219L228.503 168.513L227.768 171.086L228.503 172.975L227.033 175.13V179.335L227.475 179.174L230.562 182.482L234.974 182.07L235.714 179.982L237.404 178.691Z" fill="#E30A13"/>
<path d="M244.972 183.291L244.017 180.938L244.384 179.468L245.414 177.262L243.795 175.35L243.208 174.137H245.414L244.457 172.975V170.644L243.318 169.617L243.576 171.654L242.104 174.1L239.972 177.708L238.943 179.349L237.404 178.691L235.714 179.981L234.974 182.07L235.268 182.04L236.664 184.54L236.325 185.917L239.497 185.865L245.927 186.452L246.506 185.24L244.972 183.291Z" fill="#E30A13"/>
<path d="M224.516 169.619L224.239 168.222L222.916 167.633L223.32 166.304H221.52L218.136 168.222H216.814L214.976 171.221L214.659 172.975H214.903L217.108 173.954H218.212L218.578 172.144H222.342H223.945L225.857 171.086L226.574 170.549L225.635 169.176L224.516 169.619Z" fill="#E30A13"/>
<path d="M223.32 176.216V173.659L222.429 172.144H222.342H218.578L218.212 173.954H218.615L219.092 175.792L218.136 178.071L218.504 180.496L218.236 181.62L219.681 182.04L224.205 180.376L223.32 178.774V176.216Z" fill="#E30A13"/>
<path d="M227.768 171.086L227.892 170.654L227.033 170.203L225.857 171.086L223.945 172.144H223.752L224.828 173.366L225.232 175.35L224.828 178.691L225.351 179.954L227.033 179.335V175.13L228.503 172.975L227.768 171.086Z" fill="#E30A13"/>
<path d="M225.232 175.35L224.828 173.366L223.752 172.144H222.429L223.32 173.659V176.216V178.774L224.205 180.376L225.351 179.954L224.828 178.691L225.232 175.35Z" fill="#E30A13"/>
<path d="M228.503 165.181L228.895 162.19V159.805L227.988 159.951L214.736 150.839L213.571 151.116L214.534 163.759L214.976 164.286L214.534 165.645H209.841L208.212 164.918L206.742 165.645L205.713 164.918V166.123L204.455 166.837L204.536 166.969L205.491 168.218L206.279 170.385L207.257 170.965L208.763 170.362L209.841 170.644L209.977 172.144L211.699 173.27L212.991 172.975H214.659L214.976 171.221L216.814 168.222H218.136L221.52 166.304H223.32L223.266 166.483L225.073 166.302L228.503 165.181Z" fill="#E30A13"/>
<path d="M256.293 165.278H257.764L257.317 159.138L245.78 153.147L243.989 153.794L244.678 155.573L244.776 156.749L245.561 157.974L245.021 159.95V163.759L242.131 166.527V168.614L242.178 168.585L244.457 170.644V172.975L245.414 174.137H243.208L243.795 175.35L245.414 177.262L245.27 177.569L246.074 178.071L247.766 177.708L250.559 176.746L250.192 175.259H253.281L254.238 173.658L255.903 172.144L254.751 169.837L255.118 168.218L256.293 165.278Z" fill="#E30A13"/>
<path d="M245.021 163.759V159.951L245.561 157.975L244.776 156.75L244.678 155.573L243.989 153.795L242.528 154.323L239.493 153.436L239.497 153.441L231.006 159.47L228.895 159.805V162.19L228.503 165.181L225.073 166.302L223.266 166.483L222.916 167.633L224.239 168.222L224.515 169.619L225.635 169.176L226.574 170.549L227.033 170.203L227.892 170.653L228.503 168.513L231.665 168.218L232.842 169.395L234.384 168.955L236.369 169.837L239.022 168.955L240.928 169.321L242.131 168.614V166.527L245.021 163.759Z" fill="#E30A13"/>
<path d="M271.462 210.288L271.149 209.316L271.646 207.324L272.143 205.641L271.149 203.878V203.013L268.308 201.731L268.504 202.336H267.62L266.906 201.105L264.308 202.848L264.755 203.73L264.161 206.083L265.043 207.324H266.293V209.316L264.755 208.95L262.543 206.857L260.853 207.185L258.867 206.083L257.523 206.407L257.764 208.95L254.382 208.508V213.802L256.392 215.519L259.272 216.071L259.382 215.787L261.514 216.449L264.381 213.948L264.755 212.992L266.813 212.597L267.046 211.816L271.462 210.288Z" fill="#E30A13"/>
<path d="M280.997 206.083L277.689 206.634H274.348V209.749L275.115 210.934V213.286L273.829 215.346L272.71 213.066L273.245 211.45L271.646 210.861L271.462 210.288L267.046 211.816L266.813 212.597L267.046 212.552V213.286L270.484 214.39V218.654L269.637 220.564V221.668L268.138 223.29L268.504 227.403L269.055 229.167L269.637 229.607L269.97 228.873L269.823 228.066L273.94 225.86V222.844L273.204 218.948L281.805 212.773L282.321 210.126V204.884L280.997 206.083Z" fill="#E30A13"/>
<path d="M284.463 172.975L286.159 172.577L286.673 171.772L286.364 171.454L286.431 170.336L285.382 170.644L285.158 170.38L284.894 171.526L284.463 172.975Z" fill="#E30A13"/>
<path d="M279.232 161.675L277.395 160.13L276.455 155.573H259.203L259.088 158.66L257.53 159.25L257.317 159.139L257.764 165.278H256.293L255.118 168.218L254.751 169.837L255.928 172.188L257.021 175.239L259.272 173.771H263.262L265.338 173.659L267.87 172.677L270.484 169.617L272.71 172.144L274.167 172.486L274.19 172.408L276.065 168.955L276.807 167.485V164.874L277.395 162.852L279.345 161.961L279.232 161.675Z" fill="#E30A13"/>
<path d="M270.484 169.617L267.87 172.676L265.338 173.659L263.262 173.771H259.272L257.021 175.239L257.029 175.259L258.721 176.746L259.97 178.071L262.471 180.64L264.015 182.443L266.629 182.115L267.837 183.989H268.504V183.291L273.125 182.589L273.057 182.443L274.889 180.64L273.245 178.216L272.143 177.41L271.732 176.746L273.084 176.086L274.167 172.486L272.71 172.144L270.484 169.617Z" fill="#E30A13"/>
</svg>
